<svg xmlns="http://www.w3.org/2000/svg" width="481.391" height="68.471" viewBox="0 0 481.391 68.471">
  <defs>
    <style>
      .cls-1 {
        fill: #001921;
      }

      .cls-2 {
        fill: #2351a3;
      }

      .cls-3, .cls-5 {
        fill: #c7c379;
      }

      .cls-3, .cls-4 {
        fill-rule: evenodd;
      }

      .cls-4 {
        fill: #1b499e;
      }
    </style>
  </defs>
  <g id="logo_viet" transform="translate(-80 -31.064)">
    <path id="Trường_tiếng_Nhật_Tokyo_World" data-name="Trường tiếng Nhật Tokyo World" class="cls-1" d="M5.712,0H9.264V-14.808H14.3V-17.76H.72v2.952H5.712ZM16.32,0h3.5V-8.016c.768-1.944,2.04-2.64,3.1-2.64a4.236,4.236,0,0,1,1.392.216l.624-3.048a3.8,3.8,0,0,0-1.584-.288,4.656,4.656,0,0,0-3.816,2.712h-.1L19.2-13.44H16.32ZM38.256-17.5a3.3,3.3,0,0,1,.432,1.536c0,2.016-1.152,2.424-2.232,2.52h-1.08v9.072c-.912,1.2-1.632,1.68-2.736,1.68-1.3,0-1.872-.72-1.872-2.808V-13.44H27.24v8.4c0,3.36,1.248,5.376,4.128,5.376a5.4,5.4,0,0,0,4.3-2.256h.1L36.024,0H38.9V-12.312a3.9,3.9,0,0,0,2.76-3.888,4.625,4.625,0,0,0-.768-2.448Zm12.288.192-4.1-4.872-2.424,2.352L48.792-15.6ZM48.888-2.544c-1.824,0-2.856-1.632-2.856-4.152,0-2.544,1.032-4.2,2.856-4.2s2.856,1.656,2.856,4.2C51.744-4.176,50.712-2.544,48.888-2.544Zm4.176-14.688A3.3,3.3,0,0,1,53.5-15.7a2.272,2.272,0,0,1-1.968,2.472,6.674,6.674,0,0,0-2.64-.552c-3.36,0-6.456,2.592-6.456,7.08,0,4.44,3.1,7.032,6.456,7.032S55.344-2.256,55.344-6.7a7.221,7.221,0,0,0-2.064-5.328,4,4,0,0,0,3.168-3.912,4.425,4.425,0,0,0-.768-2.448ZM58.9,0h3.5V-9.24c1.008-.984,1.7-1.512,2.808-1.512,1.32,0,1.9.744,1.9,2.808V0h3.528V-8.376c0-3.384-1.248-5.4-4.152-5.4a6.2,6.2,0,0,0-4.368,2.112h-.1l-.24-1.776H58.9ZM79.608,5.832c4.488,0,7.3-2.064,7.3-4.776,0-2.352-1.752-3.36-4.992-3.36h-2.28c-1.584,0-2.112-.384-2.112-1.1A1.339,1.339,0,0,1,78.1-4.56a5.724,5.724,0,0,0,1.728.312c2.88,0,5.184-1.536,5.184-4.56a3.381,3.381,0,0,0-.624-2.04h2.3V-13.44H81.84a6.322,6.322,0,0,0-2.016-.336c-2.856,0-5.424,1.7-5.424,4.872a4.442,4.442,0,0,0,1.776,3.5v.1a3.335,3.335,0,0,0-1.488,2.52A2.548,2.548,0,0,0,75.912-.528v.12a3.263,3.263,0,0,0-1.92,2.784C73.992,4.752,76.44,5.832,79.608,5.832Zm.216-12.264A2.18,2.18,0,0,1,77.712-8.9c0-1.584.912-2.472,2.112-2.472s2.088.888,2.088,2.472S81-6.432,79.824-6.432ZM80.136,3.6c-1.968,0-3.216-.648-3.216-1.776a2.016,2.016,0,0,1,.888-1.56A7.585,7.585,0,0,0,79.68.456h1.632c1.44,0,2.232.24,2.232,1.2C83.544,2.712,82.152,3.6,80.136,3.6ZM100.776.336a8.685,8.685,0,0,0,2.832-.5l-.576-2.568a3.927,3.927,0,0,1-1.32.288c-1.2,0-1.824-.72-1.824-2.256v-5.952H103.2V-13.44H99.888v-3.6H96.936l-.408,3.6-2.064.168v2.616h1.9V-4.7C96.36-1.68,97.584.336,100.776.336ZM106.536,0h3.5V-13.44h-3.5Zm1.776-15.6a1.954,1.954,0,0,0,2.088-1.92,1.926,1.926,0,0,0-2.088-1.92,1.933,1.933,0,0,0-2.112,1.92A1.961,1.961,0,0,0,108.312-15.6ZM120.264.336a8.478,8.478,0,0,0,4.7-1.488l-1.2-2.16a5.54,5.54,0,0,1-3.024.936,3.531,3.531,0,0,1-3.72-3.36h8.28a6.556,6.556,0,0,0,.168-1.608c0-3.72-1.92-6.432-5.616-6.432-3.216,0-6.264,2.712-6.264,7.08C113.592-2.28,116.52.336,120.264.336Zm-3.288-8.4c.264-1.968,1.512-2.976,2.928-2.976,1.728,0,2.544,1.152,2.544,2.976ZM117-15.432l2.784-1.824h.12l2.784,1.824,1.128-1.3-2.568-2.5H118.44l-2.592,2.5Zm5.952-3,1.368,1.08,2.76-3.24-1.92-1.272ZM128.976,0h3.5V-9.24c1.008-.984,1.7-1.512,2.808-1.512,1.32,0,1.9.744,1.9,2.808V0h3.528V-8.376c0-3.384-1.248-5.4-4.152-5.4a6.194,6.194,0,0,0-4.368,2.112h-.1l-.24-1.776h-2.88Zm20.712,5.832c4.488,0,7.3-2.064,7.3-4.776,0-2.352-1.752-3.36-4.992-3.36h-2.28c-1.584,0-2.112-.384-2.112-1.1a1.339,1.339,0,0,1,.576-1.152,5.724,5.724,0,0,0,1.728.312c2.88,0,5.184-1.536,5.184-4.56a3.381,3.381,0,0,0-.624-2.04h2.3V-13.44H151.92a6.322,6.322,0,0,0-2.016-.336c-2.856,0-5.424,1.7-5.424,4.872a4.442,4.442,0,0,0,1.776,3.5v.1a3.335,3.335,0,0,0-1.488,2.52,2.548,2.548,0,0,0,1.224,2.256v.12a3.263,3.263,0,0,0-1.92,2.784C144.072,4.752,146.52,5.832,149.688,5.832ZM149.9-6.432A2.18,2.18,0,0,1,147.792-8.9c0-1.584.912-2.472,2.112-2.472s2.088.888,2.088,2.472S151.08-6.432,149.9-6.432ZM150.216,3.6C148.248,3.6,147,2.952,147,1.824a2.016,2.016,0,0,1,.888-1.56,7.585,7.585,0,0,0,1.872.192h1.632c1.44,0,2.232.24,2.232,1.2C153.624,2.712,152.232,3.6,150.216,3.6ZM166.224,0h3.36V-7.128c0-2.04-.264-4.272-.432-6.192h.12l1.8,3.816L176.208,0h3.6V-17.76h-3.36v7.08c0,2.016.264,4.368.456,6.216h-.12L175.008-8.3l-5.16-9.456h-3.624Zm18.288,0h3.5V-9.24c1.008-.984,1.7-1.512,2.808-1.512,1.32,0,1.9.744,1.9,2.808V0h3.528V-8.376c0-3.384-1.248-5.4-4.152-5.4a6.116,6.116,0,0,0-4.224,1.968l.144-2.52v-4.824h-3.5Zm19.272.336A6.32,6.32,0,0,0,207.84-1.44h.072L208.176,0h2.88V-7.848c0-3.888-1.752-5.928-5.16-5.928A10.737,10.737,0,0,0,200.28-12l1.272,2.328a7.594,7.594,0,0,1,3.7-1.272c1.656,0,2.232,1.008,2.28,2.328-5.4.576-7.728,2.088-7.728,4.968A3.818,3.818,0,0,0,203.784.336Zm1.152-2.76c-1.032,0-1.776-.456-1.776-1.512,0-1.2,1.1-2.088,4.368-2.52v2.712A3.563,3.563,0,0,1,204.936-2.424Zm-3.72-14.184,1.368,1.272,3.36-2.64h.1l3.36,2.64,1.368-1.272-3-3.624h-3.576ZM205.536,6a1.892,1.892,0,0,0,2.016-1.92,2.018,2.018,0,0,0-4.032,0A1.892,1.892,0,0,0,205.536,6ZM219.72.336a8.685,8.685,0,0,0,2.832-.5l-.576-2.568a3.927,3.927,0,0,1-1.32.288c-1.2,0-1.824-.72-1.824-2.256v-5.952h3.312V-13.44h-3.312v-3.6H215.88l-.408,3.6-2.064.168v2.616h1.9V-4.7C215.3-1.68,216.528.336,219.72.336ZM235.344,0H238.9V-14.808h5.04V-17.76H230.352v2.952h4.992Zm15.408.336c3.36,0,6.456-2.592,6.456-7.032,0-4.488-3.1-7.08-6.456-7.08S244.3-11.184,244.3-6.7C244.3-2.256,247.392.336,250.752.336Zm0-2.88c-1.824,0-2.856-1.632-2.856-4.152,0-2.544,1.032-4.2,2.856-4.2s2.856,1.656,2.856,4.2C253.608-4.176,252.576-2.544,250.752-2.544ZM260.76,0h3.432V-3.36l1.944-2.208L269.4,0h3.816l-5.088-7.944,4.656-5.5h-3.84l-4.656,5.808h-.1v-11.52H260.76Zm16.3,5.4c3,0,4.44-1.824,5.616-4.992l4.776-13.848h-3.384L282.216-7.2c-.312,1.248-.648,2.544-.96,3.792h-.12c-.384-1.3-.72-2.592-1.128-3.792l-2.136-6.24H274.32l5.232,13.2-.24.792a2.573,2.573,0,0,1-2.52,2.04,3.614,3.614,0,0,1-.936-.168l-.648,2.712A5.691,5.691,0,0,0,277.056,5.4ZM295.68.336c3.36,0,6.456-2.592,6.456-7.032,0-4.488-3.1-7.08-6.456-7.08s-6.456,2.592-6.456,7.08C289.224-2.256,292.32.336,295.68.336Zm0-2.88c-1.824,0-2.856-1.632-2.856-4.152,0-2.544,1.032-4.2,2.856-4.2s2.856,1.656,2.856,4.2C298.536-4.176,297.5-2.544,295.68-2.544ZM313.7,0h4.344l1.944-8.784c.288-1.392.528-2.76.768-4.1h.1c.216,1.344.48,2.712.768,4.1L323.616,0h4.416l3.288-17.76h-3.384L326.544-9.1c-.264,1.848-.528,3.744-.792,5.664h-.12c-.384-1.92-.744-3.84-1.128-5.664L322.44-17.76h-3.024L317.352-9.1c-.384,1.848-.768,3.768-1.128,5.664h-.1c-.264-1.9-.552-3.792-.816-5.664L313.9-17.76h-3.624Zm26.208.336c3.36,0,6.456-2.592,6.456-7.032,0-4.488-3.1-7.08-6.456-7.08s-6.456,2.592-6.456,7.08C333.456-2.256,336.552.336,339.912.336Zm0-2.88c-1.824,0-2.856-1.632-2.856-4.152,0-2.544,1.032-4.2,2.856-4.2s2.856,1.656,2.856,4.2C342.768-4.176,341.736-2.544,339.912-2.544ZM349.92,0h3.5V-8.016c.768-1.944,2.04-2.64,3.1-2.64a4.236,4.236,0,0,1,1.392.216l.624-3.048a3.8,3.8,0,0,0-1.584-.288,4.656,4.656,0,0,0-3.816,2.712h-.1l-.24-2.376h-2.88ZM364.3.336A4.8,4.8,0,0,0,366.12.024l-.432-2.616a1.988,1.988,0,0,1-.48.048c-.336,0-.72-.264-.72-1.056V-19.152h-3.5V-3.768C360.984-1.272,361.848.336,364.3.336Zm9.576,0a5.575,5.575,0,0,0,3.72-1.728h.072L377.952,0h2.856V-19.152H377.28v4.728l.144,2.112a4.626,4.626,0,0,0-3.408-1.464c-2.9,0-5.64,2.688-5.64,7.08S370.536.336,373.872.336Zm.912-2.9C373.008-2.568,372-3.96,372-6.744c0-2.688,1.272-4.128,2.784-4.128a3.571,3.571,0,0,1,2.5,1.008v5.9A2.99,2.99,0,0,1,374.784-2.568Z" transform="translate(180.583 93.535)"/>
    <path id="Tổ_chức_đào_tạo_tiếng_Nhật_được_cấp_phép_của_Bộ_tư_pháp" data-name="Tổ chức đào tạo tiếng Nhật được cấp phép của Bộ tư pháp" class="cls-1" d="M3.332,0H5.4V-8.638h2.94V-10.36H.42v1.722H3.332ZM12.67.2a3.82,3.82,0,0,0,3.766-4.1,3.829,3.829,0,0,0-3.766-4.13A3.829,3.829,0,0,0,8.9-3.906,3.82,3.82,0,0,0,12.67.2Zm0-1.68C11.606-1.484,11-2.436,11-3.906s.6-2.45,1.666-2.45,1.666.966,1.666,2.45S13.734-1.484,12.67-1.484ZM11-9l1.638-1.064H12.7L14.336-9l.672-.756-1.526-1.456H11.844l-1.5,1.456Zm3.752-1.19c.938-.154,1.764-.462,1.764-1.442,0-.742-.644-1.19-2.24-1.232l-.182.882c.784.056,1.05.224,1.05.56,0,.294-.21.42-.546.49ZM26.068.2A3.89,3.89,0,0,0,28.63-.756l-.812-1.358a2.435,2.435,0,0,1-1.526.63c-1.134,0-1.946-.952-1.946-2.422s.812-2.45,2-2.45a1.79,1.79,0,0,1,1.2.518l.98-1.33a3.427,3.427,0,0,0-2.282-.868,3.914,3.914,0,0,0-4,4.13A3.747,3.747,0,0,0,26.068.2ZM30.814,0h2.044V-5.39A2.253,2.253,0,0,1,34.5-6.272c.77,0,1.106.434,1.106,1.638V0H37.66V-4.886c0-1.974-.728-3.15-2.422-3.15a3.568,3.568,0,0,0-2.464,1.148l.084-1.47v-2.814H30.814ZM46.508-11.564l-1.4-1.372-2.38,2.842L43.75-9.1Zm.308,1.358a1.927,1.927,0,0,1,.252.9c0,1.176-.672,1.414-1.3,1.47h-.63v5.292a1.889,1.889,0,0,1-1.6.98c-.756,0-1.092-.42-1.092-1.638V-7.84H40.39v4.9C40.39-.98,41.118.2,42.8.2A3.151,3.151,0,0,0,45.3-1.12h.056L45.514,0h1.68V-7.182A2.276,2.276,0,0,0,48.8-9.45a2.7,2.7,0,0,0-.448-1.428ZM53.424.2a3.89,3.89,0,0,0,2.562-.952l-.812-1.358a2.435,2.435,0,0,1-1.526.63c-1.134,0-1.946-.952-1.946-2.422s.812-2.45,2-2.45a1.79,1.79,0,0,1,1.2.518l.98-1.33a3.427,3.427,0,0,0-2.282-.868,3.914,3.914,0,0,0-4,4.13A3.747,3.747,0,0,0,53.424.2ZM66.794-2.31a1.744,1.744,0,0,1-1.456.812c-1.036,0-1.624-.756-1.624-2.086,0-1.274.742-2.03,1.624-2.03a2.083,2.083,0,0,1,1.456.588Zm3.164-7.6H68.852v-1.26H66.794v1.26H64.386V-8.89h2.408v1.2l.084,1.232a2.687,2.687,0,0,0-1.988-.84A3.491,3.491,0,0,0,61.6-3.57C61.6-1.274,62.86.2,64.806.2a3.124,3.124,0,0,0,2.156-.938H67l.14.742h1.708V-8.89l1.106-.084ZM73.7.2A3.686,3.686,0,0,0,76.062-.84H76.1l.154.84h1.68V-4.578c0-2.268-1.022-3.458-3.01-3.458A6.263,6.263,0,0,0,71.652-7l.742,1.358a4.43,4.43,0,0,1,2.156-.742c.966,0,1.3.588,1.33,1.358-3.15.336-4.508,1.218-4.508,2.9A2.227,2.227,0,0,0,73.7.2Zm.672-1.61c-.6,0-1.036-.266-1.036-.882,0-.7.644-1.218,2.548-1.47v1.582A2.078,2.078,0,0,1,74.368-1.414Zm.56-7.686,1.008-.994-2.38-2.842-1.4,1.372ZM84.014.2a3.82,3.82,0,0,0,3.766-4.1,3.829,3.829,0,0,0-3.766-4.13,3.829,3.829,0,0,0-3.766,4.13A3.82,3.82,0,0,0,84.014.2Zm0-1.68c-1.064,0-1.666-.952-1.666-2.422s.6-2.45,1.666-2.45,1.666.966,1.666,2.45S85.078-1.484,84.014-1.484ZM96.95.2A5.066,5.066,0,0,0,98.6-.1l-.336-1.5a2.291,2.291,0,0,1-.77.168c-.7,0-1.064-.42-1.064-1.316V-6.216h1.932V-7.84H96.432v-2.1H94.71l-.238,2.1-1.2.1v1.526h1.106v3.472C94.374-.98,95.088.2,96.95.2Zm5.32,0A3.686,3.686,0,0,0,104.636-.84h.042l.154.84h1.68V-4.578c0-2.268-1.022-3.458-3.01-3.458A6.263,6.263,0,0,0,100.226-7l.742,1.358a4.43,4.43,0,0,1,2.156-.742c.966,0,1.3.588,1.33,1.358-3.15.336-4.508,1.218-4.508,2.9A2.227,2.227,0,0,0,102.27.2Zm.672-1.61c-.6,0-1.036-.266-1.036-.882,0-.7.644-1.218,2.548-1.47v1.582A2.078,2.078,0,0,1,102.942-1.414Zm.35,4.914a1.1,1.1,0,0,0,1.176-1.12,1.177,1.177,0,0,0-2.352,0A1.1,1.1,0,0,0,103.292,3.5Zm9.3-3.3a3.82,3.82,0,0,0,3.766-4.1,3.829,3.829,0,0,0-3.766-4.13,3.829,3.829,0,0,0-3.766,4.13A3.82,3.82,0,0,0,112.588.2Zm0-1.68c-1.064,0-1.666-.952-1.666-2.422s.6-2.45,1.666-2.45,1.666.966,1.666,2.45S113.652-1.484,112.588-1.484ZM125.524.2A5.066,5.066,0,0,0,127.176-.1l-.336-1.5a2.291,2.291,0,0,1-.77.168c-.7,0-1.064-.42-1.064-1.316V-6.216h1.932V-7.84h-1.932v-2.1h-1.722l-.238,2.1-1.2.1v1.526h1.106v3.472C122.948-.98,123.662.2,125.524.2Zm3.71-.2h2.044V-7.84h-2.044Zm1.036-9.1a1.14,1.14,0,0,0,1.218-1.12,1.123,1.123,0,0,0-1.218-1.12,1.128,1.128,0,0,0-1.232,1.12A1.144,1.144,0,0,0,130.27-9.1ZM137.592.2a4.946,4.946,0,0,0,2.744-.868l-.7-1.26a3.231,3.231,0,0,1-1.764.546,2.06,2.06,0,0,1-2.17-1.96h4.83a3.825,3.825,0,0,0,.1-.938c0-2.17-1.12-3.752-3.276-3.752a3.838,3.838,0,0,0-3.654,4.13A3.8,3.8,0,0,0,137.592.2Zm-1.918-4.9a1.768,1.768,0,0,1,1.708-1.736c1.008,0,1.484.672,1.484,1.736Zm.014-4.3,1.624-1.064h.07L139.006-9l.658-.756-1.5-1.456h-1.638l-1.512,1.456Zm3.472-1.75.8.63,1.61-1.89-1.12-.742ZM143.024,0h2.044V-5.39a2.253,2.253,0,0,1,1.638-.882c.77,0,1.106.434,1.106,1.638V0h2.058V-4.886c0-1.974-.728-3.15-2.422-3.15A3.613,3.613,0,0,0,144.9-6.8h-.056L144.7-7.84h-1.68Zm12.432,3.4c2.618,0,4.256-1.2,4.256-2.786,0-1.372-1.022-1.96-2.912-1.96h-1.33c-.924,0-1.232-.224-1.232-.644a.781.781,0,0,1,.336-.672,3.339,3.339,0,0,0,1.008.182c1.68,0,3.024-.9,3.024-2.66a1.972,1.972,0,0,0-.364-1.19h1.344V-7.84h-2.828a3.688,3.688,0,0,0-1.176-.2,2.89,2.89,0,0,0-3.164,2.842,2.591,2.591,0,0,0,1.036,2.044v.056a1.946,1.946,0,0,0-.868,1.47A1.486,1.486,0,0,0,153.3-.308v.07a1.9,1.9,0,0,0-1.12,1.624C152.18,2.772,153.608,3.4,155.456,3.4Zm.126-7.154a1.272,1.272,0,0,1-1.232-1.442c0-.924.532-1.442,1.232-1.442s1.218.518,1.218,1.442S156.268-3.752,155.582-3.752Zm.182,5.852c-1.148,0-1.876-.378-1.876-1.036a1.176,1.176,0,0,1,.518-.91A4.425,4.425,0,0,0,155.5.266h.952c.84,0,1.3.14,1.3.7C157.752,1.582,156.94,2.1,155.764,2.1ZM165.8,0h1.96V-4.158c0-1.19-.154-2.492-.252-3.612h.07l1.05,2.226,3,5.544h2.1V-10.36h-1.96v4.13c0,1.176.154,2.548.266,3.626h-.07l-1.036-2.24-3.01-5.516H165.8ZM176.82,0h2.044V-5.39a2.253,2.253,0,0,1,1.638-.882c.77,0,1.106.434,1.106,1.638V0h2.058V-4.886c0-1.974-.728-3.15-2.422-3.15a3.568,3.568,0,0,0-2.464,1.148l.084-1.47v-2.814H176.82Zm11.592.2A3.687,3.687,0,0,0,190.778-.84h.042l.154.84h1.68V-4.578c0-2.268-1.022-3.458-3.01-3.458A6.263,6.263,0,0,0,186.368-7l.742,1.358a4.43,4.43,0,0,1,2.156-.742c.966,0,1.3.588,1.33,1.358-3.15.336-4.508,1.218-4.508,2.9A2.227,2.227,0,0,0,188.412.2Zm.672-1.61c-.6,0-1.036-.266-1.036-.882,0-.7.644-1.218,2.548-1.47v1.582A2.078,2.078,0,0,1,189.084-1.414Zm-2.17-8.274.8.742,1.96-1.54h.056l1.96,1.54.8-.742-1.75-2.114H188.65ZM189.434,3.5a1.1,1.1,0,0,0,1.176-1.12,1.177,1.177,0,0,0-2.352,0A1.1,1.1,0,0,0,189.434,3.5ZM198.058.2A5.067,5.067,0,0,0,199.71-.1l-.336-1.5a2.291,2.291,0,0,1-.77.168c-.7,0-1.064-.42-1.064-1.316V-6.216h1.932V-7.84H197.54v-2.1h-1.722l-.238,2.1-1.2.1v1.526h1.106v3.472C195.482-.98,196.2.2,198.058.2ZM5.852,13.69A1.744,1.744,0,0,1,4.4,14.5c-1.036,0-1.624-.756-1.624-2.086,0-1.274.742-2.03,1.624-2.03a2.083,2.083,0,0,1,1.456.588Zm3.164-7.6H7.91V4.828H5.852v1.26H3.444V7.11H5.852v1.2l.084,1.232a2.687,2.687,0,0,0-1.988-.84A3.491,3.491,0,0,0,.658,12.43c0,2.3,1.26,3.766,3.206,3.766a3.124,3.124,0,0,0,2.156-.938h.042L6.2,16H7.91V7.11l1.106-.084Zm8.148-.294a1.927,1.927,0,0,1,.252.9c0,1.176-.672,1.414-1.3,1.47h-.63v5.292a1.889,1.889,0,0,1-1.6.98c-.756,0-1.092-.42-1.092-1.638V8.16H10.738v4.9c0,1.96.728,3.136,2.408,3.136a3.151,3.151,0,0,0,2.506-1.316h.056L15.862,16h1.68V8.818a2.276,2.276,0,0,0,1.61-2.268A2.7,2.7,0,0,0,18.7,5.122ZM23.716,17.26a1.121,1.121,0,1,0,1.176,1.12A1.112,1.112,0,0,0,23.716,17.26Zm0-2.744c-1.064,0-1.666-.952-1.666-2.422s.6-2.45,1.666-2.45,1.666.966,1.666,2.45S24.78,14.516,23.716,14.516Zm2.436-8.568a1.927,1.927,0,0,1,.252.9,1.325,1.325,0,0,1-1.148,1.442,3.893,3.893,0,0,0-1.54-.322,3.829,3.829,0,0,0-3.766,4.13,3.78,3.78,0,1,0,7.532,0,4.212,4.212,0,0,0-1.2-3.108A2.335,2.335,0,0,0,28.126,6.7a2.581,2.581,0,0,0-.448-1.428ZM33.236,16.2a3.89,3.89,0,0,0,2.562-.952l-.812-1.358a2.435,2.435,0,0,1-1.526.63c-1.134,0-1.946-.952-1.946-2.422s.812-2.45,2-2.45a1.79,1.79,0,0,1,1.2.518l.98-1.33a3.427,3.427,0,0,0-2.282-.868,3.914,3.914,0,0,0-4,4.13A3.747,3.747,0,0,0,33.236,16.2Zm11.956,0a3.89,3.89,0,0,0,2.562-.952l-.812-1.358a2.435,2.435,0,0,1-1.526.63c-1.134,0-1.946-.952-1.946-2.422s.812-2.45,2-2.45a1.79,1.79,0,0,1,1.2.518l.98-1.33a3.427,3.427,0,0,0-2.282-.868,3.914,3.914,0,0,0-4,4.13A3.747,3.747,0,0,0,45.192,16.2Zm6.51,0a3.686,3.686,0,0,0,2.366-1.036h.042l.154.84h1.68V11.422c0-2.268-1.022-3.458-3.01-3.458A6.263,6.263,0,0,0,49.658,9l.742,1.358a4.43,4.43,0,0,1,2.156-.742c.966,0,1.3.588,1.33,1.358-3.15.336-4.508,1.218-4.508,2.9A2.227,2.227,0,0,0,51.7,16.2Zm.672-1.61c-.6,0-1.036-.266-1.036-.882,0-.7.644-1.218,2.548-1.47v1.582A2.078,2.078,0,0,1,52.374,14.586ZM51.338,7l1.624-1.064h.056L54.656,7l.658-.756-1.5-1.456H52.164L50.652,6.242ZM54.8,5.248l.8.63,1.61-1.89L56.1,3.246ZM58.744,19.01h2.044V16.63l-.056-1.288a2.914,2.914,0,0,0,1.946.854c1.722,0,3.332-1.554,3.332-4.242,0-2.408-1.148-3.99-3.08-3.99a3.722,3.722,0,0,0-2.31,1.008h-.056l-.14-.812h-1.68ZM62.216,14.5a2.194,2.194,0,0,1-1.428-.588V10.47a2.21,2.21,0,0,1,1.554-.812c1.078,0,1.554.826,1.554,2.324C63.9,13.69,63.168,14.5,62.216,14.5ZM72.338,19.01h2.044V16.63l-.056-1.288a2.914,2.914,0,0,0,1.946.854c1.722,0,3.332-1.554,3.332-4.242,0-2.408-1.148-3.99-3.08-3.99a3.722,3.722,0,0,0-2.31,1.008h-.056l-.14-.812h-1.68ZM75.81,14.5a2.194,2.194,0,0,1-1.428-.588V10.47a2.21,2.21,0,0,1,1.554-.812c1.078,0,1.554.826,1.554,2.324C77.49,13.69,76.762,14.5,75.81,14.5ZM82.054,16H84.1V10.61a2.253,2.253,0,0,1,1.638-.882c.77,0,1.106.434,1.106,1.638V16H88.9V11.114c0-1.974-.728-3.15-2.422-3.15a3.568,3.568,0,0,0-2.464,1.148l.084-1.47V4.828H82.054Zm13.062.2a4.946,4.946,0,0,0,2.744-.868l-.7-1.26a3.231,3.231,0,0,1-1.764.546,2.06,2.06,0,0,1-2.17-1.96h4.83a3.825,3.825,0,0,0,.1-.938c0-2.17-1.12-3.752-3.276-3.752a3.838,3.838,0,0,0-3.654,4.13A3.8,3.8,0,0,0,95.116,16.2ZM93.2,11.3A1.768,1.768,0,0,1,94.906,9.56c1.008,0,1.484.672,1.484,1.736Zm1.736-4.4,2.758-2.464-1.4-1.372-2.38,2.842Zm5.614,12.11h2.044V16.63l-.056-1.288a2.914,2.914,0,0,0,1.946.854c1.722,0,3.332-1.554,3.332-4.242,0-2.408-1.148-3.99-3.08-3.99a3.722,3.722,0,0,0-2.31,1.008h-.056l-.14-.812h-1.68ZM104.02,14.5a2.194,2.194,0,0,1-1.428-.588V10.47a2.21,2.21,0,0,1,1.554-.812c1.078,0,1.554.826,1.554,2.324C105.7,13.69,104.972,14.5,104.02,14.5ZM117.474,16.2a3.889,3.889,0,0,0,2.562-.952l-.812-1.358a2.435,2.435,0,0,1-1.526.63c-1.134,0-1.946-.952-1.946-2.422s.812-2.45,2-2.45a1.79,1.79,0,0,1,1.2.518l.98-1.33a3.427,3.427,0,0,0-2.282-.868,3.914,3.914,0,0,0-4,4.13A3.747,3.747,0,0,0,117.474,16.2Zm7.07,0a3.151,3.151,0,0,0,2.506-1.316h.056L127.26,16h1.68V8.16h-2.058v5.292a1.889,1.889,0,0,1-1.6.98c-.756,0-1.092-.42-1.092-1.638V8.16h-2.058v4.9C122.136,15.02,122.864,16.2,124.544,16.2Zm.406-9.24c1.12-.1,2.1-.56,2.1-1.6,0-1.064-.77-1.764-2.674-1.82l-.112,1.288c.9.042,1.274.28,1.274.672s-.336.532-.77.616Zm8.82,9.24a3.686,3.686,0,0,0,2.366-1.036h.042l.154.84h1.68V11.422c0-2.268-1.022-3.458-3.01-3.458A6.263,6.263,0,0,0,131.726,9l.742,1.358a4.43,4.43,0,0,1,2.156-.742c.966,0,1.3.588,1.33,1.358-3.15.336-4.508,1.218-4.508,2.9A2.227,2.227,0,0,0,133.77,16.2Zm.672-1.61c-.6,0-1.036-.266-1.036-.882,0-.7.644-1.218,2.548-1.47v1.582A2.078,2.078,0,0,1,134.442,14.586ZM144.858,16h3.7c2.282,0,4.018-.966,4.018-3.052a2.356,2.356,0,0,0-1.946-2.45v-.07a2.35,2.35,0,0,0,1.414-2.24c0-1.932-1.624-2.548-3.752-2.548h-3.43Zm2.072-6.146V7.222h1.232c1.246,0,1.862.364,1.862,1.274,0,.826-.574,1.358-1.89,1.358Zm0,4.55v-3.01h1.442c1.428,0,2.184.42,2.184,1.428,0,1.078-.77,1.582-2.184,1.582ZM158.2,16.2a3.82,3.82,0,0,0,3.766-4.1,3.782,3.782,0,1,0-7.532,0A3.82,3.82,0,0,0,158.2,16.2Zm0-1.68c-1.064,0-1.666-.952-1.666-2.422s.6-2.45,1.666-2.45,1.666.966,1.666,2.45S159.264,14.516,158.2,14.516Zm-2.786-8.2.784.742,1.974-1.54h.056l1.96,1.54.8-.742L159.236,4.2H157.15ZM158.2,19.5a1.121,1.121,0,1,0-1.176-1.12A1.1,1.1,0,0,0,158.2,19.5Zm12.936-3.3a5.067,5.067,0,0,0,1.652-.294l-.336-1.5a2.291,2.291,0,0,1-.77.168c-.7,0-1.064-.42-1.064-1.316V9.784h1.932V8.16h-1.932V6.06H168.9l-.238,2.1-1.2.1V9.784h1.106v3.472C168.56,15.02,169.274,16.2,171.136,16.2Zm10.052-10.4a1.926,1.926,0,0,1,.252.9c0,1.176-.672,1.414-1.3,1.47h-.63v5.292a1.889,1.889,0,0,1-1.6.98c-.756,0-1.092-.42-1.092-1.638V8.16h-2.058v4.9c0,1.96.728,3.136,2.408,3.136a3.151,3.151,0,0,0,2.506-1.316h.056l.154,1.12h1.68V8.818a2.276,2.276,0,0,0,1.61-2.268,2.7,2.7,0,0,0-.448-1.428Zm7.154,13.216h2.044V16.63l-.056-1.288a2.914,2.914,0,0,0,1.946.854c1.722,0,3.332-1.554,3.332-4.242,0-2.408-1.148-3.99-3.08-3.99a3.722,3.722,0,0,0-2.31,1.008h-.056l-.14-.812h-1.68Zm3.472-4.508a2.194,2.194,0,0,1-1.428-.588V10.47a2.211,2.211,0,0,1,1.554-.812c1.078,0,1.554.826,1.554,2.324C193.494,13.69,192.766,14.5,191.814,14.5Zm6.244,1.5H200.1V10.61a2.253,2.253,0,0,1,1.638-.882c.77,0,1.106.434,1.106,1.638V16H204.9V11.114c0-1.974-.728-3.15-2.422-3.15a3.568,3.568,0,0,0-2.464,1.148l.084-1.47V4.828h-2.044Zm11.592.2a3.686,3.686,0,0,0,2.366-1.036h.042l.154.84h1.68V11.422c0-2.268-1.022-3.458-3.01-3.458A6.263,6.263,0,0,0,207.606,9l.742,1.358a4.43,4.43,0,0,1,2.156-.742c.966,0,1.3.588,1.33,1.358-3.15.336-4.508,1.218-4.508,2.9A2.227,2.227,0,0,0,209.65,16.2Zm.672-1.61c-.6,0-1.036-.266-1.036-.882,0-.7.644-1.218,2.548-1.47v1.582A2.078,2.078,0,0,1,210.322,14.586Zm.672-7.686,2.772-2.464-1.4-1.372-2.38,2.842Zm5.7,12.11h2.044V16.63l-.056-1.288a2.914,2.914,0,0,0,1.946.854c1.722,0,3.332-1.554,3.332-4.242,0-2.408-1.148-3.99-3.08-3.99a3.722,3.722,0,0,0-2.31,1.008h-.056l-.14-.812h-1.68Zm3.472-4.508a2.194,2.194,0,0,1-1.428-.588V10.47a2.211,2.211,0,0,1,1.554-.812c1.078,0,1.554.826,1.554,2.324C221.844,13.69,221.116,14.5,220.164,14.5Z" transform="translate(180.583 44)"/>
    <g id="symbol" transform="translate(80 36.701)">
      <path id="パス_331" data-name="パス 331" class="cls-2" d="M74.935,42.09V37.355H68.6c.006-.163.013-.366.013-.574a13.632,13.632,0,0,0-27.265,0c0,.2.007.4.016.574H35.034V42.09H23.494V56.377H86.471V42.09Z" transform="translate(-19.982 -19.693)"/>
      <path id="パス_332" data-name="パス 332" class="cls-3" d="M13.089,19.088V15.754h6.536a16.91,16.91,0,0,1,33.385,0h6.534v4.731H71.086V55.338H1.549V20.485h11.54Zm40.126,0H49.877c.01-.211.015-.422.015-.631a13.574,13.574,0,0,0-27.148,0c0,.209,0,.42.014.631H16.426v4.732H4.883V38H67.749V23.821H56.209V19.088Z" transform="translate(-1.317 -1.318)"/>
      <path id="パス_333" data-name="パス 333" class="cls-4" d="M18.129,14.2H11.54v4.731H0V54.252H70V18.935H58.458V14.2H51.871a17.121,17.121,0,0,0-33.742,0Zm.376.463.031-.195a16.679,16.679,0,0,1,32.928,0l.031.195h6.5V19.4H69.537v34.39H.463V19.4H12V14.667Z"/>
      <path id="パス_334" data-name="パス 334" class="cls-5" d="M49.966,157.211q.39,0,1-.006t1.228-.006q.631,0,1.309-.006t1.366-.006q-.034.439-.063.808t-.046.727q-.017.357-.023.72t-.006.789l-.436.025q-.1-.676-.224-1.14a2.067,2.067,0,0,0-.35-.758,1.247,1.247,0,0,0-.62-.42,3.474,3.474,0,0,0-1.033-.125H50.758v9.835a2.288,2.288,0,0,0,.046.5.585.585,0,0,0,.207.332,1.1,1.1,0,0,0,.488.195,6.5,6.5,0,0,0,.89.087l-.023.451q-.241,0-.545-.007c-.2,0-.411-.006-.626-.006s-.427,0-.637-.006-.408-.006-.591-.006c-.153,0-.32,0-.5.006s-.362.006-.545.006-.367,0-.551.006-.348.007-.494.007l-.034-.426a5.708,5.708,0,0,0,.85-.113.922.922,0,0,0,.482-.251.91.91,0,0,0,.212-.47,4.632,4.632,0,0,0,.052-.771v-9.372H48.164a3.537,3.537,0,0,0-1.039.125,1.313,1.313,0,0,0-.637.42,2.02,2.02,0,0,0-.367.758,10.4,10.4,0,0,0-.23,1.14l-.436-.025v-.789q0-.564-.017-1.078t-.075-1.178q.689,0,1.355.006T48,157.2q.62,0,1.091.006T49.966,157.211Z" transform="translate(-38.582 -133.691)"/>
      <path id="パス_335" data-name="パス 335" class="cls-5" d="M123.408,167.02l1.813-5.913-.453-1.815q-.132-.531-.241-.846a1.447,1.447,0,0,0-.255-.481.746.746,0,0,0-.354-.228,3.194,3.194,0,0,0-.548-.1l.019-.444q.4,0,.873.012t.958.012q.4,0,.8-.012t.8-.012l.028.42a2.512,2.512,0,0,0-.822.185.468.468,0,0,0-.236.457,5.2,5.2,0,0,0,.1.679l1.936,8.086h.019l2.058-7.9a4.9,4.9,0,0,0,.161-.876.44.44,0,0,0-.25-.438,2.9,2.9,0,0,0-.9-.167l.019-.444q.425,0,.859.012t.859.012q.349,0,.722-.012t.722-.012l.028.42a2.882,2.882,0,0,0-.609.117.957.957,0,0,0-.42.284,1.945,1.945,0,0,0-.326.58q-.147.377-.326,1.019-.68,2.42-1.313,4.771t-1.294,4.784l-.567.061q-.453-1.839-.911-3.6t-.864-3.426q-.236.728-.519,1.642t-.567,1.858q-.283.945-.548,1.846t-.463,1.618l-.548.061q-.623-2.53-1.246-4.975t-1.275-4.963q-.132-.531-.246-.846a1.388,1.388,0,0,0-.269-.481.8.8,0,0,0-.382-.228,3.764,3.764,0,0,0-.595-.1l.019-.444q.4,0,.874.012t.958.012q.4,0,.8-.012t.8-.012l.028.42a2.16,2.16,0,0,0-.755.185.467.467,0,0,0-.217.445,1.547,1.547,0,0,0,.033.3q.033.167.08.389l1.936,8.086h.019Z" transform="translate(-101.075 -133.697)"/>
      <path id="パス_336" data-name="パス 336" class="cls-5" d="M277.848,157.57a6.643,6.643,0,0,0-.973.119,1.35,1.35,0,0,0-.578.251.85.85,0,0,0-.278.472,3.346,3.346,0,0,0-.073.767v7.984a3.112,3.112,0,0,0,.066.7.761.761,0,0,0,.264.434,1.231,1.231,0,0,0,.556.22,5.83,5.83,0,0,0,.959.063h.762a6.665,6.665,0,0,0,1.391-.119,2.324,2.324,0,0,0,.915-.4,2.587,2.587,0,0,0,.652-.748q.278-.465.616-1.144l.556.113c-.078.244-.152.5-.219.78s-.132.549-.19.817-.108.52-.146.754a5.786,5.786,0,0,0-.074.578h-2.226q-.967,0-1.669-.007t-1.2-.006q-.5,0-.864-.007t-.644-.006h-.513q-.293,0-.644.006t-.7.007q-.351,0-.666.006t-.52.007l-.044-.427a6.649,6.649,0,0,0,.974-.12,1.347,1.347,0,0,0,.578-.251.847.847,0,0,0,.278-.465,3.294,3.294,0,0,0,.074-.773v-8.461a1.632,1.632,0,0,0-.066-.5.633.633,0,0,0-.264-.333,1.486,1.486,0,0,0-.571-.195,8.374,8.374,0,0,0-1-.088l.044-.452q.234,0,.578.006c.229,0,.477.006.74.006s.533,0,.806.006.527.006.761.006q.278,0,.63-.006t.7-.006q.352,0,.659-.006t.512-.006Z" transform="translate(-231.647 -133.654)"/>
      <path id="パス_337" data-name="パス 337" class="cls-5" d="M351.41,165.528a10.58,10.58,0,0,0,.717,1.159,4.106,4.106,0,0,0,.91.924,4.175,4.175,0,0,0,1.239.616,5.7,5.7,0,0,0,1.7.223,4.448,4.448,0,0,0,1.214-.157,3.272,3.272,0,0,0,.978-.447,2.214,2.214,0,0,0,.658-.682,1.649,1.649,0,0,0,.236-.863,1.7,1.7,0,0,0-.3-1.014,2.712,2.712,0,0,0-.809-.73,6.239,6.239,0,0,0-1.147-.537q-.64-.229-1.314-.447-.759-.241-1.526-.531a6.991,6.991,0,0,1-1.374-.688,3.871,3.871,0,0,1-.995-.918,2,2,0,0,1-.388-1.232,2.217,2.217,0,0,1,.43-1.346,3.468,3.468,0,0,1,1.163-.984,6.271,6.271,0,0,1,1.7-.6,9.961,9.961,0,0,1,2.065-.205,15.662,15.662,0,0,1,1.964.115q.9.115,1.93.308-.05.387-.084.718t-.043.652c-.006.213-.011.43-.017.652s-.008.461-.008.719l-.708.048a2.544,2.544,0,0,0-1.088-1.914,4.429,4.429,0,0,0-2.52-.634,4.38,4.38,0,0,0-1.113.133,2.8,2.8,0,0,0-.877.387,1.945,1.945,0,0,0-.581.6,1.488,1.488,0,0,0-.211.785,1.712,1.712,0,0,0,.261.972,2.378,2.378,0,0,0,.717.682,5.152,5.152,0,0,0,1.054.5q.6.211,1.256.417.809.253,1.627.555a7.785,7.785,0,0,1,1.467.713,3.872,3.872,0,0,1,1.053.954,2.081,2.081,0,0,1,.4,1.28,2.375,2.375,0,0,1-.472,1.455,3.978,3.978,0,0,1-1.248,1.074,6.506,6.506,0,0,1-1.787.67,9.343,9.343,0,0,1-2.074.229,14.5,14.5,0,0,1-1.921-.133q-1-.133-2.107-.362-.118-.8-.287-1.5a14.592,14.592,0,0,0-.455-1.5Z" transform="translate(-298.281 -133.587)"/>
      <path id="パス_338" data-name="パス 338" class="cls-2" d="M26.615,271.322l-.737,0-.289,0-.253,0c-.182,0-.432,0-.69,0l-.394,0h-.063l.006.063c.011.116.018.22.022.31s0,.186,0,.285v.264l.232.012.009-.051a2.511,2.511,0,0,1,.065-.3.467.467,0,0,1,.094-.18.333.333,0,0,1,.158-.095,1.066,1.066,0,0,1,.286-.031h.313v2.435a1.073,1.073,0,0,1-.014.194.178.178,0,0,1-.046.1.221.221,0,0,1-.111.051,1.744,1.744,0,0,1-.239.029l-.059,0,.02.224h.053l.145,0c.106,0,.213,0,.318,0s.2,0,.314,0,.249,0,.366,0l.159,0h.054l.013-.233-.058,0a2,2,0,0,1-.251-.023.275.275,0,0,1-.117-.041.1.1,0,0,1-.038-.056.515.515,0,0,1-.012-.12V271.6H26.2a1.044,1.044,0,0,1,.284.031.312.312,0,0,1,.152.094.479.479,0,0,1,.09.18,2.8,2.8,0,0,1,.064.3l.009.051.232-.012v-.054c0-.075,0-.145,0-.209s0-.127.007-.19.008-.127.014-.2l.023-.266h-.063Z" transform="translate(-20.573 -230.765)"/>
      <path id="パス_339" data-name="パス 339" class="cls-2" d="M47.655,271.335a1.529,1.529,0,0,0-.542-.341,1.943,1.943,0,0,0-.688-.119,1.794,1.794,0,0,0-.7.131,1.581,1.581,0,0,0-.539.366,1.668,1.668,0,0,0-.349.557,1.946,1.946,0,0,0-.124.7,1.853,1.853,0,0,0,.126.7,1.516,1.516,0,0,0,.894.875,1.934,1.934,0,0,0,.687.119,1.8,1.8,0,0,0,.7-.131,1.58,1.58,0,0,0,.539-.366,1.664,1.664,0,0,0,.349-.557,1.945,1.945,0,0,0,.124-.7,1.855,1.855,0,0,0-.126-.7A1.566,1.566,0,0,0,47.655,271.335Zm-1.619,2.618a.945.945,0,0,1-.366-.249,1.354,1.354,0,0,1-.271-.468,2.173,2.173,0,0,1-.107-.73,1.841,1.841,0,0,1,.093-.625,1.146,1.146,0,0,1,.246-.411.908.908,0,0,1,.351-.227,1.257,1.257,0,0,1,.422-.072,1.2,1.2,0,0,1,.409.075.948.948,0,0,1,.366.249,1.351,1.351,0,0,1,.271.468,2.17,2.17,0,0,1,.107.73,1.837,1.837,0,0,1-.093.625,1.149,1.149,0,0,1-.245.412.911.911,0,0,1-.351.227A1.215,1.215,0,0,1,46.037,273.953Z" transform="translate(-38.034 -230.386)"/>
      <path id="パス_340" data-name="パス 340" class="cls-2" d="M75.614,271.319q-.124,0-.257,0c-.193.005-.373,0-.539,0q-.137,0-.261,0H74.5l-.013.231.056,0a.981.981,0,0,1,.249.038c.038.014.038.03.038.038a.228.228,0,0,1-.024.089q-.028.063-.079.157l-.536.968-.556-1.024c-.026-.05-.046-.092-.062-.127a.188.188,0,0,1-.019-.07c0-.008,0-.022.034-.037a.784.784,0,0,1,.229-.039l.058,0-.02-.224h-.053q-.141,0-.286,0c-.213.005-.417,0-.621,0q-.169,0-.309,0h-.067l-.121,0c-.1,0-.212,0-.328,0s-.2,0-.3,0l-.319,0-.12,0h-.053l-.02.229.059,0a.947.947,0,0,1,.2.025c.047.013.06.027.062.031s.006.009,0,.026a.525.525,0,0,1-.061.095q-.083.1-.188.221t-.22.24q-.115.121-.231.237c-.077.077-.15.148-.218.211a.81.81,0,0,1-.163.118.51.51,0,0,1-.091.036v-.878a.939.939,0,0,1,.016-.19.187.187,0,0,1,.046-.095.226.226,0,0,1,.1-.052,1.166,1.166,0,0,1,.2-.03l.053,0v-.224h-.057l-.121,0-.309,0c-.117,0-.2,0-.313,0s-.247,0-.353,0l-.135,0H69.48l-.013.232.058,0a1.653,1.653,0,0,1,.222.023.257.257,0,0,1,.107.041.1.1,0,0,1,.038.057.5.5,0,0,1,.012.119v2.243a1.081,1.081,0,0,1-.014.194.173.173,0,0,1-.044.093.224.224,0,0,1-.1.052,1.269,1.269,0,0,1-.213.03l-.058,0,.02.224h.053l.118,0c.093,0,.2,0,.308,0s.2,0,.314,0,.246,0,.348,0l.131,0h.057V274.4l-.055,0a1.518,1.518,0,0,1-.218-.022.237.237,0,0,1-.1-.04.094.094,0,0,1-.035-.055.585.585,0,0,1-.01-.121v-1.081a.166.166,0,0,1,.1.023.455.455,0,0,1,.106.1q.1.124.222.262t.236.28l.23.277q.111.135.2.251t.159.2a1.235,1.235,0,0,1,.089.133l.017.033.037,0,.1,0c.144,0,.265,0,.4,0,.1,0,.195,0,.28,0h.054l.013-.23-.055,0a1.393,1.393,0,0,1-.179-.026.4.4,0,0,1-.12-.048.765.765,0,0,1-.122-.095q-.067-.062-.166-.165t-.223-.246q-.135-.155-.29-.336t-.313-.374l-.266-.327.224-.228.255-.26q.121-.125.226-.227c.069-.068.128-.124.177-.169a1.926,1.926,0,0,1,.184-.154,1.087,1.087,0,0,1,.172-.1.9.9,0,0,1,.179-.063,1.4,1.4,0,0,1,.194-.03h0l.056,0a1.206,1.206,0,0,1,.2.03.34.34,0,0,1,.124.06.507.507,0,0,1,.1.116q.054.081.13.209.2.326.324.552l.218.386q.065.118.1.2a.906.906,0,0,1,.052.139.6.6,0,0,1,.02.125q0,.067,0,.162v.507a1.091,1.091,0,0,1-.014.194.178.178,0,0,1-.046.1.221.221,0,0,1-.111.051,1.73,1.73,0,0,1-.238.029l-.059,0,.02.224h.053l.145,0c.107,0,.213,0,.319,0s.2,0,.314,0,.249,0,.366,0l.159,0h.054l.013-.233-.058,0a2.006,2.006,0,0,1-.251-.023.274.274,0,0,1-.117-.041.1.1,0,0,1-.038-.056.512.512,0,0,1-.012-.12v-.66c0-.055,0-.1,0-.14a.486.486,0,0,1,.016-.109.979.979,0,0,1,.05-.138q.036-.082.106-.217c.045-.091.11-.211.192-.356s.18-.312.293-.5q.092-.155.157-.251a.687.687,0,0,1,.121-.142.332.332,0,0,1,.13-.068,1.1,1.1,0,0,1,.2-.031l.058,0-.02-.224h-.053Z" transform="translate(-59.084 -230.764)"/>
      <path id="パス_341" data-name="パス 341" class="cls-2" d="M114.19,271.335a1.532,1.532,0,0,0-.542-.341,1.942,1.942,0,0,0-.688-.119,1.793,1.793,0,0,0-.7.131,1.581,1.581,0,0,0-.539.366,1.669,1.669,0,0,0-.349.557,1.947,1.947,0,0,0-.124.7,1.855,1.855,0,0,0,.126.7,1.516,1.516,0,0,0,.894.875,1.933,1.933,0,0,0,.687.119,1.8,1.8,0,0,0,.7-.131,1.581,1.581,0,0,0,.539-.366,1.667,1.667,0,0,0,.349-.557,1.947,1.947,0,0,0,.124-.7,1.856,1.856,0,0,0-.126-.7A1.567,1.567,0,0,0,114.19,271.335Zm-1.619,2.618a.944.944,0,0,1-.366-.249,1.354,1.354,0,0,1-.271-.468,2.171,2.171,0,0,1-.107-.73,1.842,1.842,0,0,1,.093-.625,1.147,1.147,0,0,1,.246-.411.906.906,0,0,1,.351-.227,1.257,1.257,0,0,1,.422-.072,1.2,1.2,0,0,1,.409.075.947.947,0,0,1,.366.249,1.354,1.354,0,0,1,.271.468,2.17,2.17,0,0,1,.107.73,1.841,1.841,0,0,1-.093.625,1.149,1.149,0,0,1-.246.412.907.907,0,0,1-.351.227A1.216,1.216,0,0,1,112.571,273.953Z" transform="translate(-94.624 -230.386)"/>
      <path id="パス_342" data-name="パス 342" class="cls-2" d="M161.678,271.319q-.124,0-.256,0c-.194.005-.37,0-.556,0q-.154,0-.3,0h-.054l-.013.232.057,0a1.223,1.223,0,0,1,.3.042c.042.015.051.037.051.065a.943.943,0,0,1-.053.218l-.673,1.977-.633-2.022a1,1,0,0,1-.035-.169.066.066,0,0,1,.047-.07,1.078,1.078,0,0,1,.273-.046l.058,0-.02-.224h-.053q-.141,0-.283,0c-.208.005-.413,0-.617,0q-.169,0-.309,0h-.054l-.013.23.056,0a1.457,1.457,0,0,1,.186.026.223.223,0,0,1,.1.049.313.313,0,0,1,.075.11,2.269,2.269,0,0,1,.083.222l.154.47-.576,1.437-.638-2.037c-.011-.04-.02-.074-.028-.1a.272.272,0,0,1-.01-.067.064.064,0,0,1,.042-.067.863.863,0,0,1,.249-.046l.057,0-.02-.223h-.053q-.141,0-.283,0c-.208.005-.413,0-.617,0q-.169,0-.309,0h-.054l-.013.23.056,0a1.715,1.715,0,0,1,.2.026.252.252,0,0,1,.11.05.308.308,0,0,1,.079.11,1.98,1.98,0,0,1,.084.222q.23.68.45,1.34t.44,1.342l.014.044.275-.024.013-.035q.07-.193.163-.436t.193-.5q.1-.255.2-.5.065-.16.123-.3c.082.255.168.516.258.778q.161.475.321.971l.014.043.283-.023.012-.035q.233-.657.457-1.292t.463-1.288a2.573,2.573,0,0,1,.112-.269.453.453,0,0,1,.1-.139.3.3,0,0,1,.124-.064,1.234,1.234,0,0,1,.205-.03l.058,0-.02-.224h-.052Z" transform="translate(-133.48 -230.764)"/>
      <path id="パス_343" data-name="パス 343" class="cls-2" d="M192.16,271.335a1.529,1.529,0,0,0-.542-.341,1.941,1.941,0,0,0-.688-.119,1.8,1.8,0,0,0-.7.131,1.581,1.581,0,0,0-.539.366,1.667,1.667,0,0,0-.349.557,1.945,1.945,0,0,0-.124.7,1.852,1.852,0,0,0,.126.7,1.516,1.516,0,0,0,.894.875,1.933,1.933,0,0,0,.687.119,1.8,1.8,0,0,0,.7-.131,1.583,1.583,0,0,0,.539-.366,1.667,1.667,0,0,0,.349-.557,1.949,1.949,0,0,0,.124-.7,1.856,1.856,0,0,0-.126-.7A1.559,1.559,0,0,0,192.16,271.335Zm-.1,1.357a1.84,1.84,0,0,1-.093.625,1.147,1.147,0,0,1-.246.412.91.91,0,0,1-.351.227,1.213,1.213,0,0,1-.831,0,.945.945,0,0,1-.366-.249,1.353,1.353,0,0,1-.271-.468,2.171,2.171,0,0,1-.107-.73,1.84,1.84,0,0,1,.093-.625,1.142,1.142,0,0,1,.246-.411.9.9,0,0,1,.351-.227,1.255,1.255,0,0,1,.422-.072,1.2,1.2,0,0,1,.409.075.948.948,0,0,1,.366.249,1.353,1.353,0,0,1,.271.468A2.175,2.175,0,0,1,192.063,272.692Z" transform="translate(-160.939 -230.386)"/>
      <path id="パス_344" data-name="パス 344" class="cls-2" d="M216.816,274.205a.4.4,0,0,1-.112-.036.31.31,0,0,1-.085-.067c-.03-.033-.065-.078-.105-.133s-.069-.1-.116-.181-.1-.167-.159-.27-.123-.217-.191-.341q-.089-.16-.18-.333a1.143,1.143,0,0,0,.215-.121,1.039,1.039,0,0,0,.217-.208.945.945,0,0,0,.144-.265.933.933,0,0,0,.051-.309.725.725,0,0,0-.11-.411.785.785,0,0,0-.282-.253,1.229,1.229,0,0,0-.38-.126,2.319,2.319,0,0,0-.692-.015,2.689,2.689,0,0,1-.426.016c-.115,0-.229,0-.325,0l-.126,0H214.1l-.013.232.058,0a1.546,1.546,0,0,1,.215.022.228.228,0,0,1,.1.039.108.108,0,0,1,.036.058.511.511,0,0,1,.012.119v2.243a1.1,1.1,0,0,1-.014.194.186.186,0,0,1-.043.094.21.21,0,0,1-.1.051,1.1,1.1,0,0,1-.2.03l-.056,0,.013.224h.054l.115,0c.091,0,.193,0,.293,0l.139,0c.106,0,.215,0,.325,0s.221,0,.328,0h.057v-.234h-.056a1.278,1.278,0,0,1-.231-.02.211.211,0,0,1-.1-.041.087.087,0,0,1-.028-.056,1.085,1.085,0,0,1-.006-.128v-1l.032,0,.067,0h.1a.558.558,0,0,1,.111.009.166.166,0,0,1,.056.021.108.108,0,0,1,.03.029c.012.017.024.036.036.056q.126.216.243.426t.213.388q.1.178.166.312c.046.089.08.157.1.2l.017.035.039,0,.1,0,.1,0c.1,0,.2,0,.31,0s.2,0,.263,0h.054l.013-.23-.055,0Q216.888,274.218,216.816,274.205Zm-.891-2.2a.67.67,0,0,1-.194.539.874.874,0,0,1-.572.167H215v-1.074a.9.9,0,0,1,.006-.113.134.134,0,0,1,.023-.064.108.108,0,0,1,.055-.034.532.532,0,0,1,.145-.016.822.822,0,0,1,.51.145A.528.528,0,0,1,215.926,272.006Z" transform="translate(-182.086 -230.593)"/>
      <path id="パス_345" data-name="パス 345" class="cls-2" d="M236.6,273.747c-.05.118-.1.219-.138.3a.626.626,0,0,1-.135.181.446.446,0,0,1-.185.094,1.261,1.261,0,0,1-.3.03h-.173a1.075,1.075,0,0,1-.207-.016.2.2,0,0,1-.1-.044.152.152,0,0,1-.043-.084.933.933,0,0,1-.014-.176v-2.116a.976.976,0,0,1,.016-.191.183.183,0,0,1,.047-.1.241.241,0,0,1,.106-.052,1.252,1.252,0,0,1,.211-.03l.06,0-.026-.224h-.051l-.118,0c-.093,0-.2,0-.31,0s-.2,0-.314,0-.248,0-.351,0l-.133,0h-.053l-.019.232.059,0a1.6,1.6,0,0,1,.22.023.255.255,0,0,1,.106.041.107.107,0,0,1,.04.059.436.436,0,0,1,.013.117v2.243a.968.968,0,0,1-.016.193.177.177,0,0,1-.047.094.239.239,0,0,1-.106.052,1.293,1.293,0,0,1-.212.03l-.058,0,.02.224h.053l.12,0c.1,0,.2,0,.312,0l.145,0h.116l.146,0c.112,0,.257,0,.471,0l.38,0h.561l0-.054c0-.039.007-.088.016-.148s.02-.127.033-.2.028-.142.043-.215.032-.14.049-.2l.016-.057-.232-.055Z" transform="translate(-199.334 -230.764)"/>
      <path id="パス_346" data-name="パス 346" class="cls-2" d="M254.412,271.461a1.782,1.782,0,0,0-.611-.262,3.278,3.278,0,0,0-1.072-.059,5.693,5.693,0,0,1-.692.015l-.293,0h-.054l-.013.232.058,0a2.047,2.047,0,0,1,.233.021.242.242,0,0,1,.109.039.1.1,0,0,1,.038.06.594.594,0,0,1,.012.133v2.23a1.045,1.045,0,0,1-.014.194.177.177,0,0,1-.046.1.217.217,0,0,1-.106.051,1.475,1.475,0,0,1-.218.029l-.058,0,.02.224h.053l.124,0c.093,0,.2,0,.3,0l.14,0a3.149,3.149,0,0,1,.357.022,3.366,3.366,0,0,0,.369.022,2.288,2.288,0,0,0,.747-.122,1.857,1.857,0,0,0,.624-.356,1.717,1.717,0,0,0,.428-.576,1.846,1.846,0,0,0,.159-.781,1.507,1.507,0,0,0-.162-.726A1.372,1.372,0,0,0,254.412,271.461Zm.018,1.311a1.693,1.693,0,0,1-.1.6,1.283,1.283,0,0,1-.282.45,1.211,1.211,0,0,1-.434.281,1.577,1.577,0,0,1-.568.1.842.842,0,0,1-.258-.03.224.224,0,0,1-.112-.073.218.218,0,0,1-.039-.113c0-.053-.006-.111-.006-.173v-2.3a.047.047,0,0,1,.014-.013.394.394,0,0,1,.091-.043.813.813,0,0,1,.146-.034,1.3,1.3,0,0,1,.188-.013,1.66,1.66,0,0,1,.545.087,1.154,1.154,0,0,1,.714.679A1.576,1.576,0,0,1,254.431,272.772Z" transform="translate(-214.059 -230.596)"/>
      <path id="パス_347" data-name="パス 347" class="cls-2" d="M296.467,271.547l-.019-.224h-.179l-.15,0-.157,0h-.14l-.171,0c-.122,0-.239,0-.341,0l-.131,0h-.054l-.013.232.058,0a1.526,1.526,0,0,1,.212.022.248.248,0,0,1,.1.041.1.1,0,0,1,.038.057.5.5,0,0,1,.011.119v2.77q0,.1,0,.206c0,.067,0,.132-.011.193a.947.947,0,0,1-.032.167.362.362,0,0,1-.058.121.151.151,0,0,1-.073.057.36.36,0,0,1-.294-.03.8.8,0,0,1-.155-.1l-.016-.015h-.044a.393.393,0,0,0-.166.082.224.224,0,0,0-.086.178.257.257,0,0,0,.042.146.3.3,0,0,0,.1.092.42.42,0,0,0,.125.046.634.634,0,0,0,.126.013,1.05,1.05,0,0,0,.385-.072.825.825,0,0,0,.317-.223,1.249,1.249,0,0,0,.252-.419,1.666,1.666,0,0,0,.094-.583v-.1c0-.056,0-.123,0-.2s0-.165,0-.261,0-.2,0-.3,0-.2,0-.291v-1.346a.97.97,0,0,1,.015-.192.176.176,0,0,1,.048-.095.246.246,0,0,1,.107-.053,1.187,1.187,0,0,1,.206-.03Z" transform="translate(-250.563 -230.765)"/>
      <path id="パス_348" data-name="パス 348" class="cls-2" d="M309.656,273.882a.242.242,0,0,1-.109-.049.325.325,0,0,1-.078-.109,2.087,2.087,0,0,1-.088-.224l-.749-2.172c-.024-.073-.051-.154-.078-.242s-.053-.184-.077-.289l-.012-.051-.3.038-.012.032a.992.992,0,0,1-.074.152,1.237,1.237,0,0,0-.089.183l-.923,2.255c-.048.111-.09.2-.126.267a.579.579,0,0,1-.105.145.268.268,0,0,1-.12.066,1.213,1.213,0,0,1-.2.03l-.056,0,.013.224h.054c.083,0,.168,0,.256,0,.194,0,.371,0,.556,0,.1,0,.2,0,.278,0h.053l.019-.232-.059,0a.926.926,0,0,1-.273-.039.063.063,0,0,1-.046-.067.95.95,0,0,1,.063-.219l.243-.62h1.029l.224.671q.02.058.032.106a.263.263,0,0,1,.011.069.06.06,0,0,1-.044.065.922.922,0,0,1-.249.041l-.058,0,.02.224h.053c.094,0,.189,0,.285,0,.212,0,.415,0,.619,0,.112,0,.216,0,.309,0h.053l.019-.23-.058,0A1.714,1.714,0,0,1,309.656,273.882Zm-1.113-1.227h-.806l.439-1.107Z" transform="translate(-260.651 -230.276)"/>
      <path id="パス_349" data-name="パス 349" class="cls-2" d="M332.464,272.111a.932.932,0,0,0-.1-.456.847.847,0,0,0-.277-.3,1.167,1.167,0,0,0-.4-.161,2.428,2.428,0,0,0-.773-.031,3.051,3.051,0,0,1-.433.014c-.115,0-.23,0-.325,0l-.127,0h-.054l-.013.232.058,0a1.543,1.543,0,0,1,.215.022.214.214,0,0,1,.1.04.108.108,0,0,1,.036.058.505.505,0,0,1,.012.119v2.243a1.065,1.065,0,0,1-.014.194.182.182,0,0,1-.043.094.209.209,0,0,1-.1.051,1.092,1.092,0,0,1-.2.03l-.056,0,.013.224h.054l.115,0c.091,0,.193,0,.293,0l.139,0,.356,0q.2,0,.377,0h.054l.013-.234h-.06a1.791,1.791,0,0,1-.276-.021.316.316,0,0,1-.128-.045.086.086,0,0,1-.038-.056.732.732,0,0,1-.009-.125v-.858a1.146,1.146,0,0,0,.113.021,1.6,1.6,0,0,0,.683-.048,1.25,1.25,0,0,0,.391-.2,1.044,1.044,0,0,0,.285-.335A.981.981,0,0,0,332.464,272.111Zm-.568.017a.874.874,0,0,1-.068.369.677.677,0,0,1-.17.232.607.607,0,0,1-.227.124,1.063,1.063,0,0,1-.436.027.963.963,0,0,1-.114-.022v-1.233a.517.517,0,0,1,.009-.1.071.071,0,0,1,.024-.042.179.179,0,0,1,.078-.03.914.914,0,0,1,.172-.012.8.8,0,0,1,.544.169A.664.664,0,0,1,331.9,272.128Z" transform="translate(-280.642 -230.615)"/>
      <path id="パス_350" data-name="パス 350" class="cls-2" d="M352.773,270.831l-.11,0-.268.007c-.164,0-.3,0-.437,0l-.255,0h-.054l-.013.231.056,0c.092.007.163.015.218.024a.211.211,0,0,1,.108.046.184.184,0,0,1,.05.1,1.228,1.228,0,0,1,.017.233v1.791l-2.059-2.429H350l-.193,0c-.138,0-.271,0-.375,0l-.119,0h-.054l-.013.231.056,0c.06,0,.111.01.152.016a.347.347,0,0,1,.092.026.236.236,0,0,1,.062.04.5.5,0,0,1,.061.067.424.424,0,0,1,.047.068.281.281,0,0,1,.026.076.8.8,0,0,1,.014.132c0,.057,0,.132,0,.224v1.67a1.863,1.863,0,0,1-.019.3.28.28,0,0,1-.058.141.194.194,0,0,1-.107.058,2.016,2.016,0,0,1-.214.03l-.043,0v-.01l-.058,0a1.718,1.718,0,0,1-.2-.026.244.244,0,0,1-.109-.049.329.329,0,0,1-.079-.11,2.138,2.138,0,0,1-.087-.224l-.75-2.172q-.037-.109-.078-.242c-.027-.088-.053-.185-.077-.289l-.012-.051-.3.038-.012.032a.984.984,0,0,1-.074.153,1.281,1.281,0,0,0-.089.183l-.923,2.255c-.048.111-.09.2-.126.267a.579.579,0,0,1-.106.146.268.268,0,0,1-.119.066,1.21,1.21,0,0,1-.2.03l-.056,0,.013.224h.054c.083,0,.168,0,.256,0,.194,0,.371,0,.556,0,.1,0,.2,0,.278,0h.053l.02-.232-.059,0a.926.926,0,0,1-.273-.039.063.063,0,0,1-.046-.067.946.946,0,0,1,.063-.219l.242-.62h1.029l.223.671c.013.039.024.074.033.105a.272.272,0,0,1,.011.07.06.06,0,0,1-.044.065.892.892,0,0,1-.249.041l-.058,0,.02.224h.053q.141,0,.284,0c.211,0,.416,0,.619,0,.113,0,.216,0,.31,0h.053l.012-.141.013.145h.053q.117,0,.256,0c.208,0,.4,0,.567,0,.1,0,.182,0,.253,0h.054l.013-.231-.056,0c-.089-.006-.161-.015-.216-.024a.216.216,0,0,1-.107-.046.187.187,0,0,1-.051-.1,1.221,1.221,0,0,1-.017-.233V271.69l1.695,2.011c.064.077.124.153.181.229s.115.155.172.237l.022.03.256-.049v-2.554a1.85,1.85,0,0,1,.019-.3.3.3,0,0,1,.055-.142.184.184,0,0,1,.1-.058,1.627,1.627,0,0,1,.206-.032l.053-.005-.006-.223h-.056Zm-4.829,1.823h-.805l.439-1.108Z" transform="translate(-294.163 -230.276)"/>
      <path id="パス_351" data-name="パス 351" class="cls-2" d="M395.787,273.745c-.051.119-.1.22-.14.3a.659.659,0,0,1-.136.182.432.432,0,0,1-.182.094,1.224,1.224,0,0,1-.3.03h-.243a1.074,1.074,0,0,1-.207-.016.2.2,0,0,1-.1-.044.148.148,0,0,1-.042-.084.894.894,0,0,1-.014-.175v-.944l.485.015c.195.007.4.019.6.037l.061.005.009-.362-.058-.059-1.092.032v-1.094a.442.442,0,0,1,0-.056.281.281,0,0,1,.095-.009H395a1.064,1.064,0,0,1,.262.026.311.311,0,0,1,.147.081.4.4,0,0,1,.09.159,2.1,2.1,0,0,1,.065.279l.009.049.238-.006v-.055q0-.209.013-.394c.007-.124.016-.243.029-.353l.008-.064H395.8q-.643,0-1.06,0l-.546,0-.151,0c-.107,0-.222,0-.333,0l-.146,0h-.053l-.02.232.06,0a1.582,1.582,0,0,1,.22.023.253.253,0,0,1,.106.04.11.11,0,0,1,.04.058.446.446,0,0,1,.013.118v2.243a.965.965,0,0,1-.015.193.165.165,0,0,1-.049.093.267.267,0,0,1-.118.053,1.557,1.557,0,0,1-.238.03l-.059,0,.02.224h.053l.139,0c.109,0,.227,0,.337,0l.14,0,.614,0q.412,0,1.076,0h.054l0-.054c0-.039.008-.088.016-.148s.02-.128.033-.2.028-.142.043-.215.032-.14.049-.2l.016-.058-.235-.054Z" transform="translate(-334.637 -230.762)"/>
      <path id="パス_352" data-name="パス 352" class="cls-2" d="M413.437,272.66a1.484,1.484,0,0,0-.3-.2c-.11-.057-.22-.109-.325-.155q-.128-.056-.246-.114a.877.877,0,0,1-.2-.13.531.531,0,0,1-.128-.171.564.564,0,0,1-.046-.243.492.492,0,0,1,.037-.194.449.449,0,0,1,.1-.148.44.44,0,0,1,.153-.094.583.583,0,0,1,.2-.033.643.643,0,0,1,.458.159.74.74,0,0,1,.2.491l0,.058.25-.024v-.052c0-.071,0-.136,0-.2l0-.18c0-.058,0-.117.008-.177s.01-.127.016-.2l0-.049-.047-.012c-.134-.035-.264-.064-.386-.086a1.9,1.9,0,0,0-.823.027,1.1,1.1,0,0,0-.355.176.875.875,0,0,0-.246.291.851.851,0,0,0-.091.4.77.77,0,0,0,.083.367,1.012,1.012,0,0,0,.209.269,1.36,1.36,0,0,0,.283.2c.1.054.206.1.3.148s.174.081.258.122a1.068,1.068,0,0,1,.215.141.6.6,0,0,1,.146.184.553.553,0,0,1,.054.254.542.542,0,0,1-.042.215.517.517,0,0,1-.117.17.534.534,0,0,1-.174.111.594.594,0,0,1-.219.039.779.779,0,0,1-.313-.057.71.71,0,0,1-.227-.158.986.986,0,0,1-.17-.241,3.3,3.3,0,0,1-.139-.314l-.018-.047-.246.058.015.057c.037.145.067.282.089.409s.041.268.056.41l0,.039.037.011c.148.042.289.076.422.1a2.143,2.143,0,0,0,.39.038,1.409,1.409,0,0,0,.427-.066,1.149,1.149,0,0,0,.372-.195,1,1,0,0,0,.262-.314.9.9,0,0,0,.1-.429.8.8,0,0,0-.087-.38A1,1,0,0,0,413.437,272.66Z" transform="translate(-350.052 -230.387)"/>
      <path id="パス_353" data-name="パス 353" class="cls-2" d="M429.766,273.7l-.019.044c-.051.119-.1.219-.139.3a.65.65,0,0,1-.136.183.431.431,0,0,1-.181.094,1.231,1.231,0,0,1-.3.03h-.243a1.078,1.078,0,0,1-.207-.016.205.205,0,0,1-.1-.044.154.154,0,0,1-.043-.084.92.92,0,0,1-.014-.175v-.944l.486.015c.195.007.4.019.6.037l.061.005.009-.363-.059-.058-1.092.032v-1.094a.409.409,0,0,1,0-.056.286.286,0,0,1,.095-.009h.477a1.065,1.065,0,0,1,.262.026.314.314,0,0,1,.147.081.4.4,0,0,1,.09.159,2.068,2.068,0,0,1,.065.279l.009.049.238-.006v-.055c0-.139.007-.271.013-.394s.017-.239.03-.353l.008-.064h-.065q-.644,0-1.06,0l-.546,0-.151,0c-.107,0-.222,0-.333,0l-.146,0h-.053l-.019.232.059,0a1.592,1.592,0,0,1,.22.023.251.251,0,0,1,.106.041.107.107,0,0,1,.04.059.441.441,0,0,1,.013.117v2.243a.952.952,0,0,1-.016.193.166.166,0,0,1-.049.093.268.268,0,0,1-.118.054,1.562,1.562,0,0,1-.238.03l-.059,0,.019.224h.053l.14,0c.109,0,.228,0,.337,0l.141,0,.614,0q.412,0,1.075,0h.054l0-.054c0-.039.008-.088.016-.148s.02-.127.033-.2.027-.142.043-.215.032-.14.049-.2l.016-.058Z" transform="translate(-363.522 -230.763)"/>
      <path id="パス_354" data-name="パス 354" class="cls-2" d="M76.093,316.116l-.11,0-.268.007c-.163,0-.3,0-.437,0l-.255,0h-.054l-.013.231.056,0c.09.007.163.015.218.025a.211.211,0,0,1,.108.046.184.184,0,0,1,.05.1,1.223,1.223,0,0,1,.017.233v1.791l-2.059-2.429H73.32l-.193,0c-.138,0-.271,0-.374,0l-.12,0h-.054l-.013.231.056,0c.06,0,.111.01.152.016a.347.347,0,0,1,.091.025.248.248,0,0,1,.063.041.487.487,0,0,1,.061.067.439.439,0,0,1,.047.067.284.284,0,0,1,.026.076.821.821,0,0,1,.014.132q0,.086,0,.225v1.67a1.852,1.852,0,0,1-.019.3.284.284,0,0,1-.058.141.194.194,0,0,1-.108.057,2.061,2.061,0,0,1-.214.031l-.043,0v-.01l-.058,0a1.724,1.724,0,0,1-.2-.026.245.245,0,0,1-.109-.049.327.327,0,0,1-.079-.109,2.187,2.187,0,0,1-.088-.224l-.75-2.172q-.037-.109-.078-.242c-.027-.086-.053-.184-.077-.289l-.012-.051-.3.037-.012.032a1.009,1.009,0,0,1-.074.153,1.3,1.3,0,0,0-.089.183l-.923,2.255c-.048.112-.091.2-.126.267a.58.58,0,0,1-.106.146.262.262,0,0,1-.12.066,1.17,1.17,0,0,1-.2.03l-.021,0c.008-.054.017-.11.028-.17s.028-.142.043-.215.032-.14.049-.2l.016-.058-.232-.055-.019.045c-.05.118-.1.219-.138.3a.616.616,0,0,1-.135.181.442.442,0,0,1-.185.094,1.262,1.262,0,0,1-.3.03h-.173a1.1,1.1,0,0,1-.207-.016.205.205,0,0,1-.1-.044.152.152,0,0,1-.043-.084.9.9,0,0,1-.014-.175v-2.116a.972.972,0,0,1,.016-.192.179.179,0,0,1,.047-.1.234.234,0,0,1,.106-.052,1.247,1.247,0,0,1,.212-.03l.06,0-.026-.224h-.051l-.118,0c-.093,0-.2,0-.31,0s-.2,0-.314,0l-.351,0-.133,0h-.052l-.019.232.059,0a1.624,1.624,0,0,1,.22.022.253.253,0,0,1,.106.041.108.108,0,0,1,.04.058.451.451,0,0,1,.013.118v2.243a.96.96,0,0,1-.016.193.177.177,0,0,1-.047.094.237.237,0,0,1-.106.052,1.241,1.241,0,0,1-.212.03l-.058,0,.02.224h.053l.119,0c.1,0,.206,0,.312,0l.146,0h.117l.145,0c.111,0,.257,0,.47,0l.381,0h.561v0h.054q.124,0,.256,0c.193-.005.37,0,.555,0q.154,0,.278,0h.053l.019-.232-.059,0a.912.912,0,0,1-.273-.039.063.063,0,0,1-.046-.067.953.953,0,0,1,.063-.219l.242-.62h1.029l.224.67q.019.059.032.105a.275.275,0,0,1,.011.07.061.061,0,0,1-.044.065.949.949,0,0,1-.249.041l-.058,0,.02.224h.053q.141,0,.285,0c.211-.005.415,0,.619,0q.169,0,.309,0h.053l.012-.141.013.144H72.7c.078,0,.164,0,.256,0,.208-.005.395,0,.567,0l.253,0h.054l.013-.231-.056,0c-.088-.006-.161-.015-.216-.024a.212.212,0,0,1-.106-.046.185.185,0,0,1-.051-.1,1.227,1.227,0,0,1-.017-.233v-1.815l1.695,2.011c.064.077.125.153.182.23s.115.155.172.237l.021.03.257-.049V316.88a1.852,1.852,0,0,1,.019-.3.3.3,0,0,1,.056-.143.185.185,0,0,1,.1-.058,1.633,1.633,0,0,1,.206-.032l.053-.006-.006-.223Zm-4.829,1.823h-.806l.439-1.108Z" transform="translate(-56.874 -268.792)"/>
      <path id="パス_355" data-name="パス 355" class="cls-2" d="M133.645,318.007l-.115,0c-.083,0-.173,0-.277,0s-.187,0-.3,0l-.375,0-.176,0h-.054l-.013.233.059,0a2.731,2.731,0,0,1,.289.023.428.428,0,0,1,.151.045.116.116,0,0,1,.055.059.329.329,0,0,1,.016.113v.66c0,.008,0,.031-.054.059a.829.829,0,0,1-.185.065,1.621,1.621,0,0,1-.214.035q-.1.01-.15.01a1.318,1.318,0,0,1-.57-.116,1.131,1.131,0,0,1-.4-.314,1.365,1.365,0,0,1-.24-.47,2.063,2.063,0,0,1-.081-.585,1.928,1.928,0,0,1,.079-.568,1.158,1.158,0,0,1,.236-.432,1.072,1.072,0,0,1,.4-.278,1.5,1.5,0,0,1,.575-.1,1.173,1.173,0,0,1,.327.044.738.738,0,0,1,.26.133.686.686,0,0,1,.18.225.821.821,0,0,1,.082.321l0,.059.251-.024v-.052q0-.213,0-.4c0-.122.008-.256.021-.4l0-.048-.047-.013c-.068-.018-.143-.035-.226-.051s-.165-.03-.249-.042-.168-.022-.252-.028-.161-.01-.231-.01a2.725,2.725,0,0,0-.776.107,1.835,1.835,0,0,0-.636.329,1.576,1.576,0,0,0-.431.552,1.779,1.779,0,0,0-.157.77,1.706,1.706,0,0,0,.138.694,1.549,1.549,0,0,0,.386.535,1.75,1.75,0,0,0,.586.341,2.2,2.2,0,0,0,.737.12,2.832,2.832,0,0,0,.556-.058c.185-.037.372-.081.555-.131l.051-.014-.009-.052a1.573,1.573,0,0,1-.019-.233c0-.1,0-.2,0-.307V318.6a1.368,1.368,0,0,1,.011-.193.218.218,0,0,1,.036-.1.133.133,0,0,1,.067-.047.7.7,0,0,1,.144-.027l.056-.006-.02-.222h-.052Z" transform="translate(-110.929 -268.903)"/>
      <path id="パス_356" data-name="パス 356" class="cls-2" d="M156.834,316.828l-.007-.223h-.056c-.071,0-.161,0-.268.005-.237.007-.45.005-.649,0l-.283,0h-.054l-.013.231.057,0a2.07,2.07,0,0,1,.259.029.29.29,0,0,1,.135.057.2.2,0,0,1,.062.11,1,1,0,0,1,.02.223v1.4a1.214,1.214,0,0,1-.071.441.811.811,0,0,1-.188.293.709.709,0,0,1-.269.163,1.078,1.078,0,0,1-.651,0,.817.817,0,0,1-.279-.149.732.732,0,0,1-.2-.26.915.915,0,0,1-.075-.387v-1.543a.906.906,0,0,1,.017-.192.205.205,0,0,1,.053-.1.247.247,0,0,1,.114-.058,1.292,1.292,0,0,1,.223-.032l.058,0-.02-.224H154.7l-.133,0c-.1,0-.214,0-.323,0s-.211,0-.324,0-.248,0-.36,0l-.143,0h-.054l-.013.232.058,0a1.424,1.424,0,0,1,.23.025.29.29,0,0,1,.115.047.12.12,0,0,1,.044.065.489.489,0,0,1,.013.122v1.78a1.1,1.1,0,0,0,.1.489,1.013,1.013,0,0,0,.274.346,1.154,1.154,0,0,0,.391.2,1.585,1.585,0,0,0,.456.066,1.71,1.71,0,0,0,.474-.067,1.19,1.19,0,0,0,.423-.221,1.138,1.138,0,0,0,.3-.391,1.322,1.322,0,0,0,.116-.578v-1.41a1.517,1.517,0,0,1,.019-.272.235.235,0,0,1,.059-.126.227.227,0,0,1,.118-.057c.06-.012.138-.022.232-.031Z" transform="translate(-130.43 -269.281)"/>
      <path id="パス_357" data-name="パス 357" class="cls-2" d="M178.461,319.168a.244.244,0,0,1-.109-.049.327.327,0,0,1-.079-.109,2.125,2.125,0,0,1-.087-.224l-.75-2.173q-.037-.109-.078-.242c-.027-.087-.053-.184-.077-.289l-.012-.051-.3.037-.012.032a.98.98,0,0,1-.074.153,1.292,1.292,0,0,0-.089.183l-.923,2.255c-.048.112-.091.2-.126.267a.576.576,0,0,1-.106.146.264.264,0,0,1-.12.066,1.168,1.168,0,0,1-.2.03l-.056,0,.013.224h.054c.083,0,.168,0,.257,0,.193-.005.37,0,.555,0l.278,0h.053l.019-.232-.059,0a.914.914,0,0,1-.273-.039.063.063,0,0,1-.046-.067.952.952,0,0,1,.063-.219l.242-.62h1.029l.224.67q.02.059.032.105a.275.275,0,0,1,.011.07.061.061,0,0,1-.044.065.949.949,0,0,1-.25.041l-.058,0,.02.224h.053q.141,0,.285,0c.211-.005.415,0,.619,0q.169,0,.309,0h.053l.019-.23-.058,0A1.7,1.7,0,0,1,178.461,319.168Zm-1.113-1.228h-.806l.439-1.108Z" transform="translate(-149.067 -268.793)"/>
      <path id="パス_358" data-name="パス 358" class="cls-2" d="M202.1,318.007l-.115,0c-.084,0-.173,0-.277,0s-.187,0-.3,0l-.375,0-.176,0H200.8l-.013.233.059,0a2.718,2.718,0,0,1,.289.023.429.429,0,0,1,.151.045.116.116,0,0,1,.055.059.329.329,0,0,1,.016.113v.66c0,.008,0,.031-.054.059a.827.827,0,0,1-.185.065,1.6,1.6,0,0,1-.214.035q-.1.01-.15.01a1.318,1.318,0,0,1-.57-.116,1.128,1.128,0,0,1-.4-.314,1.365,1.365,0,0,1-.24-.47,2.064,2.064,0,0,1-.081-.585,1.928,1.928,0,0,1,.079-.568,1.16,1.16,0,0,1,.236-.432,1.072,1.072,0,0,1,.4-.278,1.5,1.5,0,0,1,.575-.1,1.173,1.173,0,0,1,.327.044.74.74,0,0,1,.26.133.684.684,0,0,1,.18.225.821.821,0,0,1,.082.321l0,.059.251-.024v-.052q0-.213,0-.4c0-.122.008-.256.021-.4l0-.048-.047-.013c-.068-.018-.143-.035-.226-.051s-.165-.03-.249-.042-.168-.022-.252-.028-.161-.01-.231-.01a2.727,2.727,0,0,0-.776.107,1.835,1.835,0,0,0-.636.329,1.573,1.573,0,0,0-.431.552,1.779,1.779,0,0,0-.157.77,1.707,1.707,0,0,0,.138.694,1.547,1.547,0,0,0,.386.535,1.749,1.749,0,0,0,.586.341,2.2,2.2,0,0,0,.738.12,2.834,2.834,0,0,0,.556-.058c.185-.037.372-.081.555-.131l.051-.014-.009-.052a1.575,1.575,0,0,1-.019-.233c0-.1,0-.2,0-.307V318.6a1.354,1.354,0,0,1,.011-.193.221.221,0,0,1,.036-.1.134.134,0,0,1,.067-.047.706.706,0,0,1,.144-.027l.056-.006-.02-.222H202.1Z" transform="translate(-169.15 -268.903)"/>
      <path id="パス_359" data-name="パス 359" class="cls-2" d="M224.372,319.032c-.052.121-.1.219-.14.3a.658.658,0,0,1-.136.182.428.428,0,0,1-.181.094,1.23,1.23,0,0,1-.3.03h-.243a1.092,1.092,0,0,1-.207-.016.2.2,0,0,1-.1-.044.15.15,0,0,1-.042-.084.9.9,0,0,1-.014-.175v-.944l.486.015c.195.007.395.019.6.037l.061.005.009-.362-.058-.058-1.092.032v-1.094a.353.353,0,0,1,0-.056.276.276,0,0,1,.095-.009h.477a1.07,1.07,0,0,1,.262.026.31.31,0,0,1,.147.081.4.4,0,0,1,.09.159,2.086,2.086,0,0,1,.065.279l.009.049.238-.006v-.055q0-.209.013-.395c.007-.122.017-.24.03-.353l.008-.064h-.065q-.643,0-1.06,0l-.546,0-.151,0-.333,0-.146,0h-.053l-.019.232.06,0a1.6,1.6,0,0,1,.22.022.258.258,0,0,1,.106.041.11.11,0,0,1,.04.058.453.453,0,0,1,.013.118v2.243a.974.974,0,0,1-.015.193.167.167,0,0,1-.049.093.265.265,0,0,1-.118.053,1.5,1.5,0,0,1-.237.03l-.059,0,.02.225h.053l.139,0c.109,0,.228,0,.337,0l.141,0,.614,0q.412,0,1.075,0h.054l0-.054c0-.039.008-.088.016-.148s.02-.127.033-.2.028-.142.043-.215.032-.14.049-.2l.016-.058-.235-.054Z" transform="translate(-188.845 -269.28)"/>
      <path id="パス_360" data-name="パス 360" class="cls-2" d="M264.314,317.945a1.475,1.475,0,0,0-.3-.2c-.11-.057-.22-.109-.325-.155-.086-.037-.168-.075-.246-.114a.884.884,0,0,1-.2-.129.531.531,0,0,1-.128-.17.567.567,0,0,1-.046-.243.488.488,0,0,1,.037-.194.45.45,0,0,1,.1-.148.44.44,0,0,1,.153-.094.581.581,0,0,1,.2-.033.643.643,0,0,1,.459.159.74.74,0,0,1,.2.491l0,.058.25-.024v-.052c0-.071,0-.136,0-.2l0-.18q0-.087.008-.177t.016-.2l0-.048-.047-.012c-.135-.035-.265-.064-.386-.086a1.9,1.9,0,0,0-.823.027,1.1,1.1,0,0,0-.355.176.875.875,0,0,0-.246.291.85.85,0,0,0-.091.4.77.77,0,0,0,.084.367,1,1,0,0,0,.208.269,1.349,1.349,0,0,0,.284.2c.1.054.2.1.3.148s.174.08.258.122a1.071,1.071,0,0,1,.215.141.6.6,0,0,1,.146.184.549.549,0,0,1,.054.253.543.543,0,0,1-.042.216.514.514,0,0,1-.117.17.532.532,0,0,1-.174.111.594.594,0,0,1-.219.039.778.778,0,0,1-.313-.057.711.711,0,0,1-.227-.158.985.985,0,0,1-.17-.241,3.254,3.254,0,0,1-.139-.314l-.018-.047-.246.059.015.057c.037.143.067.281.089.409s.041.267.056.41l0,.039.037.011c.146.042.288.076.422.1a2.145,2.145,0,0,0,.39.038,1.409,1.409,0,0,0,.427-.066,1.158,1.158,0,0,0,.372-.195,1,1,0,0,0,.261-.315.9.9,0,0,0,.1-.428.8.8,0,0,0-.087-.38A.988.988,0,0,0,264.314,317.945Z" transform="translate(-223.218 -268.903)"/>
      <path id="パス_361" data-name="パス 361" class="cls-2" d="M281.626,318.5a3.184,3.184,0,0,1-.172.358.979.979,0,0,1-.2.247.712.712,0,0,1-.27.151,1.127,1.127,0,0,1-.328.048,1.217,1.217,0,0,1-.548-.116,1.108,1.108,0,0,1-.385-.314,1.363,1.363,0,0,1-.232-.47,2.136,2.136,0,0,1-.078-.586,1.789,1.789,0,0,1,.086-.567,1.19,1.19,0,0,1,.248-.433,1.117,1.117,0,0,1,.4-.279,1.475,1.475,0,0,1,.565-.1.986.986,0,0,1,.3.042.614.614,0,0,1,.389.349.935.935,0,0,1,.073.322l0,.059.251-.024v-.052q0-.213.005-.4c0-.126.011-.261.025-.4l0-.048-.047-.012a3.375,3.375,0,0,0-.439-.085,3.467,3.467,0,0,0-.442-.031,2.677,2.677,0,0,0-.763.107,1.885,1.885,0,0,0-.641.328,1.6,1.6,0,0,0-.441.551,1.883,1.883,0,0,0-.028,1.464,1.554,1.554,0,0,0,.376.534,1.693,1.693,0,0,0,.569.342,2.072,2.072,0,0,0,.715.12,3.2,3.2,0,0,0,.528-.044,4.63,4.63,0,0,0,.528-.122l.037-.011,0-.038c.015-.145.034-.283.056-.409s.052-.263.089-.409l.015-.056-.238-.06Z" transform="translate(-237.154 -268.901)"/>
      <path id="パス_362" data-name="パス 362" class="cls-2" d="M304.5,319.662a.224.224,0,0,1-.1-.04.107.107,0,0,1-.036-.058.511.511,0,0,1-.012-.12V317.2a1.058,1.058,0,0,1,.014-.193.183.183,0,0,1,.043-.1.206.206,0,0,1,.1-.051,1.074,1.074,0,0,1,.2-.03l.056,0-.013-.224h-.054l-.115,0c-.087,0-.188,0-.293,0s-.2,0-.308,0l-.335,0-.129,0h-.054l-.013.232.058,0a1.46,1.46,0,0,1,.211.022.22.22,0,0,1,.1.04.1.1,0,0,1,.034.056.59.59,0,0,1,.01.121v.942h-1.668V317.2a1.225,1.225,0,0,1,.013-.194.179.179,0,0,1,.041-.094.207.207,0,0,1,.094-.051,1.047,1.047,0,0,1,.2-.03l.058,0-.02-.224H302.4l-.143,0h-.607l-.17,0h-.2l-.013.232.058,0a1.559,1.559,0,0,1,.215.022.23.23,0,0,1,.1.039.109.109,0,0,1,.036.058.521.521,0,0,1,.012.12v2.239a1.069,1.069,0,0,1-.014.194.18.18,0,0,1-.043.095.2.2,0,0,1-.1.051,1.069,1.069,0,0,1-.2.03l-.056,0,.013.224h.054l.115,0c.091,0,.194,0,.293,0,.115,0,.2,0,.308,0l.335.007.13,0h.054l.013-.232-.058,0a1.452,1.452,0,0,1-.211-.022.22.22,0,0,1-.1-.04.1.1,0,0,1-.034-.056.583.583,0,0,1-.01-.121v-1.112h1.668v.989a1.219,1.219,0,0,1-.013.2.171.171,0,0,1-.041.093.205.205,0,0,1-.094.051,1.024,1.024,0,0,1-.2.03l-.058,0,.02.224h.053l.113,0c.087,0,.187,0,.287,0s.2,0,.309,0,.238,0,.34,0l.132,0h.054l.013-.232-.058,0A1.571,1.571,0,0,1,304.5,319.662Z" transform="translate(-256.235 -269.28)"/>
      <path id="パス_363" data-name="パス 363" class="cls-2" d="M329.665,316.619a1.537,1.537,0,0,0-.541-.341,1.941,1.941,0,0,0-.689-.119,1.794,1.794,0,0,0-.7.131,1.579,1.579,0,0,0-.539.367,1.67,1.67,0,0,0-.349.557,1.949,1.949,0,0,0-.124.7,1.853,1.853,0,0,0,.126.7,1.516,1.516,0,0,0,.894.875,1.932,1.932,0,0,0,.687.119,1.794,1.794,0,0,0,.7-.131,1.582,1.582,0,0,0,.539-.367,1.664,1.664,0,0,0,.349-.557,1.946,1.946,0,0,0,.124-.7,1.86,1.86,0,0,0-.126-.7A1.566,1.566,0,0,0,329.665,316.619Zm-.1,1.357a1.844,1.844,0,0,1-.093.625,1.15,1.15,0,0,1-.245.412.915.915,0,0,1-.352.227,1.218,1.218,0,0,1-.831,0,.945.945,0,0,1-.366-.249,1.35,1.35,0,0,1-.271-.469,2.16,2.16,0,0,1-.107-.73,1.839,1.839,0,0,1,.093-.625,1.15,1.15,0,0,1,.246-.411.907.907,0,0,1,.351-.227,1.262,1.262,0,0,1,.422-.072,1.2,1.2,0,0,1,.409.075.948.948,0,0,1,.366.249,1.352,1.352,0,0,1,.271.468A2.162,2.162,0,0,1,329.567,317.976Z" transform="translate(-277.891 -268.902)"/>
      <path id="パス_364" data-name="パス 364" class="cls-2" d="M354.682,316.619a1.538,1.538,0,0,0-.542-.341,1.941,1.941,0,0,0-.689-.119,1.794,1.794,0,0,0-.7.131,1.583,1.583,0,0,0-.539.367,1.673,1.673,0,0,0-.349.557,1.955,1.955,0,0,0-.124.7,1.852,1.852,0,0,0,.126.7,1.518,1.518,0,0,0,.894.875,1.931,1.931,0,0,0,.687.119,1.794,1.794,0,0,0,.7-.131,1.583,1.583,0,0,0,.539-.367,1.673,1.673,0,0,0,.349-.557,1.955,1.955,0,0,0,.124-.7,1.854,1.854,0,0,0-.126-.7A1.571,1.571,0,0,0,354.682,316.619Zm-.1,1.357a1.846,1.846,0,0,1-.093.625,1.149,1.149,0,0,1-.245.412.915.915,0,0,1-.351.227,1.218,1.218,0,0,1-.831,0,.945.945,0,0,1-.366-.249,1.354,1.354,0,0,1-.271-.468,2.17,2.17,0,0,1-.107-.73,1.844,1.844,0,0,1,.093-.625,1.152,1.152,0,0,1,.245-.411.912.912,0,0,1,.352-.227,1.26,1.26,0,0,1,.422-.072,1.2,1.2,0,0,1,.408.075.945.945,0,0,1,.366.249,1.353,1.353,0,0,1,.271.469A2.168,2.168,0,0,1,354.585,317.976Z" transform="translate(-299.168 -268.902)"/>
      <path id="パス_365" data-name="パス 365" class="cls-2" d="M378.733,318.988l-.019.045c-.05.117-.1.218-.138.3a.623.623,0,0,1-.135.181.442.442,0,0,1-.185.094,1.262,1.262,0,0,1-.3.03h-.173a1.094,1.094,0,0,1-.207-.016.2.2,0,0,1-.1-.044.154.154,0,0,1-.043-.084.911.911,0,0,1-.014-.176V317.2a.979.979,0,0,1,.015-.192.182.182,0,0,1,.047-.1.233.233,0,0,1,.106-.052,1.254,1.254,0,0,1,.212-.03l.06,0-.026-.224h-.051l-.118,0c-.093,0-.2,0-.31,0s-.2,0-.314,0-.248,0-.351,0l-.133,0H376.5l-.019.232.059,0a1.629,1.629,0,0,1,.22.022.253.253,0,0,1,.106.041.108.108,0,0,1,.04.059.439.439,0,0,1,.013.117v2.243a.957.957,0,0,1-.015.193.179.179,0,0,1-.047.094.234.234,0,0,1-.106.052,1.237,1.237,0,0,1-.211.03l-.058,0,.02.224h.053l.119,0c.1,0,.205,0,.312,0l.146,0h.117l.145,0c.111,0,.257,0,.47,0l.381,0h.561l0-.054c0-.039.008-.088.016-.148s.02-.127.033-.2.028-.142.043-.215.032-.14.049-.2l.016-.058Z" transform="translate(-320.207 -269.281)"/>
      <path id="パス_366" data-name="パス 366" class="cls-5" d="M207.058,77.415h-8.1c-.232,0-.434-.007-.6-.007v.007h-3.5v.7H198.8a6.859,6.859,0,0,1,.746.1,1.709,1.709,0,0,1,.719.289.885.885,0,0,1,.327.495,3.143,3.143,0,0,1,.075.746V95.248q0,.578-.01,1.157t-.065,1.11a5.836,5.836,0,0,1-.186.989,2.312,2.312,0,0,1-.373.774,1.162,1.162,0,0,1-.56.439,2.027,2.027,0,0,1-.691.122,2.548,2.548,0,0,1-1.213-.308,4.764,4.764,0,0,1-.933-.625h-.056a1.866,1.866,0,0,0-.793.392.928.928,0,0,0-.364.747,1.1,1.1,0,0,0,.177.634,1.352,1.352,0,0,0,.457.42,2.05,2.05,0,0,0,.607.224,3.269,3.269,0,0,0,.644.065,5.5,5.5,0,0,0,2.034-.382,4.279,4.279,0,0,0,1.661-1.166,6.634,6.634,0,0,0,1.344-2.24,8.974,8.974,0,0,0,.5-3.153v-.56q0-.466-.009-1.129t-.009-1.465q0-.839-.009-1.67t-.009-1.633V80.45a5.7,5.7,0,0,1,.093-1.138,1.281,1.281,0,0,1,.364-.7,1.681,1.681,0,0,1,.737-.373,5.459,5.459,0,0,1,.694-.126h2.354v-.7Z" transform="translate(-165.733 -65.838)"/>
    </g>
  </g>
</svg>
