<svg xmlns="http://www.w3.org/2000/svg" width="384.224" height="56.005" viewBox="0 0 384.224 56.005">
  <defs>
    <style>
      .cls-1 {
        fill: #001921;
      }

      .cls-2 {
        fill: #2351a3;
      }

      .cls-3, .cls-5 {
        fill: #c7c379;
      }

      .cls-3, .cls-4 {
        fill-rule: evenodd;
      }

      .cls-4 {
        fill: #1b499e;
      }
    </style>
  </defs>
  <g id="logo_jp" transform="translate(-80 -28.875)">
    <path id="TOKYO_WORLD_JAPANESE_LANGUAGE_SCHOOL" data-name="TOKYO WORLD JAPANESE LANGUAGE SCHOOL" class="cls-1" d="M7.523-9.287V-7.98H4.752v8H3.117v-8H.369V-9.287Zm4.852-.158A3.57,3.57,0,0,1,15.4-8.027a5.49,5.49,0,0,1,.961,3.393A5.18,5.18,0,0,1,15.111-.9,3.623,3.623,0,0,1,12.363.205,3.564,3.564,0,0,1,9.34-1.219a5.48,5.48,0,0,1-.961-3.387A5.186,5.186,0,0,1,9.633-8.344,3.625,3.625,0,0,1,12.375-9.445Zm0,1.248a1.9,1.9,0,0,0-1.729,1.014A5.049,5.049,0,0,0,10.1-4.617,4.6,4.6,0,0,0,10.8-1.822a1.875,1.875,0,0,0,1.57.779A1.891,1.891,0,0,0,14.1-2.062a5.066,5.066,0,0,0,.545-2.555,4.623,4.623,0,0,0-.7-2.8A1.86,1.86,0,0,0,12.375-8.2Zm12.656-1.09-3.223,3.7,3.5,5.607h-1.84L20.76-4.453,19.67-3.229V.023H18.076V-9.287H19.67v4.248l3.516-4.248Zm8.479,0L30.463-3.826V.023H28.828v-3.85l-3-5.461h1.8l1.852,3.463q.064.117.287.568.152-.322.3-.58l1.793-3.451Zm4.629-.158a3.57,3.57,0,0,1,3.023,1.418,5.49,5.49,0,0,1,.961,3.393A5.18,5.18,0,0,1,40.875-.9,3.623,3.623,0,0,1,38.127.205,3.564,3.564,0,0,1,35.1-1.219a5.48,5.48,0,0,1-.961-3.387A5.186,5.186,0,0,1,35.4-8.344,3.625,3.625,0,0,1,38.139-9.445Zm0,1.248A1.9,1.9,0,0,0,36.41-7.184a5.049,5.049,0,0,0-.551,2.566,4.6,4.6,0,0,0,.709,2.795,1.875,1.875,0,0,0,1.57.779,1.891,1.891,0,0,0,1.723-1.02,5.066,5.066,0,0,0,.545-2.555,4.623,4.623,0,0,0-.7-2.8A1.86,1.86,0,0,0,38.139-8.2Zm18.7-1.09L54.979.023H52.986l-.8-4.336q-.135-.727-.516-3.492H51.5q-.34,2.473-.516,3.445L50.227.023H48.234L46.424-9.287H48.07l.668,4.248q.281,1.881.469,3.457h.17q.059-.4.158-1.16.2-1.529.334-2.262l.756-4.283H52.7l.779,4.424q.287,1.67.457,3.281h.17q.059-.4.246-1.822.123-.9.223-1.529l.715-4.354Zm4.688-.158a3.57,3.57,0,0,1,3.023,1.418,5.49,5.49,0,0,1,.961,3.393A5.18,5.18,0,0,1,64.266-.9,3.623,3.623,0,0,1,61.518.205a3.564,3.564,0,0,1-3.023-1.424,5.48,5.48,0,0,1-.961-3.387,5.186,5.186,0,0,1,1.254-3.738A3.625,3.625,0,0,1,61.529-9.445Zm0,1.248A1.9,1.9,0,0,0,59.8-7.184a5.049,5.049,0,0,0-.551,2.566,4.6,4.6,0,0,0,.709,2.795,1.875,1.875,0,0,0,1.57.779,1.891,1.891,0,0,0,1.723-1.02A5.066,5.066,0,0,0,63.8-4.617a4.623,4.623,0,0,0-.7-2.8A1.86,1.86,0,0,0,61.529-8.2Zm5.7-1.09h3.346q3.3,0,3.3,2.531A2.307,2.307,0,0,1,73.336-5.2a2.69,2.69,0,0,1-1.307.809L74.18.023h-1.74L70.553-4.148l-.422.012H68.813V.023H67.23Zm1.582,1.213v2.736h1.623q1.822,0,1.822-1.395,0-1.342-1.752-1.342Zm8.443-1.213v8h4.365V.023h-6V-9.287Zm5.854,0h3.117a4.311,4.311,0,0,1,3.4,1.277,4.864,4.864,0,0,1,1.025,3.316,4.589,4.589,0,0,1-1.441,3.686A4.752,4.752,0,0,1,86.01.023h-2.9Zm1.605,1.248v6.814h1.26a2.722,2.722,0,0,0,2.262-.937,3.935,3.935,0,0,0,.7-2.52q0-3.357-2.883-3.357ZM98.654-9.287v6.861a2.449,2.449,0,0,1-.885,2.1,3.14,3.14,0,0,1-1.91.521q-.205,0-.885-.053l-.059-1.254a6.524,6.524,0,0,0,.85.07,1.147,1.147,0,0,0,.961-.428,1.761,1.761,0,0,0,.311-1.107V-9.287Zm6.211,0L107.736.023h-1.693l-.791-2.736h-2.859l-.8,2.736h-1.535l2.854-9.311Zm.1,5.373L104.42-5.8q-.105-.4-.551-2.291h-.105q-.3,1.307-.574,2.279l-.5,1.9Zm4.16-5.373h3.287q3.322,0,3.322,2.666a2.429,2.429,0,0,1-.99,2.1,4.113,4.113,0,0,1-2.432.633h-1.57V.023h-1.617Zm1.617,1.213V-5.1h1.523q1.834,0,1.834-1.512,0-1.465-1.775-1.465ZM120.99-9.287,123.861.023h-1.693l-.791-2.736h-2.859l-.8,2.736H116.18l2.854-9.311Zm.1,5.373L120.545-5.8q-.105-.4-.551-2.291h-.105q-.3,1.307-.574,2.279l-.5,1.9Zm11.3-5.373V.023h-1.98l-2.256-4.8q-.721-1.553-1.336-3.076h-.164q.082,1.547.082,3.363V.023H125.25V-9.287h2.438l1.934,4.125a30.736,30.736,0,0,1,1.236,3.193h.164q-.117-1.9-.117-3.41V-9.287Zm8.373,0V-8h-4.529v2.461h3.422V-4.26h-3.422v3h4.623V.023h-6.24V-9.287Zm7.693,2.162-1.57.428q-.363-1.523-1.658-1.523a1.754,1.754,0,0,0-1.2.369,1.08,1.08,0,0,0-.352.844,1.228,1.228,0,0,0,.4,1,3.7,3.7,0,0,0,1.307.563l.492.146a4.406,4.406,0,0,1,2.238,1.166,2.4,2.4,0,0,1,.486,1.582,2.467,2.467,0,0,1-.961,2.086,3.858,3.858,0,0,1-2.4.674,3.9,3.9,0,0,1-2.385-.68,3.1,3.1,0,0,1-1.131-1.734l1.547-.492a2.19,2.19,0,0,0,.756,1.3,1.852,1.852,0,0,0,1.178.381q1.781,0,1.781-1.33a1.225,1.225,0,0,0-.393-1,4.04,4.04,0,0,0-1.424-.615l-.48-.141a4.291,4.291,0,0,1-2.133-1.178,2.5,2.5,0,0,1-.486-1.623,2.268,2.268,0,0,1,.914-1.887,3.462,3.462,0,0,1,2.2-.656A3.113,3.113,0,0,1,148.459-7.125Zm7.992-2.162V-8h-4.529v2.461h3.422V-4.26h-3.422v3h4.623V.023H150.3V-9.287Zm6.686,0v8H167.5V.023h-6V-9.287Zm9.826,0L175.834.023h-1.693l-.791-2.736H170.49l-.8,2.736h-1.535l2.854-9.311Zm.1,5.373L172.518-5.8q-.105-.4-.551-2.291h-.105q-.3,1.307-.574,2.279l-.5,1.9Zm11.3-5.373V.023h-1.98l-2.256-4.8q-.721-1.553-1.336-3.076h-.164q.082,1.547.082,3.363V.023h-1.488V-9.287h2.438l1.934,4.125a30.736,30.736,0,0,1,1.236,3.193h.164q-.117-1.9-.117-3.41V-9.287Zm9.3,2.566-1.576.375Q191.73-8.2,190.154-8.2a1.989,1.989,0,0,0-1.793,1.02,4.908,4.908,0,0,0-.568,2.561,4.531,4.531,0,0,0,.721,2.789,1.946,1.946,0,0,0,1.617.785q1.834,0,2.08-2.531h-2.174V-4.822h3.686v4.9h-1.078l-.182-1.354a2.579,2.579,0,0,1-1.1,1.148,2.929,2.929,0,0,1-1.4.328,3.453,3.453,0,0,1-2.947-1.418,5.564,5.564,0,0,1-.943-3.393,5.132,5.132,0,0,1,1.277-3.732,3.718,3.718,0,0,1,2.777-1.107,3.566,3.566,0,0,1,2.461.844A3.589,3.589,0,0,1,193.664-6.721ZM202.8-9.287v6.094a3.219,3.219,0,0,1-1.078,2.643,3.729,3.729,0,0,1-2.437.744,3.6,3.6,0,0,1-2.707-.961,3.345,3.345,0,0,1-.844-2.426V-9.287h1.617v6.07q0,2.174,1.969,2.174t1.969-2.174v-6.07Zm6.182,0L211.857.023h-1.693l-.791-2.736h-2.859l-.8,2.736h-1.535l2.854-9.311Zm.1,5.373L208.541-5.8q-.105-.4-.551-2.291h-.105q-.3,1.307-.574,2.279l-.5,1.9Zm11.051-2.807-1.576.375Q218.2-8.2,216.627-8.2a1.989,1.989,0,0,0-1.793,1.02,4.908,4.908,0,0,0-.568,2.561,4.531,4.531,0,0,0,.721,2.789,1.946,1.946,0,0,0,1.617.785q1.834,0,2.08-2.531H216.51V-4.822H220.2v4.9h-1.078l-.182-1.354a2.579,2.579,0,0,1-1.1,1.148,2.929,2.929,0,0,1-1.4.328,3.453,3.453,0,0,1-2.947-1.418,5.564,5.564,0,0,1-.943-3.393,5.132,5.132,0,0,1,1.277-3.732A3.718,3.718,0,0,1,216.6-9.445a3.566,3.566,0,0,1,2.461.844A3.589,3.589,0,0,1,220.137-6.721Zm8.244-2.566V-8h-4.529v2.461h3.422V-4.26h-3.422v3h4.623V.023h-6.24V-9.287ZM239.5-7.125l-1.57.428q-.363-1.523-1.658-1.523a1.754,1.754,0,0,0-1.2.369,1.08,1.08,0,0,0-.352.844,1.228,1.228,0,0,0,.4,1,3.7,3.7,0,0,0,1.307.563l.492.146a4.406,4.406,0,0,1,2.238,1.166,2.4,2.4,0,0,1,.486,1.582,2.467,2.467,0,0,1-.961,2.086,3.858,3.858,0,0,1-2.4.674,3.9,3.9,0,0,1-2.385-.68,3.1,3.1,0,0,1-1.131-1.734l1.547-.492a2.19,2.19,0,0,0,.756,1.3,1.852,1.852,0,0,0,1.178.381q1.781,0,1.781-1.33a1.225,1.225,0,0,0-.393-1,4.04,4.04,0,0,0-1.424-.615l-.48-.141A4.291,4.291,0,0,1,233.6-5.279a2.5,2.5,0,0,1-.486-1.623,2.268,2.268,0,0,1,.914-1.887,3.462,3.462,0,0,1,2.2-.656A3.113,3.113,0,0,1,239.5-7.125Zm8.912.5-1.57.381q-.346-1.969-1.957-1.969a1.957,1.957,0,0,0-1.764,1.02,4.873,4.873,0,0,0-.574,2.555,4.481,4.481,0,0,0,.744,2.795,1.933,1.933,0,0,0,1.594.785q1.664,0,2.051-1.992l1.529.469A3.367,3.367,0,0,1,244.869.193,3.646,3.646,0,0,1,241.8-1.23a5.409,5.409,0,0,1-.979-3.387,5.157,5.157,0,0,1,1.266-3.738,3.7,3.7,0,0,1,2.777-1.1,3.536,3.536,0,0,1,2.461.855A3.615,3.615,0,0,1,248.408-6.621Zm8.637-2.666V.023h-1.605v-4.2h-3.879v4.2h-1.605V-9.287h1.605V-5.5h3.879V-9.287Zm5.713-.158a3.57,3.57,0,0,1,3.023,1.418,5.49,5.49,0,0,1,.961,3.393A5.18,5.18,0,0,1,265.494-.9,3.623,3.623,0,0,1,262.746.205a3.564,3.564,0,0,1-3.023-1.424,5.48,5.48,0,0,1-.961-3.387,5.186,5.186,0,0,1,1.254-3.738A3.625,3.625,0,0,1,262.758-9.445Zm0,1.248a1.9,1.9,0,0,0-1.729,1.014,5.049,5.049,0,0,0-.551,2.566,4.6,4.6,0,0,0,.709,2.795,1.875,1.875,0,0,0,1.57.779,1.891,1.891,0,0,0,1.723-1.02,5.066,5.066,0,0,0,.545-2.555,4.623,4.623,0,0,0-.7-2.8A1.86,1.86,0,0,0,262.758-8.2Zm9.182-1.248a3.57,3.57,0,0,1,3.023,1.418,5.49,5.49,0,0,1,.961,3.393A5.18,5.18,0,0,1,274.676-.9,3.623,3.623,0,0,1,271.928.205,3.564,3.564,0,0,1,268.9-1.219a5.48,5.48,0,0,1-.961-3.387A5.186,5.186,0,0,1,269.2-8.344,3.625,3.625,0,0,1,271.939-9.445Zm0,1.248a1.9,1.9,0,0,0-1.729,1.014,5.049,5.049,0,0,0-.551,2.566,4.6,4.6,0,0,0,.709,2.795,1.875,1.875,0,0,0,1.57.779,1.891,1.891,0,0,0,1.723-1.02,5.066,5.066,0,0,0,.545-2.555,4.623,4.623,0,0,0-.7-2.8A1.86,1.86,0,0,0,271.939-8.2Zm7.336-1.09v8h4.365V.023h-6V-9.287Z" transform="translate(180.583 84.675)"/>
    <path id="東京ワールド日本語学校" class="cls-1" d="M4.383-15.48l-2.953.047q-.188,0-.223-.047a.4.4,0,0,1-.035-.211v-1.734q0-.187.047-.223a.4.4,0,0,1,.211-.035l2.953.047h6.129a14.368,14.368,0,0,0-.2-2.5q1.477.035,2.59.164.387.047.387.246a1.511,1.511,0,0,1-.141.527A4.684,4.684,0,0,0,13-17.637H19.57l2.953-.047q.246,0,.246.258v1.734q0,.258-.246.258L19.57-15.48H13v1.465h3.727l3.328-.047q.211,0,.258.059a.473.473,0,0,1,.035.234L20.3-11.52v3.961l.047,2.25q0,.188-.047.229a.445.445,0,0,1-.246.041l-3.328-.047H14.73a21.412,21.412,0,0,0,8.8,4.266A6.572,6.572,0,0,0,22.5.844q-.258.621-.457.621a2.729,2.729,0,0,1-.551-.164,20.577,20.577,0,0,1-8.566-5.379q.023,1.863.105,4.008.012.316.035.7.035.879.035.973a.371.371,0,0,1-.047.234.437.437,0,0,1-.223.035H10.676q-.2,0-.234-.059a.366.366,0,0,1-.035-.211q0-.094.035-.961.117-2.555.141-4.629A19.29,19.29,0,0,1,2.637,1.3a2.511,2.511,0,0,1-.574.164q-.223,0-.48-.574A5.927,5.927,0,0,0,.574-.621,19.388,19.388,0,0,0,8.8-5.086H7.242l-3.328.047q-.2,0-.234-.047a.437.437,0,0,1-.035-.223l.047-2.25V-11.52l-.047-2.25a.427.427,0,0,1,.047-.258.437.437,0,0,1,.223-.035l3.328.047h3.27V-15.48ZM17.848-6.937v-1.7H13v1.7Zm0-5.2H13v1.676h4.852Zm-11.73,5.2h4.395v-1.7H6.117Zm0-3.527h4.395v-1.676H6.117Zm26.616-3.023h7.652l3.3-.047q.2,0,.234.047a.437.437,0,0,1,.035.223l-.047,1.934v2.625l.047,1.934a.381.381,0,0,1-.041.229.381.381,0,0,1-.229.041l-3.3-.047H37.959v2.426L38.03-1.1A3.678,3.678,0,0,1,37.842.234a1.925,1.925,0,0,1-.586.773,2.386,2.386,0,0,1-1.184.469,17.214,17.214,0,0,1-2.262.105l-.316.012a.5.5,0,0,1-.434-.152,2.041,2.041,0,0,1-.187-.574,4.447,4.447,0,0,0-.738-1.758,19.912,19.912,0,0,0,2.2.152,1.3,1.3,0,0,0,.891-.234.9.9,0,0,0,.188-.633V-6.551H32.733L29.452-6.5a.427.427,0,0,1-.258-.047.437.437,0,0,1-.035-.223l.047-1.934v-2.625l-.047-1.934q0-.2.059-.234a.473.473,0,0,1,.234-.035Zm8.684,4.781v-2.6H31.678v2.6ZM29.5-15.164l-3.059.023a.4.4,0,0,1-.246-.047.306.306,0,0,1-.035-.187v-1.887q0-.187.047-.223a.516.516,0,0,1,.234-.035l3.059.047h5.73v-.41a10.335,10.335,0,0,0-.164-2.2q1.113,0,2.59.117.363.035.363.246a1.859,1.859,0,0,1-.176.5,6.964,6.964,0,0,0-.094,1.359v.387H43.8l3.047-.047a.371.371,0,0,1,.234.047.4.4,0,0,1,.035.211v1.887q0,.234-.27.234L43.8-15.164ZM47.616-1.418A5.493,5.493,0,0,0,46.362.117q-.34.551-.5.551a1.271,1.271,0,0,1-.551-.293,18.119,18.119,0,0,1-4.922-4.863.342.342,0,0,1-.07-.176q0-.082.246-.258l1.383-.809a.718.718,0,0,1,.27-.117q.094,0,.211.188A14.152,14.152,0,0,0,47.616-1.418ZM25.7-1.148a14.915,14.915,0,0,0,4.125-3.457,4.226,4.226,0,0,0,.7-1.348,19.213,19.213,0,0,1,2.062,1.031.5.5,0,0,1,.281.41.476.476,0,0,1-.281.41,2.128,2.128,0,0,0-.656.645A16.272,16.272,0,0,1,28.034.3a1.771,1.771,0,0,1-.586.316q-.2,0-.5-.5A3.853,3.853,0,0,0,25.7-1.148ZM56.208-14.812v3q0,2.016.023,2.883,0,.293-.082.352a.693.693,0,0,1-.352.07q-.527.023-1.055.023t-1.055-.023q-.457,0-.457-.258.117-1.594.117-3.047v-2.262q0-1.945-.094-3.117,0-.234.316-.234,2.109.094,4.008.094h8.086a2.731,2.731,0,0,0,1.465-.27.523.523,0,0,1,.3-.141.851.851,0,0,1,.457.211,8.655,8.655,0,0,1,1.781,1.594.654.654,0,0,1,.164.422.638.638,0,0,1-.211.457,4.067,4.067,0,0,0-.609,1.418A32.855,32.855,0,0,1,66.1-6.223,23.664,23.664,0,0,1,60.72.352a.806.806,0,0,1-.574.27.829.829,0,0,1-.48-.164,7.751,7.751,0,0,0-2.309-.914,24.165,24.165,0,0,0,3.75-3.492,21.045,21.045,0,0,0,2.32-3.445,27.773,27.773,0,0,0,2.766-7.418ZM76.32-10.535a35.438,35.438,0,0,0,5.18.293h7.734q1.137,0,2.93-.035,2.285-.035,2.59-.047h.117q.316,0,.316.34.035.551.035,1.137t-.035,1.125q0,.363-.34.363h-.094q-3.6-.047-5.355-.047H80.761l-3.527.293a.528.528,0,0,1-.551-.5A22.822,22.822,0,0,1,76.32-10.535Zm36.541,5.473a25.056,25.056,0,0,0,3.41-2.238,23.177,23.177,0,0,0,4.2-4.078,6.789,6.789,0,0,0,.75,2.426,1.822,1.822,0,0,1,.141.41.953.953,0,0,1-.363.6,30.722,30.722,0,0,1-3.551,3.152,42.548,42.548,0,0,1-4.266,2.883q-.34.223-.691.5a.777.777,0,0,1-.492.188,1.089,1.089,0,0,1-.5-.187,6.751,6.751,0,0,1-1.441-1.465,1.072,1.072,0,0,1-.211-.5.81.81,0,0,1,.094-.363,6.22,6.22,0,0,0,.141-1.828v-7.512a23.1,23.1,0,0,0-.246-4.184,25.372,25.372,0,0,1,3.012.5q.434.105.434.41a1.526,1.526,0,0,1-.187.609,8.671,8.671,0,0,0-.223,2.66Zm-8.379-10.676a18.882,18.882,0,0,1,3.047.527q.387.105.387.434a.843.843,0,0,1-.07.3,3.657,3.657,0,0,0-.293,1.629,18.073,18.073,0,0,1-1.3,7.055,12.2,12.2,0,0,1-3.41,4.512,1.125,1.125,0,0,1-.621.316.857.857,0,0,1-.457-.187,8.555,8.555,0,0,0-2.039-1.008,12.344,12.344,0,0,0,3.984-4.781,11.85,11.85,0,0,0,.773-2.777,28.815,28.815,0,0,0,.234-4.008A7.935,7.935,0,0,0,104.482-15.738Zm29.194,3.4A35.942,35.942,0,0,1,141.3-9.07q.316.164.316.41a.576.576,0,0,1-.047.211,13.641,13.641,0,0,1-1.031,2.086q-.152.27-.316.27a.4.4,0,0,1-.27-.117,26.447,26.447,0,0,0-6.3-3.082v5.309q0,1.313.094,4.7v.07q0,.293-.434.293-.539.035-1.066.035t-1.066-.035q-.457,0-.457-.363.094-2.32.094-4.723V-15.82a21.683,21.683,0,0,0-.234-3.551,16.917,16.917,0,0,1,3,.387q.457.094.457.41a1.243,1.243,0,0,1-.2.551,7.954,7.954,0,0,0-.164,2.25ZM138-17.355l1.266-.879a.268.268,0,0,1,.152-.059.375.375,0,0,1,.211.105,10.12,10.12,0,0,1,2.273,2.566.3.3,0,0,1,.07.176.287.287,0,0,1-.129.211l-1.02.738a.321.321,0,0,1-.187.082q-.105,0-.211-.152A12.507,12.507,0,0,0,138-17.355Zm2.2-1.582,1.207-.867a.268.268,0,0,1,.152-.059.331.331,0,0,1,.2.105,9.268,9.268,0,0,1,2.285,2.473.408.408,0,0,1,.07.2.3.3,0,0,1-.141.234l-.961.75a.351.351,0,0,1-.187.07.266.266,0,0,1-.223-.152A11.355,11.355,0,0,0,140.2-18.937ZM154.327,1.512h-2.145a.352.352,0,0,1-.217-.041.352.352,0,0,1-.041-.217l.047-8.543V-11.93l-.047-6.27a.4.4,0,0,1,.047-.246.437.437,0,0,1,.223-.035l3.3.047h8.238l3.316-.047q.188,0,.223.059a.437.437,0,0,1,.035.223l-.047,5.555v5.332l.047,8.438q0,.2-.047.234a.4.4,0,0,1-.211.035H164.92q-.2,0-.234-.047a.437.437,0,0,1-.035-.223V-.047H154.584v1.3q0,.187-.047.223A.4.4,0,0,1,154.327,1.512Zm.258-3.937h10.066v-5.8H154.584Zm0-13.629v5.473h10.066v-5.473Zm22.538,3.117-3.07.047q-.187,0-.223-.047a.4.4,0,0,1-.035-.211v-1.934q0-.187.047-.223a.4.4,0,0,1,.211-.035l3.07.047h5.59V-16.9a22.384,22.384,0,0,0-.164-3.117q1.547.035,2.637.164.363.035.363.234,0,.047-.141.633a11.046,11.046,0,0,0-.117,2.016v1.676h5.977l3.094-.047q.188,0,.223.047a.4.4,0,0,1,.035.211v1.934q0,.188-.047.223a.4.4,0,0,1-.211.035l-3.094-.047H186.3a21.452,21.452,0,0,0,9.141,8.566,7.013,7.013,0,0,0-1.172,1.734q-.293.574-.457.574a1.239,1.239,0,0,1-.5-.27,22.985,22.985,0,0,1-8.121-8.777q0,.07.082,6.48h1.242l2.953-.047q.211,0,.246.047a.319.319,0,0,1,.047.211V-2.59q0,.176-.047.217a.445.445,0,0,1-.246.041l-2.953-.047h-1.2q.012,1.207.047,2.754.023,1.1.023,1.254,0,.246-.27.246h-2.227q-.27,0-.27-.246,0-.914.07-4.008h-1.031l-2.953.047q-.187,0-.223-.047a.4.4,0,0,1-.035-.211V-4.418q0-.187.047-.223a.4.4,0,0,1,.211-.035l2.953.047h1.055q.082-3.07.082-6.223a23.251,23.251,0,0,1-7.559,8.52,1.252,1.252,0,0,1-.562.293q-.187,0-.457-.527a5.389,5.389,0,0,0-1.242-1.605,21.848,21.848,0,0,0,5.168-3.937,21.689,21.689,0,0,0,3.6-4.828Zm33.565-4.219-3.023.047a.371.371,0,0,1-.234-.047.4.4,0,0,1-.035-.211v-1.641q0-.2.059-.246a.366.366,0,0,1,.211-.035l3.023.047h5.355l3.047-.047a.371.371,0,0,1,.234.047.516.516,0,0,1,.035.234v1.641q0,.188-.059.223a.366.366,0,0,1-.211.035l-3.047-.047h-2.625q-.258,1.418-.445,2.227h1.652l2.684-.047q.211,0,.258.059a.473.473,0,0,1,.035.234l-.047,1.723V-10.2l2.039-.047q.246,0,.246.258V-8.32q0,.258-.246.258l-3.164-.047h-6.316l-3.176.047q-.187,0-.223-.047a.4.4,0,0,1-.035-.211V-9.984q0-.187.047-.223a.4.4,0,0,1,.211-.035l2.285.047q.445-1.254.867-2.719-.8.012-1.441.035l-.457.012a.371.371,0,0,1-.234-.047.4.4,0,0,1-.035-.211v-1.559q0-.211.059-.258a.366.366,0,0,1,.211-.035l2.426.047q.328-1.488.457-2.227Zm4.512,4.242h-2.742q-.527,1.84-.809,2.719H215.2ZM210.148,1.922h-1.875q-.2,0-.234-.047A.473.473,0,0,1,208,1.641l.047-3.773V-3.773L208-6.164q0-.2.047-.234a.437.437,0,0,1,.223-.035l2.848.047h4.16l2.859-.047q.188,0,.223.047a.437.437,0,0,1,.035.223l-.047,2.086v1.9l.047,3.75q0,.187-.047.223a.437.437,0,0,1-.223.035h-1.945q-.187,0-.223-.047a.4.4,0,0,1-.035-.211v-.8h-5.52v.867a.4.4,0,0,1-.047.246A.4.4,0,0,1,210.148,1.922Zm.258-6.27v3.082h5.52V-4.348Zm-4.219,5.566a.371.371,0,0,1-.047.234.437.437,0,0,1-.223.035h-1.746q-.2,0-.234-.047a.437.437,0,0,1-.035-.223V.574h-2.66v1.1a.371.371,0,0,1-.047.234.437.437,0,0,1-.223.035h-1.746a.427.427,0,0,1-.258-.047.437.437,0,0,1-.035-.223l.047-3.621V-3.551l-.047-2.25q0-.2.059-.234a.473.473,0,0,1,.234-.035l2.18.047h2.309l2.2-.047q.2,0,.234.047a.437.437,0,0,1,.035.223l-.047,1.84v1.723ZM203.9-4.031h-2.66v2.637h2.66Zm-3.141-11.836h3.211l2.566-.047a.371.371,0,0,1,.234.047.4.4,0,0,1,.035.211v1.711q0,.2-.059.246a.366.366,0,0,1-.211.035l-2.566-.047h-3.211l-2.578.047q-.164,0-.2-.059a.437.437,0,0,1-.035-.223v-1.711q0-.258.234-.258Zm.715-3.281h2.309l2.156-.047q.211,0,.246.047a.319.319,0,0,1,.047.211v1.617q0,.188-.059.223a.473.473,0,0,1-.234.035l-2.156-.047h-2.309l-2.18.047a.371.371,0,0,1-.234-.047.4.4,0,0,1-.035-.211v-1.617q0-.187.047-.223a.437.437,0,0,1,.223-.035Zm.07,9.879h2.039l2.016-.047a.427.427,0,0,1,.258.047.437.437,0,0,1,.035.223v1.559q0,.176-.059.211a.473.473,0,0,1-.234.035L203.585-7.3h-2.039l-2.039.059q-.258,0-.258-.246V-9.047q0-.2.047-.234a.4.4,0,0,1,.211-.035Zm0-3.187h2.039L205.6-12.5a.427.427,0,0,1,.258.047.437.437,0,0,1,.035.223V-10.7q0,.188-.059.223a.473.473,0,0,1-.234.035l-2.016-.047h-2.039l-2.039.047q-.187,0-.223-.047a.4.4,0,0,1-.035-.211v-1.535q0-.2.047-.234a.4.4,0,0,1,.211-.035Zm24.436,7.992-3,.047q-.187,0-.223-.047a.4.4,0,0,1-.035-.211V-6.527q0-.2.047-.234a.4.4,0,0,1,.211-.035l3,.047H232.3q-.047-1.348-.141-2.039l1.395.141a15.558,15.558,0,0,0,2.18-1.723h-5.18l-3.105.047q-.258,0-.258-.234v-1.687q0-.187.047-.223a.4.4,0,0,1,.211-.035l3.105.047h6.5a1.977,1.977,0,0,0,.574-.047,1.325,1.325,0,0,1,.3-.094q.234,0,1.043.762.668.7.668,1.031a.389.389,0,0,1-.293.387,6.43,6.43,0,0,0-1.148.8,29.187,29.187,0,0,1-3.363,2.484v.387h6l3-.047a.371.371,0,0,1,.234.047.437.437,0,0,1,.035.223v1.852a.352.352,0,0,1-.041.217.381.381,0,0,1-.229.041l-3-.047h-6v1.559l.047,2.086a2.255,2.255,0,0,1-.762,1.969,3.348,3.348,0,0,1-1.324.422,19.089,19.089,0,0,1-2.355.105,1.4,1.4,0,0,1-.691-.094,1.552,1.552,0,0,1-.246-.6,6.944,6.944,0,0,0-.715-1.758q1.43.141,2.566.141a1.113,1.113,0,0,0,.75-.187.9.9,0,0,0,.188-.645v-3Zm.059-14.824,1.441-.527a.711.711,0,0,1,.258-.07q.129,0,.27.188a16.712,16.712,0,0,1,1.605,2.5.659.659,0,0,1,.07.2q0,.082-.293.188l-1.582.574H232.8a16.209,16.209,0,0,0-1.371-3,.4.4,0,0,1-.07-.176q0-.082.293-.187l1.582-.48a.863.863,0,0,1,.223-.047q.141,0,.258.188a15.832,15.832,0,0,1,1.324,2.789.682.682,0,0,1,.035.164q0,.094-.3.2l-1.559.551h3.7a21.778,21.778,0,0,0,1.172-2.426,8.006,8.006,0,0,0,.363-1.266,11.761,11.761,0,0,1,2.367.715q.34.152.34.363a.455.455,0,0,1-.234.363,1.4,1.4,0,0,0-.457.551q-.5.938-.984,1.7h.621l3.164-.047a.427.427,0,0,1,.258.047.4.4,0,0,1,.035.211l-.047,1.3v1.1l.047,2.684q0,.211-.059.258a.473.473,0,0,1-.234.035H241.38q-.2,0-.234-.059a.473.473,0,0,1-.035-.234v-3.164H225.748v3.164q0,.2-.047.234a.4.4,0,0,1-.211.035h-1.9a.427.427,0,0,1-.258-.047.437.437,0,0,1-.035-.223l.047-2.707v-.891l-.047-1.488q0-.187.059-.223a.473.473,0,0,1,.234-.035l3.164.047h.645a12.361,12.361,0,0,0-1.535-2.684.427.427,0,0,1-.082-.187Q225.783-19.207,226.041-19.289ZM248.262-3.621q-.223.363-.387.363-.129,0-.258-.41a7.535,7.535,0,0,0-.82-1.8,21.091,21.091,0,0,0,3.6-7.582h-.41l-2.32.047q-.187,0-.234-.059a.437.437,0,0,1-.035-.223V-15q0-.234.27-.234l2.32.047h.551v-1.605a21.845,21.845,0,0,0-.187-3.293q1.383.035,2.4.164.41.047.41.246a1.433,1.433,0,0,1-.141.527,7.928,7.928,0,0,0-.176,2.309v1.652l2.109-.047q.27,0,.27.234v1.711a.4.4,0,0,1-.047.246.437.437,0,0,1-.223.035l-2.039-.047a15.014,15.014,0,0,0,2.648,4.535,6.282,6.282,0,0,0-.867,1.559q-.187.434-.293.434-.129,0-.328-.387a15.865,15.865,0,0,1-1.3-3q.012,4.031.094,8.355.023.949.059,2.414.012.668.012.75a.427.427,0,0,1-.047.258.473.473,0,0,1-.234.035h-1.945q-.2,0-.234-.047a.555.555,0,0,1-.035-.246q0-.047.035-1.652.117-4.687.141-8.754A20.169,20.169,0,0,1,248.262-3.621ZM269.215-.645a7.748,7.748,0,0,0-1.1,1.7q-.281.574-.48.574a1.878,1.878,0,0,1-.551-.187,18.236,18.236,0,0,1-5.355-3.5,17.977,17.977,0,0,1-5.789,3.68,1.812,1.812,0,0,1-.574.188q-.176,0-.48-.574a4.756,4.756,0,0,0-1.148-1.441,15.833,15.833,0,0,0,6.41-3.68,18.529,18.529,0,0,1-2.309-4.395.443.443,0,0,1-.047-.164q0-.094.316-.258l1.383-.773a.634.634,0,0,1,.234-.082q.117,0,.2.246a14.841,14.841,0,0,0,1.758,3.5,12.336,12.336,0,0,0,.984-1.863,8.514,8.514,0,0,0,.6-2.062,12.689,12.689,0,0,1,2.109,1.008q.34.2.34.352a.71.71,0,0,1-.27.48,3.386,3.386,0,0,0-.551,1.008,16.372,16.372,0,0,1-1.605,2.977A16.016,16.016,0,0,0,269.215-.645ZM258.867-14.613l-3.188.047a.371.371,0,0,1-.234-.047.4.4,0,0,1-.035-.211v-1.828a.371.371,0,0,1,.047-.234.437.437,0,0,1,.223-.035l3.188.059H260.4v-.7a16.282,16.282,0,0,0-.164-2.543q1.582.047,2.613.164.41.047.41.246a1.5,1.5,0,0,1-.141.5,4.225,4.225,0,0,0-.2,1.629v.7h2.215l3.164-.059q.211,0,.246.047a.344.344,0,0,1,.047.223v1.828q0,.188-.059.223a.473.473,0,0,1-.234.035l-3.164-.047Zm6.117.715a12.684,12.684,0,0,0,3.938,3.75,7.124,7.124,0,0,0-1.078,1.488q-.258.527-.434.527a1.121,1.121,0,0,1-.5-.293,15.263,15.263,0,0,1-3.855-4.348.367.367,0,0,1-.082-.176q0-.094.27-.246l1.242-.773a.8.8,0,0,1,.281-.117Q264.855-14.086,264.984-13.9Zm-6.668-.187a15.576,15.576,0,0,1,1.875.809q.363.223.363.387a.547.547,0,0,1-.246.41,3.877,3.877,0,0,0-.574.75,15.552,15.552,0,0,1-2.684,3.281q-.422.387-.527.387-.141,0-.457-.5a5.305,5.305,0,0,0-1.16-1.172,12.588,12.588,0,0,0,2.883-3.2A5.469,5.469,0,0,0,258.316-14.086Z" transform="translate(180.583 66.535)"/>
    <path id="法務省告示日本語教育機関" class="cls-1" d="M5.15-3.779l-1.67.023q-.094,0-.117-.029A.219.219,0,0,1,3.346-3.9v-.937q0-.1.029-.117a.183.183,0,0,1,.105-.018l1.67.023H6.527V-6.691H5.7L4.09-6.668q-.094,0-.111-.023A.219.219,0,0,1,3.961-6.8v-.926q0-.094.023-.111a.2.2,0,0,1,.105-.018L5.7-7.834h.826v-.527a13.307,13.307,0,0,0-.082-1.594q.674.018,1.271.07.193.018.193.141a.767.767,0,0,1-.059.24A3.929,3.929,0,0,0,7.764-8.4v.563H9.07l1.623-.023q.094,0,.111.023a.2.2,0,0,1,.018.105V-6.8q0,.1-.023.117a.2.2,0,0,1-.105.018L9.07-6.691H7.764v1.746h1.8l1.67-.023q.117,0,.117.135V-3.9a.236.236,0,0,1-.018.117q-.018.023-.1.023l-1.67-.023H7.154A28.621,28.621,0,0,1,6.094-.961q1.623-.146,2.977-.346Q8.7-1.857,8.2-2.484a.188.188,0,0,1-.053-.105q0-.047.123-.123l.65-.381a.255.255,0,0,1,.117-.047.212.212,0,0,1,.123.07A15.809,15.809,0,0,1,11.279.023a.315.315,0,0,1,.035.105q0,.041-.117.123L10.453.7a.374.374,0,0,1-.158.07q-.047,0-.082-.094Q9.873.023,9.7-.3,7.225.117,4.406.393A1.312,1.312,0,0,0,3.961.5a.431.431,0,0,1-.217.082q-.135,0-.193-.193A10.428,10.428,0,0,1,3.287-.791q.762,0,1.26-.047A1.109,1.109,0,0,0,4.74-.85a19.151,19.151,0,0,0,1.078-2.93ZM.539.117a4.359,4.359,0,0,0,.551-.9A19.221,19.221,0,0,0,2.2-3.674a5.461,5.461,0,0,0,.7.6q.252.17.252.3a1.628,1.628,0,0,1-.059.275A26.579,26.579,0,0,1,2.063.217,3.226,3.226,0,0,0,1.887.68Q1.846.838,1.74.838A.517.517,0,0,1,1.523.779,7.1,7.1,0,0,1,.539.117Zm.779-6.932A10.617,10.617,0,0,1,3.064-5.578a.124.124,0,0,1,.059.105.223.223,0,0,1-.064.135l-.539.732q-.082.117-.129.117a.269.269,0,0,1-.111-.059A8.528,8.528,0,0,0,.551-5.883Q.48-5.936.48-5.977a.262.262,0,0,1,.07-.129l.527-.65q.076-.094.135-.094A.236.236,0,0,1,1.318-6.814Zm.527-3.012A10.1,10.1,0,0,1,3.58-8.555a.141.141,0,0,1,.064.1.32.32,0,0,1-.082.152l-.539.732q-.07.1-.111.1a.213.213,0,0,1-.105-.053A7.947,7.947,0,0,0,1.084-8.918Q1-8.959,1-8.994a.351.351,0,0,1,.076-.141l.545-.633q.076-.1.129-.1A.183.183,0,0,1,1.846-9.826ZM22.256-2.361H20.745A5.04,5.04,0,0,1,17.961.785a1.135,1.135,0,0,1-.287.094q-.1,0-.264-.275a2.435,2.435,0,0,0-.562-.686A3.974,3.974,0,0,0,19.52-2.361h-.2l-1.488.023a.214.214,0,0,1-.129-.023.2.2,0,0,1-.018-.105v-.785q0-.1.029-.123a.236.236,0,0,1,.117-.018l1.488.023h.451a4.236,4.236,0,0,0,.047-.469q.006-.076.006-.164,0-.123-.012-.445a8.889,8.889,0,0,1-.926.311.969.969,0,0,1-.193.035q-.105,0-.205-.252a3.655,3.655,0,0,0-.322-.592,7.24,7.24,0,0,1-.527,1.2q-.152.252-.205.252a.762.762,0,0,1-.217-.094,2.969,2.969,0,0,0-.709-.287,7,7,0,0,0,.615-1.2h-.686v3.123l.035,1.512A1.811,1.811,0,0,1,16.385.2a.986.986,0,0,1-.3.393,2.641,2.641,0,0,1-1.418.24.564.564,0,0,1-.334-.059.916.916,0,0,1-.105-.316A2.168,2.168,0,0,0,13.9-.311a7.144,7.144,0,0,0,.984.064.486.486,0,0,0,.352-.094.377.377,0,0,0,.07-.258V-2.707q0-.744.012-1.119a8.225,8.225,0,0,1-1.406,2.473q-.17.193-.252.193t-.211-.229a2.224,2.224,0,0,0-.492-.639,8.128,8.128,0,0,0,1.928-3.047h-.129l-1.418.023q-.094,0-.111-.023a.277.277,0,0,1-.018-.123v-.791a.2.2,0,0,1,.023-.123.2.2,0,0,1,.105-.018l1.418.023h.656a14.035,14.035,0,0,0-1.354-1.113q-.082-.064-.082-.1t.094-.117l.492-.422a.262.262,0,0,1,.146-.088.239.239,0,0,1,.117.053l.721.516a9.041,9.041,0,0,0,.926-1.1H14.938L13.6-8.449q-.094,0-.111-.023a.2.2,0,0,1-.018-.105v-.867q0-.094.023-.111a.2.2,0,0,1,.105-.018l1.336.023h2.074a.537.537,0,0,0,.24-.047.59.59,0,0,1,.17-.047q.135,0,.457.34t.322.516q0,.117-.17.223A2.14,2.14,0,0,0,17.7-8.2,10.5,10.5,0,0,1,16.356-6.7q.029.035.094.1.135.141.205.205a.16.16,0,0,1,.059.094q0,.047-.105.135l-.076.059h.756a.507.507,0,0,0,.229-.047.373.373,0,0,1,.158-.035q.129,0,.422.275.346.316.346.492a.3.3,0,0,1-.117.217.252.252,0,0,0-.088.082A6.892,6.892,0,0,0,20.252-5.9a5.837,5.837,0,0,1-.932-1.154l-.5.574q-.141.158-.229.158t-.205-.158a2.473,2.473,0,0,0-.686-.551,6.98,6.98,0,0,0,1.764-2.314,2.962,2.962,0,0,0,.264-.779q.369.064,1.1.24.17.035.17.152a.227.227,0,0,1-.117.182.836.836,0,0,0-.24.334q-.018.041-.094.193a1.218,1.218,0,0,1-.076.158h2.039l1.313-.023q.094,0,.111.023a.2.2,0,0,1,.018.105v.779q0,.1-.023.117a.2.2,0,0,1-.105.018l-.234-.006q-.234-.012-.51-.018a5.453,5.453,0,0,1-1.107,1.945,5.9,5.9,0,0,0,2.314.791,3.148,3.148,0,0,0-.4.838q-.129.322-.24.322a1.333,1.333,0,0,1-.264-.053A7.722,7.722,0,0,1,21.12-5.168a6.326,6.326,0,0,1-1.055.609q.369.029.908.1.217.035.217.141a.437.437,0,0,1-.094.24,1.176,1.176,0,0,0-.111.492l-.035.217h.891l1.523-.023q.141,0,.141.152l-.047.732q-.064,1.1-.135,1.553a3.048,3.048,0,0,1-.258.9,1.344,1.344,0,0,1-1.348.814q-.434,0-.686-.012T20.721.662a.984.984,0,0,1-.105-.34,3.673,3.673,0,0,0-.264-.75,6.376,6.376,0,0,0,1.031.105.607.607,0,0,0,.574-.252A5.371,5.371,0,0,0,22.256-2.361Zm-.393-5.508H20.088a4.81,4.81,0,0,0,1,1.295A3.775,3.775,0,0,0,21.864-7.869Zm3.67,3.3a14.856,14.856,0,0,0,6.885-2.4,2.948,2.948,0,0,0,.662-.586,9.475,9.475,0,0,1,.826.633q.158.129.158.217,0,.129-.17.17a4.009,4.009,0,0,0-.656.357,13.431,13.431,0,0,1-2.15,1.189h2.2l1.676-.023q.1,0,.117.023a.219.219,0,0,1,.018.111l-.023,1.887V-1.67L35.1.768q0,.1-.023.117A.2.2,0,0,1,34.968.9h-1q-.1,0-.117-.023a.219.219,0,0,1-.018-.111V.41H29.3V.8q0,.094-.023.111a.219.219,0,0,1-.111.018H28.159q-.117,0-.117-.129l.023-2.5V-3.949q-.715.2-1.535.363a1.5,1.5,0,0,1-.246.041.17.17,0,0,1-.152-.082A1.517,1.517,0,0,1,26-3.873,3.307,3.307,0,0,0,25.534-4.57Zm8.3.527H29.3v.627h4.535ZM29.3-.539h4.535v-.627H29.3Zm0-1.441h4.535V-2.6H29.3Zm-.275-5.484a8.358,8.358,0,0,0,1.055.076.531.531,0,0,0,.4-.111.444.444,0,0,0,.076-.3V-8.93a7.31,7.31,0,0,0-.07-1.137q.639.018,1.23.07.205.018.205.117a.752.752,0,0,1-.07.258,1.608,1.608,0,0,0-.059.563v.791l.023.867a.935.935,0,0,1-.4.85,3.518,3.518,0,0,1-1.641.252.648.648,0,0,1-.352-.053.706.706,0,0,1-.105-.311A2.258,2.258,0,0,0,29.026-7.465ZM25.833-6.8A7.1,7.1,0,0,0,27.9-8.666a2.453,2.453,0,0,0,.422-.738,10.8,10.8,0,0,1,1.02.475q.158.1.158.182t-.158.205a1.945,1.945,0,0,0-.287.334A8.41,8.41,0,0,1,27-6.123a.635.635,0,0,1-.275.146q-.076,0-.252-.229A3.061,3.061,0,0,0,25.833-6.8Zm10.84-.275a3.461,3.461,0,0,0-.58.7q-.164.264-.252.264a.746.746,0,0,1-.287-.146,9.438,9.438,0,0,1-2.484-2.5.212.212,0,0,1-.041-.1q0-.053.123-.129l.662-.369a.315.315,0,0,1,.135-.059q.047,0,.105.082A7.591,7.591,0,0,0,36.673-7.078ZM41.28.932h-1.02q-.094,0-.111-.023A.2.2,0,0,1,40.132.8l.023-1.98v-.9l-.023-1.307q0-.094.023-.111a.2.2,0,0,1,.105-.018l1.646.023H45.78l1.652-.023a.185.185,0,0,1,.117.023.2.2,0,0,1,.018.105l-.023,1.131v1.031l.023,1.98q0,.117-.135.117H46.4q-.129,0-.129-.117V.322H41.427V.8q0,.094-.029.111A.236.236,0,0,1,41.28.932ZM41.427-2.4V-.768h4.846V-2.4Zm-1.271-2.08-1.512.023q-.1,0-.117-.023a.2.2,0,0,1-.018-.105V-5.5q0-.1.023-.117a.219.219,0,0,1,.111-.018l1.512.023h3.059V-7.107H41.152a9.218,9.218,0,0,1-.744.99q-.193.229-.252.229-.076,0-.281-.205a3.792,3.792,0,0,0-.779-.557,7.361,7.361,0,0,0,1.611-2.2,5.077,5.077,0,0,0,.3-.85q.422.123,1.055.363.252.088.252.2,0,.082-.135.193a.761.761,0,0,0-.2.322q-.158.346-.193.41h1.43V-8.5a12.638,12.638,0,0,0-.07-1.547,13.528,13.528,0,0,1,1.354.082q.193.018.193.135a1.008,1.008,0,0,1-.076.24,3.406,3.406,0,0,0-.07.9v.48h1.693l1.629-.023q.123,0,.123.129v.891q0,.129-.123.129l-1.629-.023H44.544v1.494h2.889l1.512-.023a.214.214,0,0,1,.129.023.219.219,0,0,1,.018.111v.914q0,.094-.023.111a.277.277,0,0,1-.123.018l-1.512-.023Zm12.623-.727-1.512.023a.185.185,0,0,1-.117-.023.2.2,0,0,1-.018-.105v-1q0-.094.029-.111a.183.183,0,0,1,.105-.018l1.512.023H60.05l1.512-.023q.094,0,.111.023a.2.2,0,0,1,.018.105v1q0,.094-.023.111a.2.2,0,0,1-.105.018L60.05-5.209H57.086v2.93l.035,1.664a1.839,1.839,0,0,1-.094.668.93.93,0,0,1-.287.387,3.324,3.324,0,0,1-1.828.316h-.123q-.187,0-.24-.082a1.039,1.039,0,0,1-.1-.3A4.2,4.2,0,0,0,54.086-.6a10.388,10.388,0,0,0,1.154.076q.539,0,.539-.445V-5.209Zm1.342-2.865-1.658.023q-.094,0-.111-.023a.2.2,0,0,1-.018-.105v-1q0-.094.023-.111a.2.2,0,0,1,.105-.018l1.658.023h4.605l1.658-.023a.185.185,0,0,1,.117.023.2.2,0,0,1,.018.105v1q0,.094-.029.111a.183.183,0,0,1-.105.018l-1.658-.023ZM50.857-1.043a6.655,6.655,0,0,0,1.922-2.291,3.2,3.2,0,0,0,.311-.961,9.457,9.457,0,0,1,1.16.393q.182.082.182.205,0,.088-.146.229A2.323,2.323,0,0,0,54.009-3a10.128,10.128,0,0,1-1.8,2.531q-.187.193-.287.193t-.3-.205A3.557,3.557,0,0,0,50.857-1.043Zm11.109-.24a4.667,4.667,0,0,0-.744.709q-.205.24-.27.24-.082,0-.258-.193a11.7,11.7,0,0,1-2.2-3.205.227.227,0,0,1-.023-.088q0-.059.152-.129l.744-.311a.323.323,0,0,1,.129-.047q.047,0,.1.105A8.6,8.6,0,0,0,61.966-1.283Zm4.4,2.039H65.291a.176.176,0,0,1-.108-.021.176.176,0,0,1-.021-.108l.023-4.271v-2.32L65.162-9.1a.2.2,0,0,1,.023-.123A.219.219,0,0,1,65.3-9.24l1.652.023h4.119l1.658-.023q.094,0,.111.029a.219.219,0,0,1,.018.111l-.023,2.777v2.666L72.855.563q0,.1-.023.117A.2.2,0,0,1,72.727.7H71.66q-.1,0-.117-.023a.219.219,0,0,1-.018-.111V-.023H66.492v.65q0,.094-.023.111A.2.2,0,0,1,66.363.756Zm.129-1.969h5.033v-2.9H66.492Zm0-6.814v2.736h5.033V-8.027ZM78.061-6.469l-1.535.023q-.094,0-.111-.023a.2.2,0,0,1-.018-.105v-.967q0-.094.023-.111a.2.2,0,0,1,.105-.018l1.535.023h2.795v-.8a11.192,11.192,0,0,0-.082-1.559q.773.018,1.318.082.182.018.182.117,0,.023-.07.316a5.523,5.523,0,0,0-.059,1.008v.838h2.988L86.68-7.67q.094,0,.111.023a.2.2,0,0,1,.018.105v.967q0,.094-.023.111a.2.2,0,0,1-.105.018l-1.547-.023H82.649a10.726,10.726,0,0,0,4.57,4.283,3.506,3.506,0,0,0-.586.867q-.146.287-.229.287a.62.62,0,0,1-.252-.135,11.493,11.493,0,0,1-4.061-4.389q0,.035.041,3.24h.621l1.477-.023q.105,0,.123.023a.159.159,0,0,1,.023.105v.914q0,.088-.023.108a.223.223,0,0,1-.123.021l-1.477-.023h-.6q.006.6.023,1.377.012.551.012.627,0,.123-.135.123H80.944q-.135,0-.135-.123,0-.457.035-2h-.516l-1.477.023q-.094,0-.111-.023a.2.2,0,0,1-.018-.105v-.914q0-.094.023-.111a.2.2,0,0,1,.105-.018l1.477.023h.527Q80.9-3.85,80.9-5.426a11.625,11.625,0,0,1-3.779,4.26.626.626,0,0,1-.281.146q-.094,0-.229-.264a2.694,2.694,0,0,0-.621-.8,10.924,10.924,0,0,0,2.584-1.969,10.844,10.844,0,0,0,1.8-2.414ZM95.143-8.578l-1.512.023a.185.185,0,0,1-.117-.023.2.2,0,0,1-.018-.105V-9.5q0-.1.029-.123a.183.183,0,0,1,.105-.018l1.512.023h2.678l1.523-.023a.185.185,0,0,1,.117.023.258.258,0,0,1,.018.117v.82q0,.094-.029.111a.183.183,0,0,1-.105.018l-1.523-.023H96.509q-.129.709-.223,1.113h.826l1.342-.023q.105,0,.129.029a.236.236,0,0,1,.018.117l-.023.861V-5.1l1.02-.023q.123,0,.123.129v.832q0,.129-.123.129l-1.582-.023H94.856l-1.588.023q-.094,0-.111-.023a.2.2,0,0,1-.018-.105v-.832q0-.094.023-.111a.2.2,0,0,1,.105-.018l1.143.023q.223-.627.434-1.359-.4.006-.721.018l-.229.006a.185.185,0,0,1-.117-.023.2.2,0,0,1-.018-.105v-.779q0-.105.029-.129a.183.183,0,0,1,.105-.018l1.213.023q.164-.744.229-1.113ZM97.4-6.457H96.028q-.264.92-.4,1.359H97.4ZM94.874.961h-.937q-.1,0-.117-.023A.236.236,0,0,1,93.8.82l.023-1.887v-.82l-.023-1.2q0-.1.023-.117a.219.219,0,0,1,.111-.018l1.424.023h2.08l1.43-.023q.094,0,.111.023A.219.219,0,0,1,99-3.082l-.023,1.043v.949L99,.785q0,.094-.023.111a.219.219,0,0,1-.111.018h-.973q-.094,0-.111-.023a.2.2,0,0,1-.018-.105v-.4H95V.82a.2.2,0,0,1-.023.123A.2.2,0,0,1,94.874.961ZM95-2.174V-.633h2.76V-2.174ZM92.893.609a.185.185,0,0,1-.023.117.219.219,0,0,1-.111.018h-.873q-.1,0-.117-.023a.219.219,0,0,1-.018-.111V.287h-1.33V.838A.185.185,0,0,1,90.4.955a.219.219,0,0,1-.111.018h-.873a.214.214,0,0,1-.129-.023.219.219,0,0,1-.018-.111L89.29-.973v-.8L89.266-2.9q0-.1.029-.117a.236.236,0,0,1,.117-.018l1.09.023h1.154l1.1-.023q.1,0,.117.023a.219.219,0,0,1,.018.111l-.023.92v.861ZM91.751-2.016h-1.33V-.7h1.33ZM90.18-7.934h1.605l1.283-.023a.185.185,0,0,1,.117.023.2.2,0,0,1,.018.105v.855q0,.1-.029.123a.183.183,0,0,1-.105.018l-1.283-.023H90.18l-1.289.023q-.082,0-.1-.029a.219.219,0,0,1-.018-.111v-.855q0-.129.117-.129Zm.357-1.641h1.154L92.77-9.6q.105,0,.123.023a.159.159,0,0,1,.023.105v.809q0,.094-.029.111a.236.236,0,0,1-.117.018l-1.078-.023H90.538l-1.09.023a.185.185,0,0,1-.117-.023.2.2,0,0,1-.018-.105v-.809q0-.094.023-.111a.219.219,0,0,1,.111-.018Zm.035,4.939h1.02L92.6-4.658a.214.214,0,0,1,.129.023.219.219,0,0,1,.018.111v.779q0,.088-.029.105a.236.236,0,0,1-.117.018L91.593-3.65h-1.02l-1.02.029q-.129,0-.129-.123v-.779q0-.1.023-.117a.2.2,0,0,1,.105-.018Zm0-1.594h1.02L92.6-6.252a.214.214,0,0,1,.129.023.219.219,0,0,1,.018.111v.768q0,.094-.029.111a.236.236,0,0,1-.117.018l-1.008-.023h-1.02l-1.02.023q-.094,0-.111-.023a.2.2,0,0,1-.018-.105v-.768q0-.1.023-.117a.2.2,0,0,1,.105-.018Zm13.344,2.918a4.725,4.725,0,0,1,.516.047,6.707,6.707,0,0,0,.627-.686h-1.84a12.1,12.1,0,0,1-1.125.627.939.939,0,0,1-.275.094q-.094,0-.252-.275a1.846,1.846,0,0,0-.434-.562,11.741,11.741,0,0,0,2.748-1.658h-.838l-1.512.023q-.123,0-.123-.129v-.744q0-.135.123-.135l1.512.029h.539V-7.687h-.311l-1.166.023a.185.185,0,0,1-.117-.023.219.219,0,0,1-.018-.111v-.756q0-.094.029-.111a.183.183,0,0,1,.105-.018l1.166.023h.311a8.009,8.009,0,0,0-.088-1.324,10.038,10.038,0,0,1,1.131.088q.193.018.193.117a.666.666,0,0,1-.076.252,3.222,3.222,0,0,0-.059.867l1.008-.023a.185.185,0,0,1,.117.023.2.2,0,0,1,.018.105V-7.8q.287-.416.539-.861a4.072,4.072,0,0,0,.334-.82,7.169,7.169,0,0,1,.961.5q.17.105.17.217a.244.244,0,0,1-.123.193,1.254,1.254,0,0,0-.369.422,12.217,12.217,0,0,1-1,1.465l.732-.029a.2.2,0,0,1,.123.023.219.219,0,0,1,.018.111v.744q0,.094-.023.111a.236.236,0,0,1-.117.018l-1.441-.023h-.158a9.706,9.706,0,0,1-.973.867h1.107a.394.394,0,0,0,.205-.041.369.369,0,0,1,.129-.047q.117,0,.375.3.3.328.3.445a.214.214,0,0,1-.146.205,1.12,1.12,0,0,0-.381.3,12.177,12.177,0,0,1-.914.914.18.18,0,0,0-.023.07q1.465-.27,2-.4a5.731,5.731,0,0,0-.082.674.628.628,0,0,1-.082.357.907.907,0,0,1-.328.1q-.756.182-1.547.322v.088l.023,1.213a1.11,1.11,0,0,1-.387.92,1.346,1.346,0,0,1-.562.24,5.917,5.917,0,0,1-.873.047q-.105.006-.164.006-.17,0-.217-.059a.554.554,0,0,1-.076-.223,2.7,2.7,0,0,0-.322-.85,9.289,9.289,0,0,0,.984.059Q104-.217,104-.6v-.879q-.451.076-1.482.205a1.753,1.753,0,0,0-.457.111.381.381,0,0,1-.193.059q-.117,0-.17-.17a6.625,6.625,0,0,1-.252-1.031q.668-.018,1.283-.088t1.26-.141Q103.97-2.93,103.917-3.311Zm1.811-4.354h-.035l-1.008-.023V-6.68h.229A9.094,9.094,0,0,0,105.728-7.664ZM112.5-.334a3.037,3.037,0,0,0-.551.861Q111.81.8,111.728.8a.684.684,0,0,1-.252-.129,11.964,11.964,0,0,1-1.963-1.922A8.491,8.491,0,0,1,106.87.82a.867.867,0,0,1-.3.105q-.105,0-.217-.229a2.516,2.516,0,0,0-.586-.732,7.422,7.422,0,0,0,3.082-2.232,10.123,10.123,0,0,1-.914-2.408l-.164.252q-.088.135-.146.211-.17.205-.229.205t-.252-.217a2.24,2.24,0,0,0-.6-.539,9.562,9.562,0,0,0,1.916-4.271,6.348,6.348,0,0,0,.123-1.008q.416.07,1.09.229.205.064.205.176a.918.918,0,0,1-.117.27,1.863,1.863,0,0,0-.17.539q-.105.5-.287,1.09h1.436l1.418-.023a.185.185,0,0,1,.117.023.2.2,0,0,1,.018.105v.82q0,.094-.029.111a.183.183,0,0,1-.105.018l-.24-.006q-.24-.012-.516-.018a9.283,9.283,0,0,1-1.178,4.465A8.817,8.817,0,0,0,112.5-.334Zm-3.814-5.76a10.124,10.124,0,0,0,.832,2.736,9.389,9.389,0,0,0,.738-3.352h-1.307Q108.78-6.3,108.681-6.094ZM120.255-.316q.68.053,1.143.053a.416.416,0,0,0,.328-.1.458.458,0,0,0,.076-.3v-.48H117V-.6l.023,1.359q0,.094-.023.111a.219.219,0,0,1-.111.018h-.973q-.094,0-.111-.023a.2.2,0,0,1-.018-.105l.023-1.348V-3.645l-.023-1.383a.214.214,0,0,1,.023-.129.219.219,0,0,1,.111-.018l1.652.023h3.674l1.641-.023q.1,0,.117.029a.236.236,0,0,1,.018.117L123-3.551v1.588l.035,1.518a1.34,1.34,0,0,1-.311,1,3.038,3.038,0,0,1-1.693.287A1.02,1.02,0,0,1,120.671.8a.415.415,0,0,1-.105-.24A3.238,3.238,0,0,0,120.255-.316Zm1.547-3.85H117v.627h4.8ZM117-2.033h4.8v-.615H117ZM115.709-7.91l-1.5.023q-.1,0-.117-.023a.2.2,0,0,1-.018-.105v-.8a.2.2,0,0,1,.023-.123.219.219,0,0,1,.111-.018l1.5.023h2.971v-.035a5.927,5.927,0,0,0-.082-1.119q.586,0,1.283.064.182.018.182.117a.359.359,0,0,1-.029.117.719.719,0,0,0-.041.123,2.309,2.309,0,0,0-.064.7v.035h3.17l1.5-.023q.105,0,.123.023a.159.159,0,0,1,.023.105v.809q0,.094-.029.111a.236.236,0,0,1-.117.018l-1.5-.023h-1.113A11.06,11.06,0,0,1,124.2-6.047a.165.165,0,0,1,.059.111q0,.059-.1.152l-.586.527q-.094.088-.141.088a.144.144,0,0,1-.1-.059q-.293-.357-.768-.832-2.777.264-7.131.41a.989.989,0,0,0-.4.07.415.415,0,0,1-.17.047q-.105,0-.141-.158a9.315,9.315,0,0,1-.193-1.078q.516.029.908.029.164,0,.328-.006.445,0,.668-.012a8.951,8.951,0,0,0,.785-1.154Zm5.2.492q-.076-.053-.076-.088t.076-.117l.316-.287h-2.643a13.409,13.409,0,0,1-.779,1.131q1.945-.059,3.744-.17Q121.474-7.014,120.912-7.418ZM131.449.012a8.255,8.255,0,0,0,2.6-1.2,6.122,6.122,0,0,1-.357-.984,9.234,9.234,0,0,1-.252-.926h-1.822a11.24,11.24,0,0,1-.182,1.213l.369-.5q.07-.094.135-.094a.236.236,0,0,1,.105.035,7.284,7.284,0,0,1,1.125.744.127.127,0,0,1,.07.1.212.212,0,0,1-.053.111l-.363.533q-.064.117-.129.117-.035,0-.111-.07a6.406,6.406,0,0,0-1.172-.844A5.193,5.193,0,0,1,130.26.639q-.188.205-.24.205t-.264-.217a2.291,2.291,0,0,0-.621-.5,4.329,4.329,0,0,0,1.354-3.205l-.662.012q-.094,0-.111-.023A.2.2,0,0,1,129.7-3.2V-4q0-.094.023-.111a.2.2,0,0,1,.105-.018l1.646.023h1.764a27.9,27.9,0,0,1-.387-3.551,1.208,1.208,0,0,0-.381.393q-.779,1.02-1.318,1.635l.973-.088q-.064-.205-.17-.463a.317.317,0,0,1-.023-.094q0-.041.141-.1l.316-.123a.316.316,0,0,1,.094-.023q.053,0,.094.111a8.251,8.251,0,0,1,.457,1.488.281.281,0,0,1,.018.082q0,.059-.135.123l-.352.152a.355.355,0,0,1-.117.035q-.053,0-.07-.117l-.064-.322q-.867.135-1.705.223a1,1,0,0,0-.381.1.345.345,0,0,1-.158.059q-.117,0-.152-.158-.076-.3-.17-.85.117.012.311.012.275-.311.832-1.008a9.49,9.49,0,0,0-1.219-1.359.142.142,0,0,1-.07-.105.256.256,0,0,1,.076-.129l.393-.457q.059-.082.105-.082a.182.182,0,0,1,.1.059l.193.176a6.568,6.568,0,0,0,.6-.973,2.534,2.534,0,0,0,.182-.451,4.947,4.947,0,0,1,.832.381.186.186,0,0,1,.105.158q0,.064-.105.129a.784.784,0,0,0-.205.217,10.793,10.793,0,0,1-.8,1.189q.146.158.387.469l.381-.562a2.226,2.226,0,0,0,.229-.48,6.285,6.285,0,0,1,.756.428V-8.2a16.475,16.475,0,0,0-.129-1.846q.521.012,1.113.082.217.023.217.135a.756.756,0,0,1-.07.24,2.4,2.4,0,0,0-.053.65q0,.211.006.7v.053l.428-.521q.082-.076.111-.076a.283.283,0,0,1,.094.064l.146.146a6.232,6.232,0,0,0,.586-.937,2.4,2.4,0,0,0,.193-.457,7.817,7.817,0,0,1,.791.4q.123.076.123.158,0,.064-.105.129a.665.665,0,0,0-.193.217,11.917,11.917,0,0,1-.809,1.131q.17.2.4.492.176-.24.393-.568a3.933,3.933,0,0,0,.3-.6,4.85,4.85,0,0,1,.791.469.2.2,0,0,1,.105.152q0,.094-.135.146a2.724,2.724,0,0,0-.369.4q-.562.738-1.342,1.605.322-.023,1.02-.094l-.205-.457a.321.321,0,0,1-.023-.088q0-.047.141-.105l.4-.158a.357.357,0,0,1,.111-.029q.047,0,.105.117a10.331,10.331,0,0,1,.574,1.5.253.253,0,0,1,.012.064q0,.047-.141.117l-.434.176a.4.4,0,0,1-.123.035q-.059,0-.082-.117l-.094-.346-.926.129a6.021,6.021,0,0,1,.627.48q.082.064.082.117t-.082.111l-.328.275,1.295-.023a.214.214,0,0,1,.129.023A.2.2,0,0,1,137.5-4v.8q0,.088-.023.108a.223.223,0,0,1-.123.021l-1.629-.023h-1.178l.111.375a7.008,7.008,0,0,0,.264.826,5.732,5.732,0,0,0,.551-.6,2.632,2.632,0,0,0,.334-.562,4.461,4.461,0,0,1,.867.469.282.282,0,0,1,.117.182q0,.094-.129.164a1.141,1.141,0,0,0-.352.316,7.234,7.234,0,0,1-.9.961q.422.621.768.621.41,0,.5-1.33a3.108,3.108,0,0,0,.563.357q.316.164.316.3a1.853,1.853,0,0,1-.035.252,2.8,2.8,0,0,1-.463,1.289.885.885,0,0,1-.715.322,2.281,2.281,0,0,1-1.781-1.154A8.846,8.846,0,0,1,132.434.809a1.967,1.967,0,0,1-.287.082q-.111,0-.24-.275A2.258,2.258,0,0,0,131.449.012Zm2.783-5.842.17.012q.416-.48.732-.891a8.4,8.4,0,0,0-1.225-1.365,24.79,24.79,0,0,0,.416,3.973h1.383a5.593,5.593,0,0,0-.6-.5q-.094-.076-.094-.105,0-.047.123-.135l.275-.205-.328.035a1,1,0,0,0-.357.1.492.492,0,0,1-.193.059q-.105,0-.141-.158A5.566,5.566,0,0,1,134.232-5.83ZM126.24-2.965a10.536,10.536,0,0,0,1.453-3.586h-.023l-1.02.023q-.123,0-.123-.129v-.867q0-.117.123-.117l1.031.023h.082v-.844a9.743,9.743,0,0,0-.094-1.582q.621.018,1.125.082.182.023.182.135a1.063,1.063,0,0,1-.047.24,3.923,3.923,0,0,0-.088,1.113v.855l.855-.023q.129,0,.129.117v.867q0,.094-.023.111a.2.2,0,0,1-.105.018l-.246-.006q-.246-.012-.545-.018a6.922,6.922,0,0,0,1,1.957,4.572,4.572,0,0,0-.387.838q-.053.205-.117.205t-.146-.217a7.651,7.651,0,0,1-.445-1.307q.012,2.045.053,4.26.012.5.029,1.236.006.346.006.381,0,.1-.023.117a.219.219,0,0,1-.111.018h-.926q-.117,0-.117-.135,0-.041.012-.809.041-2.391.059-4.371a9.81,9.81,0,0,1-.838,2.279q-.111.205-.17.205t-.117-.193A3.294,3.294,0,0,0,126.24-2.965Zm16.924.984-1.547.023a.185.185,0,0,1-.117-.023.2.2,0,0,1-.018-.105v-.686q0-.1.023-.117a.219.219,0,0,1,.111-.018l1.547.023h.768a6.214,6.214,0,0,0,.047-.7h-.6l-1.488.023a.214.214,0,0,1-.129-.023.219.219,0,0,1-.018-.111v-.686q0-.094.029-.111a.236.236,0,0,1,.117-.018l1.125.023a4.982,4.982,0,0,0-.422-.732.173.173,0,0,1-.047-.1q0-.059.135-.105l.662-.217a.547.547,0,0,1,.123-.029q.053,0,.117.088a8.675,8.675,0,0,1,.6,1.1h.885q.111-.217.328-.721a2.959,2.959,0,0,0,.152-.5q.6.117.984.229.193.064.193.17,0,.064-.1.141a.721.721,0,0,0-.2.24l-.229.445,1.137-.023q.105,0,.123.023a.2.2,0,0,1,.018.105V-3.7q0,.1-.023.117a.236.236,0,0,1-.117.018l-1.488-.023h-.756a5.662,5.662,0,0,1-.059.7h1l1.547-.023q.094,0,.111.023a.219.219,0,0,1,.018.111v.686a.176.176,0,0,1-.021.108.176.176,0,0,1-.108.021L146.03-1.98h-.686A4.906,4.906,0,0,0,147.53-.826a2.971,2.971,0,0,0-.275.4A6.409,6.409,0,0,0,147.9-.4a.577.577,0,0,0,.416-.111.537.537,0,0,0,.088-.352V-5.977h-2.016l-1.33.023q-.094,0-.111-.023a.277.277,0,0,1-.018-.123l.023-.99V-8.566l-.023-1.02q0-.1.023-.117a.2.2,0,0,1,.105-.018l1.33.023h1.787l1.348-.023q.094,0,.111.023a.219.219,0,0,1,.018.111l-.023,1.605v4.957l.035,2.385A1.584,1.584,0,0,1,149.329.48,2.278,2.278,0,0,1,147.887.8a.8.8,0,0,1-.416-.059.593.593,0,0,1-.1-.311,2.49,2.49,0,0,0-.205-.686l-.059.146q-.117.246-.205.246a.794.794,0,0,1-.275-.082,4.749,4.749,0,0,1-2.045-1.547,4.194,4.194,0,0,1-2.32,1.852.886.886,0,0,1-.287.082q-.088,0-.205-.217a2.636,2.636,0,0,0-.539-.686,3.534,3.534,0,0,0,2.426-1.523Zm2.959-4.846H148.4v-.6h-2.279ZM148.4-8.818h-2.279v.586H148.4ZM142.8-9.7l1.207-.023q.123,0,.123.135l-.023,1.1v1.295l.023,1.09a.214.214,0,0,1-.023.129.168.168,0,0,1-.1.018L142.8-5.977h-1.98v4.189l.023,2.578a.185.185,0,0,1-.023.117.2.2,0,0,1-.105.018H139.7a.176.176,0,0,1-.108-.021.191.191,0,0,1-.021-.114l.023-2.578v-5.2l-.023-2.6q0-.1.023-.117a.219.219,0,0,1,.111-.018l1.412.023Zm.129,2.871v-.6h-2.109v.6Zm0-1.992h-2.109v.586h2.109Z" transform="translate(180.583 39)"/>
    <g id="symbol" transform="translate(80 29.701)">
      <path id="パス_331" data-name="パス 331" class="cls-2" d="M74.935,42.09V37.355H68.6c.006-.163.013-.366.013-.574a13.632,13.632,0,0,0-27.265,0c0,.2.007.4.016.574H35.034V42.09H23.494V56.377H86.471V42.09Z" transform="translate(-19.982 -19.693)"/>
      <path id="パス_332" data-name="パス 332" class="cls-3" d="M13.089,19.088V15.754h6.536a16.91,16.91,0,0,1,33.385,0h6.534v4.731H71.086V55.338H1.549V20.485h11.54Zm40.126,0H49.877c.01-.211.015-.422.015-.631a13.574,13.574,0,0,0-27.148,0c0,.209,0,.42.014.631H16.426v4.732H4.883V38H67.749V23.821H56.209V19.088Z" transform="translate(-1.317 -1.318)"/>
      <path id="パス_333" data-name="パス 333" class="cls-4" d="M18.129,14.2H11.54v4.731H0V54.252H70V18.935H58.458V14.2H51.871a17.121,17.121,0,0,0-33.742,0Zm.376.463.031-.195a16.679,16.679,0,0,1,32.928,0l.031.195h6.5V19.4H69.537v34.39H.463V19.4H12V14.667Z"/>
      <path id="パス_334" data-name="パス 334" class="cls-5" d="M49.966,157.211q.39,0,1-.006t1.228-.006q.631,0,1.309-.006t1.366-.006q-.034.439-.063.808t-.046.727q-.017.357-.023.72t-.006.789l-.436.025q-.1-.676-.224-1.14a2.067,2.067,0,0,0-.35-.758,1.247,1.247,0,0,0-.62-.42,3.474,3.474,0,0,0-1.033-.125H50.758v9.835a2.288,2.288,0,0,0,.046.5.585.585,0,0,0,.207.332,1.1,1.1,0,0,0,.488.195,6.5,6.5,0,0,0,.89.087l-.023.451q-.241,0-.545-.007c-.2,0-.411-.006-.626-.006s-.427,0-.637-.006-.408-.006-.591-.006c-.153,0-.32,0-.5.006s-.362.006-.545.006-.367,0-.551.006-.348.007-.494.007l-.034-.426a5.708,5.708,0,0,0,.85-.113.922.922,0,0,0,.482-.251.91.91,0,0,0,.212-.47,4.632,4.632,0,0,0,.052-.771v-9.372H48.164a3.537,3.537,0,0,0-1.039.125,1.313,1.313,0,0,0-.637.42,2.02,2.02,0,0,0-.367.758,10.4,10.4,0,0,0-.23,1.14l-.436-.025v-.789q0-.564-.017-1.078t-.075-1.178q.689,0,1.355.006T48,157.2q.62,0,1.091.006T49.966,157.211Z" transform="translate(-38.582 -133.691)"/>
      <path id="パス_335" data-name="パス 335" class="cls-5" d="M123.408,167.02l1.813-5.913-.453-1.815q-.132-.531-.241-.846a1.447,1.447,0,0,0-.255-.481.746.746,0,0,0-.354-.228,3.194,3.194,0,0,0-.548-.1l.019-.444q.4,0,.873.012t.958.012q.4,0,.8-.012t.8-.012l.028.42a2.512,2.512,0,0,0-.822.185.468.468,0,0,0-.236.457,5.2,5.2,0,0,0,.1.679l1.936,8.086h.019l2.058-7.9a4.9,4.9,0,0,0,.161-.876.44.44,0,0,0-.25-.438,2.9,2.9,0,0,0-.9-.167l.019-.444q.425,0,.859.012t.859.012q.349,0,.722-.012t.722-.012l.028.42a2.882,2.882,0,0,0-.609.117.957.957,0,0,0-.42.284,1.945,1.945,0,0,0-.326.58q-.147.377-.326,1.019-.68,2.42-1.313,4.771t-1.294,4.784l-.567.061q-.453-1.839-.911-3.6t-.864-3.426q-.236.728-.519,1.642t-.567,1.858q-.283.945-.548,1.846t-.463,1.618l-.548.061q-.623-2.53-1.246-4.975t-1.275-4.963q-.132-.531-.246-.846a1.388,1.388,0,0,0-.269-.481.8.8,0,0,0-.382-.228,3.764,3.764,0,0,0-.595-.1l.019-.444q.4,0,.874.012t.958.012q.4,0,.8-.012t.8-.012l.028.42a2.16,2.16,0,0,0-.755.185.467.467,0,0,0-.217.445,1.547,1.547,0,0,0,.033.3q.033.167.08.389l1.936,8.086h.019Z" transform="translate(-101.075 -133.697)"/>
      <path id="パス_336" data-name="パス 336" class="cls-5" d="M277.848,157.57a6.643,6.643,0,0,0-.973.119,1.35,1.35,0,0,0-.578.251.85.85,0,0,0-.278.472,3.346,3.346,0,0,0-.073.767v7.984a3.112,3.112,0,0,0,.066.7.761.761,0,0,0,.264.434,1.231,1.231,0,0,0,.556.22,5.83,5.83,0,0,0,.959.063h.762a6.665,6.665,0,0,0,1.391-.119,2.324,2.324,0,0,0,.915-.4,2.587,2.587,0,0,0,.652-.748q.278-.465.616-1.144l.556.113c-.078.244-.152.5-.219.78s-.132.549-.19.817-.108.52-.146.754a5.786,5.786,0,0,0-.074.578h-2.226q-.967,0-1.669-.007t-1.2-.006q-.5,0-.864-.007t-.644-.006h-.513q-.293,0-.644.006t-.7.007q-.351,0-.666.006t-.52.007l-.044-.427a6.649,6.649,0,0,0,.974-.12,1.347,1.347,0,0,0,.578-.251.847.847,0,0,0,.278-.465,3.294,3.294,0,0,0,.074-.773v-8.461a1.632,1.632,0,0,0-.066-.5.633.633,0,0,0-.264-.333,1.486,1.486,0,0,0-.571-.195,8.374,8.374,0,0,0-1-.088l.044-.452q.234,0,.578.006c.229,0,.477.006.74.006s.533,0,.806.006.527.006.761.006q.278,0,.63-.006t.7-.006q.352,0,.659-.006t.512-.006Z" transform="translate(-231.647 -133.654)"/>
      <path id="パス_337" data-name="パス 337" class="cls-5" d="M351.41,165.528a10.58,10.58,0,0,0,.717,1.159,4.106,4.106,0,0,0,.91.924,4.175,4.175,0,0,0,1.239.616,5.7,5.7,0,0,0,1.7.223,4.448,4.448,0,0,0,1.214-.157,3.272,3.272,0,0,0,.978-.447,2.214,2.214,0,0,0,.658-.682,1.649,1.649,0,0,0,.236-.863,1.7,1.7,0,0,0-.3-1.014,2.712,2.712,0,0,0-.809-.73,6.239,6.239,0,0,0-1.147-.537q-.64-.229-1.314-.447-.759-.241-1.526-.531a6.991,6.991,0,0,1-1.374-.688,3.871,3.871,0,0,1-.995-.918,2,2,0,0,1-.388-1.232,2.217,2.217,0,0,1,.43-1.346,3.468,3.468,0,0,1,1.163-.984,6.271,6.271,0,0,1,1.7-.6,9.961,9.961,0,0,1,2.065-.205,15.662,15.662,0,0,1,1.964.115q.9.115,1.93.308-.05.387-.084.718t-.043.652c-.006.213-.011.43-.017.652s-.008.461-.008.719l-.708.048a2.544,2.544,0,0,0-1.088-1.914,4.429,4.429,0,0,0-2.52-.634,4.38,4.38,0,0,0-1.113.133,2.8,2.8,0,0,0-.877.387,1.945,1.945,0,0,0-.581.6,1.488,1.488,0,0,0-.211.785,1.712,1.712,0,0,0,.261.972,2.378,2.378,0,0,0,.717.682,5.152,5.152,0,0,0,1.054.5q.6.211,1.256.417.809.253,1.627.555a7.785,7.785,0,0,1,1.467.713,3.872,3.872,0,0,1,1.053.954,2.081,2.081,0,0,1,.4,1.28,2.375,2.375,0,0,1-.472,1.455,3.978,3.978,0,0,1-1.248,1.074,6.506,6.506,0,0,1-1.787.67,9.343,9.343,0,0,1-2.074.229,14.5,14.5,0,0,1-1.921-.133q-1-.133-2.107-.362-.118-.8-.287-1.5a14.592,14.592,0,0,0-.455-1.5Z" transform="translate(-298.281 -133.587)"/>
      <path id="パス_338" data-name="パス 338" class="cls-2" d="M26.615,271.322l-.737,0-.289,0-.253,0c-.182,0-.432,0-.69,0l-.394,0h-.063l.006.063c.011.116.018.22.022.31s0,.186,0,.285v.264l.232.012.009-.051a2.511,2.511,0,0,1,.065-.3.467.467,0,0,1,.094-.18.333.333,0,0,1,.158-.095,1.066,1.066,0,0,1,.286-.031h.313v2.435a1.073,1.073,0,0,1-.014.194.178.178,0,0,1-.046.1.221.221,0,0,1-.111.051,1.744,1.744,0,0,1-.239.029l-.059,0,.02.224h.053l.145,0c.106,0,.213,0,.318,0s.2,0,.314,0,.249,0,.366,0l.159,0h.054l.013-.233-.058,0a2,2,0,0,1-.251-.023.275.275,0,0,1-.117-.041.1.1,0,0,1-.038-.056.515.515,0,0,1-.012-.12V271.6H26.2a1.044,1.044,0,0,1,.284.031.312.312,0,0,1,.152.094.479.479,0,0,1,.09.18,2.8,2.8,0,0,1,.064.3l.009.051.232-.012v-.054c0-.075,0-.145,0-.209s0-.127.007-.19.008-.127.014-.2l.023-.266h-.063Z" transform="translate(-20.573 -230.765)"/>
      <path id="パス_339" data-name="パス 339" class="cls-2" d="M47.655,271.335a1.529,1.529,0,0,0-.542-.341,1.943,1.943,0,0,0-.688-.119,1.794,1.794,0,0,0-.7.131,1.581,1.581,0,0,0-.539.366,1.668,1.668,0,0,0-.349.557,1.946,1.946,0,0,0-.124.7,1.853,1.853,0,0,0,.126.7,1.516,1.516,0,0,0,.894.875,1.934,1.934,0,0,0,.687.119,1.8,1.8,0,0,0,.7-.131,1.58,1.58,0,0,0,.539-.366,1.664,1.664,0,0,0,.349-.557,1.945,1.945,0,0,0,.124-.7,1.855,1.855,0,0,0-.126-.7A1.566,1.566,0,0,0,47.655,271.335Zm-1.619,2.618a.945.945,0,0,1-.366-.249,1.354,1.354,0,0,1-.271-.468,2.173,2.173,0,0,1-.107-.73,1.841,1.841,0,0,1,.093-.625,1.146,1.146,0,0,1,.246-.411.908.908,0,0,1,.351-.227,1.257,1.257,0,0,1,.422-.072,1.2,1.2,0,0,1,.409.075.948.948,0,0,1,.366.249,1.351,1.351,0,0,1,.271.468,2.17,2.17,0,0,1,.107.73,1.837,1.837,0,0,1-.093.625,1.149,1.149,0,0,1-.245.412.911.911,0,0,1-.351.227A1.215,1.215,0,0,1,46.037,273.953Z" transform="translate(-38.034 -230.386)"/>
      <path id="パス_340" data-name="パス 340" class="cls-2" d="M75.614,271.319q-.124,0-.257,0c-.193.005-.373,0-.539,0q-.137,0-.261,0H74.5l-.013.231.056,0a.981.981,0,0,1,.249.038c.038.014.038.03.038.038a.228.228,0,0,1-.024.089q-.028.063-.079.157l-.536.968-.556-1.024c-.026-.05-.046-.092-.062-.127a.188.188,0,0,1-.019-.07c0-.008,0-.022.034-.037a.784.784,0,0,1,.229-.039l.058,0-.02-.224h-.053q-.141,0-.286,0c-.213.005-.417,0-.621,0q-.169,0-.309,0h-.067l-.121,0c-.1,0-.212,0-.328,0s-.2,0-.3,0l-.319,0-.12,0h-.053l-.02.229.059,0a.947.947,0,0,1,.2.025c.047.013.06.027.062.031s.006.009,0,.026a.525.525,0,0,1-.061.095q-.083.1-.188.221t-.22.24q-.115.121-.231.237c-.077.077-.15.148-.218.211a.81.81,0,0,1-.163.118.51.51,0,0,1-.091.036v-.878a.939.939,0,0,1,.016-.19.187.187,0,0,1,.046-.095.226.226,0,0,1,.1-.052,1.166,1.166,0,0,1,.2-.03l.053,0v-.224h-.057l-.121,0-.309,0c-.117,0-.2,0-.313,0s-.247,0-.353,0l-.135,0H69.48l-.013.232.058,0a1.653,1.653,0,0,1,.222.023.257.257,0,0,1,.107.041.1.1,0,0,1,.038.057.5.5,0,0,1,.012.119v2.243a1.081,1.081,0,0,1-.014.194.173.173,0,0,1-.044.093.224.224,0,0,1-.1.052,1.269,1.269,0,0,1-.213.03l-.058,0,.02.224h.053l.118,0c.093,0,.2,0,.308,0s.2,0,.314,0,.246,0,.348,0l.131,0h.057V274.4l-.055,0a1.518,1.518,0,0,1-.218-.022.237.237,0,0,1-.1-.04.094.094,0,0,1-.035-.055.585.585,0,0,1-.01-.121v-1.081a.166.166,0,0,1,.1.023.455.455,0,0,1,.106.1q.1.124.222.262t.236.28l.23.277q.111.135.2.251t.159.2a1.235,1.235,0,0,1,.089.133l.017.033.037,0,.1,0c.144,0,.265,0,.4,0,.1,0,.195,0,.28,0h.054l.013-.23-.055,0a1.393,1.393,0,0,1-.179-.026.4.4,0,0,1-.12-.048.765.765,0,0,1-.122-.095q-.067-.062-.166-.165t-.223-.246q-.135-.155-.29-.336t-.313-.374l-.266-.327.224-.228.255-.26q.121-.125.226-.227c.069-.068.128-.124.177-.169a1.926,1.926,0,0,1,.184-.154,1.087,1.087,0,0,1,.172-.1.9.9,0,0,1,.179-.063,1.4,1.4,0,0,1,.194-.03h0l.056,0a1.206,1.206,0,0,1,.2.03.34.34,0,0,1,.124.06.507.507,0,0,1,.1.116q.054.081.13.209.2.326.324.552l.218.386q.065.118.1.2a.906.906,0,0,1,.052.139.6.6,0,0,1,.02.125q0,.067,0,.162v.507a1.091,1.091,0,0,1-.014.194.178.178,0,0,1-.046.1.221.221,0,0,1-.111.051,1.73,1.73,0,0,1-.238.029l-.059,0,.02.224h.053l.145,0c.107,0,.213,0,.319,0s.2,0,.314,0,.249,0,.366,0l.159,0h.054l.013-.233-.058,0a2.006,2.006,0,0,1-.251-.023.274.274,0,0,1-.117-.041.1.1,0,0,1-.038-.056.512.512,0,0,1-.012-.12v-.66c0-.055,0-.1,0-.14a.486.486,0,0,1,.016-.109.979.979,0,0,1,.05-.138q.036-.082.106-.217c.045-.091.11-.211.192-.356s.18-.312.293-.5q.092-.155.157-.251a.687.687,0,0,1,.121-.142.332.332,0,0,1,.13-.068,1.1,1.1,0,0,1,.2-.031l.058,0-.02-.224h-.053Z" transform="translate(-59.084 -230.764)"/>
      <path id="パス_341" data-name="パス 341" class="cls-2" d="M114.19,271.335a1.532,1.532,0,0,0-.542-.341,1.942,1.942,0,0,0-.688-.119,1.793,1.793,0,0,0-.7.131,1.581,1.581,0,0,0-.539.366,1.669,1.669,0,0,0-.349.557,1.947,1.947,0,0,0-.124.7,1.855,1.855,0,0,0,.126.7,1.516,1.516,0,0,0,.894.875,1.933,1.933,0,0,0,.687.119,1.8,1.8,0,0,0,.7-.131,1.581,1.581,0,0,0,.539-.366,1.667,1.667,0,0,0,.349-.557,1.947,1.947,0,0,0,.124-.7,1.856,1.856,0,0,0-.126-.7A1.567,1.567,0,0,0,114.19,271.335Zm-1.619,2.618a.944.944,0,0,1-.366-.249,1.354,1.354,0,0,1-.271-.468,2.171,2.171,0,0,1-.107-.73,1.842,1.842,0,0,1,.093-.625,1.147,1.147,0,0,1,.246-.411.906.906,0,0,1,.351-.227,1.257,1.257,0,0,1,.422-.072,1.2,1.2,0,0,1,.409.075.947.947,0,0,1,.366.249,1.354,1.354,0,0,1,.271.468,2.17,2.17,0,0,1,.107.73,1.841,1.841,0,0,1-.093.625,1.149,1.149,0,0,1-.246.412.907.907,0,0,1-.351.227A1.216,1.216,0,0,1,112.571,273.953Z" transform="translate(-94.624 -230.386)"/>
      <path id="パス_342" data-name="パス 342" class="cls-2" d="M161.678,271.319q-.124,0-.256,0c-.194.005-.37,0-.556,0q-.154,0-.3,0h-.054l-.013.232.057,0a1.223,1.223,0,0,1,.3.042c.042.015.051.037.051.065a.943.943,0,0,1-.053.218l-.673,1.977-.633-2.022a1,1,0,0,1-.035-.169.066.066,0,0,1,.047-.07,1.078,1.078,0,0,1,.273-.046l.058,0-.02-.224h-.053q-.141,0-.283,0c-.208.005-.413,0-.617,0q-.169,0-.309,0h-.054l-.013.23.056,0a1.457,1.457,0,0,1,.186.026.223.223,0,0,1,.1.049.313.313,0,0,1,.075.11,2.269,2.269,0,0,1,.083.222l.154.47-.576,1.437-.638-2.037c-.011-.04-.02-.074-.028-.1a.272.272,0,0,1-.01-.067.064.064,0,0,1,.042-.067.863.863,0,0,1,.249-.046l.057,0-.02-.223h-.053q-.141,0-.283,0c-.208.005-.413,0-.617,0q-.169,0-.309,0h-.054l-.013.23.056,0a1.715,1.715,0,0,1,.2.026.252.252,0,0,1,.11.05.308.308,0,0,1,.079.11,1.98,1.98,0,0,1,.084.222q.23.68.45,1.34t.44,1.342l.014.044.275-.024.013-.035q.07-.193.163-.436t.193-.5q.1-.255.2-.5.065-.16.123-.3c.082.255.168.516.258.778q.161.475.321.971l.014.043.283-.023.012-.035q.233-.657.457-1.292t.463-1.288a2.573,2.573,0,0,1,.112-.269.453.453,0,0,1,.1-.139.3.3,0,0,1,.124-.064,1.234,1.234,0,0,1,.205-.03l.058,0-.02-.224h-.052Z" transform="translate(-133.48 -230.764)"/>
      <path id="パス_343" data-name="パス 343" class="cls-2" d="M192.16,271.335a1.529,1.529,0,0,0-.542-.341,1.941,1.941,0,0,0-.688-.119,1.8,1.8,0,0,0-.7.131,1.581,1.581,0,0,0-.539.366,1.667,1.667,0,0,0-.349.557,1.945,1.945,0,0,0-.124.7,1.852,1.852,0,0,0,.126.7,1.516,1.516,0,0,0,.894.875,1.933,1.933,0,0,0,.687.119,1.8,1.8,0,0,0,.7-.131,1.583,1.583,0,0,0,.539-.366,1.667,1.667,0,0,0,.349-.557,1.949,1.949,0,0,0,.124-.7,1.856,1.856,0,0,0-.126-.7A1.559,1.559,0,0,0,192.16,271.335Zm-.1,1.357a1.84,1.84,0,0,1-.093.625,1.147,1.147,0,0,1-.246.412.91.91,0,0,1-.351.227,1.213,1.213,0,0,1-.831,0,.945.945,0,0,1-.366-.249,1.353,1.353,0,0,1-.271-.468,2.171,2.171,0,0,1-.107-.73,1.84,1.84,0,0,1,.093-.625,1.142,1.142,0,0,1,.246-.411.9.9,0,0,1,.351-.227,1.255,1.255,0,0,1,.422-.072,1.2,1.2,0,0,1,.409.075.948.948,0,0,1,.366.249,1.353,1.353,0,0,1,.271.468A2.175,2.175,0,0,1,192.063,272.692Z" transform="translate(-160.939 -230.386)"/>
      <path id="パス_344" data-name="パス 344" class="cls-2" d="M216.816,274.205a.4.4,0,0,1-.112-.036.31.31,0,0,1-.085-.067c-.03-.033-.065-.078-.105-.133s-.069-.1-.116-.181-.1-.167-.159-.27-.123-.217-.191-.341q-.089-.16-.18-.333a1.143,1.143,0,0,0,.215-.121,1.039,1.039,0,0,0,.217-.208.945.945,0,0,0,.144-.265.933.933,0,0,0,.051-.309.725.725,0,0,0-.11-.411.785.785,0,0,0-.282-.253,1.229,1.229,0,0,0-.38-.126,2.319,2.319,0,0,0-.692-.015,2.689,2.689,0,0,1-.426.016c-.115,0-.229,0-.325,0l-.126,0H214.1l-.013.232.058,0a1.546,1.546,0,0,1,.215.022.228.228,0,0,1,.1.039.108.108,0,0,1,.036.058.511.511,0,0,1,.012.119v2.243a1.1,1.1,0,0,1-.014.194.186.186,0,0,1-.043.094.21.21,0,0,1-.1.051,1.1,1.1,0,0,1-.2.03l-.056,0,.013.224h.054l.115,0c.091,0,.193,0,.293,0l.139,0c.106,0,.215,0,.325,0s.221,0,.328,0h.057v-.234h-.056a1.278,1.278,0,0,1-.231-.02.211.211,0,0,1-.1-.041.087.087,0,0,1-.028-.056,1.085,1.085,0,0,1-.006-.128v-1l.032,0,.067,0h.1a.558.558,0,0,1,.111.009.166.166,0,0,1,.056.021.108.108,0,0,1,.03.029c.012.017.024.036.036.056q.126.216.243.426t.213.388q.1.178.166.312c.046.089.08.157.1.2l.017.035.039,0,.1,0,.1,0c.1,0,.2,0,.31,0s.2,0,.263,0h.054l.013-.23-.055,0Q216.888,274.218,216.816,274.205Zm-.891-2.2a.67.67,0,0,1-.194.539.874.874,0,0,1-.572.167H215v-1.074a.9.9,0,0,1,.006-.113.134.134,0,0,1,.023-.064.108.108,0,0,1,.055-.034.532.532,0,0,1,.145-.016.822.822,0,0,1,.51.145A.528.528,0,0,1,215.926,272.006Z" transform="translate(-182.086 -230.593)"/>
      <path id="パス_345" data-name="パス 345" class="cls-2" d="M236.6,273.747c-.05.118-.1.219-.138.3a.626.626,0,0,1-.135.181.446.446,0,0,1-.185.094,1.261,1.261,0,0,1-.3.03h-.173a1.075,1.075,0,0,1-.207-.016.2.2,0,0,1-.1-.044.152.152,0,0,1-.043-.084.933.933,0,0,1-.014-.176v-2.116a.976.976,0,0,1,.016-.191.183.183,0,0,1,.047-.1.241.241,0,0,1,.106-.052,1.252,1.252,0,0,1,.211-.03l.06,0-.026-.224h-.051l-.118,0c-.093,0-.2,0-.31,0s-.2,0-.314,0-.248,0-.351,0l-.133,0h-.053l-.019.232.059,0a1.6,1.6,0,0,1,.22.023.255.255,0,0,1,.106.041.107.107,0,0,1,.04.059.436.436,0,0,1,.013.117v2.243a.968.968,0,0,1-.016.193.177.177,0,0,1-.047.094.239.239,0,0,1-.106.052,1.293,1.293,0,0,1-.212.03l-.058,0,.02.224h.053l.12,0c.1,0,.2,0,.312,0l.145,0h.116l.146,0c.112,0,.257,0,.471,0l.38,0h.561l0-.054c0-.039.007-.088.016-.148s.02-.127.033-.2.028-.142.043-.215.032-.14.049-.2l.016-.057-.232-.055Z" transform="translate(-199.334 -230.764)"/>
      <path id="パス_346" data-name="パス 346" class="cls-2" d="M254.412,271.461a1.782,1.782,0,0,0-.611-.262,3.278,3.278,0,0,0-1.072-.059,5.693,5.693,0,0,1-.692.015l-.293,0h-.054l-.013.232.058,0a2.047,2.047,0,0,1,.233.021.242.242,0,0,1,.109.039.1.1,0,0,1,.038.06.594.594,0,0,1,.012.133v2.23a1.045,1.045,0,0,1-.014.194.177.177,0,0,1-.046.1.217.217,0,0,1-.106.051,1.475,1.475,0,0,1-.218.029l-.058,0,.02.224h.053l.124,0c.093,0,.2,0,.3,0l.14,0a3.149,3.149,0,0,1,.357.022,3.366,3.366,0,0,0,.369.022,2.288,2.288,0,0,0,.747-.122,1.857,1.857,0,0,0,.624-.356,1.717,1.717,0,0,0,.428-.576,1.846,1.846,0,0,0,.159-.781,1.507,1.507,0,0,0-.162-.726A1.372,1.372,0,0,0,254.412,271.461Zm.018,1.311a1.693,1.693,0,0,1-.1.6,1.283,1.283,0,0,1-.282.45,1.211,1.211,0,0,1-.434.281,1.577,1.577,0,0,1-.568.1.842.842,0,0,1-.258-.03.224.224,0,0,1-.112-.073.218.218,0,0,1-.039-.113c0-.053-.006-.111-.006-.173v-2.3a.047.047,0,0,1,.014-.013.394.394,0,0,1,.091-.043.813.813,0,0,1,.146-.034,1.3,1.3,0,0,1,.188-.013,1.66,1.66,0,0,1,.545.087,1.154,1.154,0,0,1,.714.679A1.576,1.576,0,0,1,254.431,272.772Z" transform="translate(-214.059 -230.596)"/>
      <path id="パス_347" data-name="パス 347" class="cls-2" d="M296.467,271.547l-.019-.224h-.179l-.15,0-.157,0h-.14l-.171,0c-.122,0-.239,0-.341,0l-.131,0h-.054l-.013.232.058,0a1.526,1.526,0,0,1,.212.022.248.248,0,0,1,.1.041.1.1,0,0,1,.038.057.5.5,0,0,1,.011.119v2.77q0,.1,0,.206c0,.067,0,.132-.011.193a.947.947,0,0,1-.032.167.362.362,0,0,1-.058.121.151.151,0,0,1-.073.057.36.36,0,0,1-.294-.03.8.8,0,0,1-.155-.1l-.016-.015h-.044a.393.393,0,0,0-.166.082.224.224,0,0,0-.086.178.257.257,0,0,0,.042.146.3.3,0,0,0,.1.092.42.42,0,0,0,.125.046.634.634,0,0,0,.126.013,1.05,1.05,0,0,0,.385-.072.825.825,0,0,0,.317-.223,1.249,1.249,0,0,0,.252-.419,1.666,1.666,0,0,0,.094-.583v-.1c0-.056,0-.123,0-.2s0-.165,0-.261,0-.2,0-.3,0-.2,0-.291v-1.346a.97.97,0,0,1,.015-.192.176.176,0,0,1,.048-.095.246.246,0,0,1,.107-.053,1.187,1.187,0,0,1,.206-.03Z" transform="translate(-250.563 -230.765)"/>
      <path id="パス_348" data-name="パス 348" class="cls-2" d="M309.656,273.882a.242.242,0,0,1-.109-.049.325.325,0,0,1-.078-.109,2.087,2.087,0,0,1-.088-.224l-.749-2.172c-.024-.073-.051-.154-.078-.242s-.053-.184-.077-.289l-.012-.051-.3.038-.012.032a.992.992,0,0,1-.074.152,1.237,1.237,0,0,0-.089.183l-.923,2.255c-.048.111-.09.2-.126.267a.579.579,0,0,1-.105.145.268.268,0,0,1-.12.066,1.213,1.213,0,0,1-.2.03l-.056,0,.013.224h.054c.083,0,.168,0,.256,0,.194,0,.371,0,.556,0,.1,0,.2,0,.278,0h.053l.019-.232-.059,0a.926.926,0,0,1-.273-.039.063.063,0,0,1-.046-.067.95.95,0,0,1,.063-.219l.243-.62h1.029l.224.671q.02.058.032.106a.263.263,0,0,1,.011.069.06.06,0,0,1-.044.065.922.922,0,0,1-.249.041l-.058,0,.02.224h.053c.094,0,.189,0,.285,0,.212,0,.415,0,.619,0,.112,0,.216,0,.309,0h.053l.019-.23-.058,0A1.714,1.714,0,0,1,309.656,273.882Zm-1.113-1.227h-.806l.439-1.107Z" transform="translate(-260.651 -230.276)"/>
      <path id="パス_349" data-name="パス 349" class="cls-2" d="M332.464,272.111a.932.932,0,0,0-.1-.456.847.847,0,0,0-.277-.3,1.167,1.167,0,0,0-.4-.161,2.428,2.428,0,0,0-.773-.031,3.051,3.051,0,0,1-.433.014c-.115,0-.23,0-.325,0l-.127,0h-.054l-.013.232.058,0a1.543,1.543,0,0,1,.215.022.214.214,0,0,1,.1.04.108.108,0,0,1,.036.058.505.505,0,0,1,.012.119v2.243a1.065,1.065,0,0,1-.014.194.182.182,0,0,1-.043.094.209.209,0,0,1-.1.051,1.092,1.092,0,0,1-.2.03l-.056,0,.013.224h.054l.115,0c.091,0,.193,0,.293,0l.139,0,.356,0q.2,0,.377,0h.054l.013-.234h-.06a1.791,1.791,0,0,1-.276-.021.316.316,0,0,1-.128-.045.086.086,0,0,1-.038-.056.732.732,0,0,1-.009-.125v-.858a1.146,1.146,0,0,0,.113.021,1.6,1.6,0,0,0,.683-.048,1.25,1.25,0,0,0,.391-.2,1.044,1.044,0,0,0,.285-.335A.981.981,0,0,0,332.464,272.111Zm-.568.017a.874.874,0,0,1-.068.369.677.677,0,0,1-.17.232.607.607,0,0,1-.227.124,1.063,1.063,0,0,1-.436.027.963.963,0,0,1-.114-.022v-1.233a.517.517,0,0,1,.009-.1.071.071,0,0,1,.024-.042.179.179,0,0,1,.078-.03.914.914,0,0,1,.172-.012.8.8,0,0,1,.544.169A.664.664,0,0,1,331.9,272.128Z" transform="translate(-280.642 -230.615)"/>
      <path id="パス_350" data-name="パス 350" class="cls-2" d="M352.773,270.831l-.11,0-.268.007c-.164,0-.3,0-.437,0l-.255,0h-.054l-.013.231.056,0c.092.007.163.015.218.024a.211.211,0,0,1,.108.046.184.184,0,0,1,.05.1,1.228,1.228,0,0,1,.017.233v1.791l-2.059-2.429H350l-.193,0c-.138,0-.271,0-.375,0l-.119,0h-.054l-.013.231.056,0c.06,0,.111.01.152.016a.347.347,0,0,1,.092.026.236.236,0,0,1,.062.04.5.5,0,0,1,.061.067.424.424,0,0,1,.047.068.281.281,0,0,1,.026.076.8.8,0,0,1,.014.132c0,.057,0,.132,0,.224v1.67a1.863,1.863,0,0,1-.019.3.28.28,0,0,1-.058.141.194.194,0,0,1-.107.058,2.016,2.016,0,0,1-.214.03l-.043,0v-.01l-.058,0a1.718,1.718,0,0,1-.2-.026.244.244,0,0,1-.109-.049.329.329,0,0,1-.079-.11,2.138,2.138,0,0,1-.087-.224l-.75-2.172q-.037-.109-.078-.242c-.027-.088-.053-.185-.077-.289l-.012-.051-.3.038-.012.032a.984.984,0,0,1-.074.153,1.281,1.281,0,0,0-.089.183l-.923,2.255c-.048.111-.09.2-.126.267a.579.579,0,0,1-.106.146.268.268,0,0,1-.119.066,1.21,1.21,0,0,1-.2.03l-.056,0,.013.224h.054c.083,0,.168,0,.256,0,.194,0,.371,0,.556,0,.1,0,.2,0,.278,0h.053l.02-.232-.059,0a.926.926,0,0,1-.273-.039.063.063,0,0,1-.046-.067.946.946,0,0,1,.063-.219l.242-.62h1.029l.223.671c.013.039.024.074.033.105a.272.272,0,0,1,.011.07.06.06,0,0,1-.044.065.892.892,0,0,1-.249.041l-.058,0,.02.224h.053q.141,0,.284,0c.211,0,.416,0,.619,0,.113,0,.216,0,.31,0h.053l.012-.141.013.145h.053q.117,0,.256,0c.208,0,.4,0,.567,0,.1,0,.182,0,.253,0h.054l.013-.231-.056,0c-.089-.006-.161-.015-.216-.024a.216.216,0,0,1-.107-.046.187.187,0,0,1-.051-.1,1.221,1.221,0,0,1-.017-.233V271.69l1.695,2.011c.064.077.124.153.181.229s.115.155.172.237l.022.03.256-.049v-2.554a1.85,1.85,0,0,1,.019-.3.3.3,0,0,1,.055-.142.184.184,0,0,1,.1-.058,1.627,1.627,0,0,1,.206-.032l.053-.005-.006-.223h-.056Zm-4.829,1.823h-.805l.439-1.108Z" transform="translate(-294.163 -230.276)"/>
      <path id="パス_351" data-name="パス 351" class="cls-2" d="M395.787,273.745c-.051.119-.1.22-.14.3a.659.659,0,0,1-.136.182.432.432,0,0,1-.182.094,1.224,1.224,0,0,1-.3.03h-.243a1.074,1.074,0,0,1-.207-.016.2.2,0,0,1-.1-.044.148.148,0,0,1-.042-.084.894.894,0,0,1-.014-.175v-.944l.485.015c.195.007.4.019.6.037l.061.005.009-.362-.058-.059-1.092.032v-1.094a.442.442,0,0,1,0-.056.281.281,0,0,1,.095-.009H395a1.064,1.064,0,0,1,.262.026.311.311,0,0,1,.147.081.4.4,0,0,1,.09.159,2.1,2.1,0,0,1,.065.279l.009.049.238-.006v-.055q0-.209.013-.394c.007-.124.016-.243.029-.353l.008-.064H395.8q-.643,0-1.06,0l-.546,0-.151,0c-.107,0-.222,0-.333,0l-.146,0h-.053l-.02.232.06,0a1.582,1.582,0,0,1,.22.023.253.253,0,0,1,.106.04.11.11,0,0,1,.04.058.446.446,0,0,1,.013.118v2.243a.965.965,0,0,1-.015.193.165.165,0,0,1-.049.093.267.267,0,0,1-.118.053,1.557,1.557,0,0,1-.238.03l-.059,0,.02.224h.053l.139,0c.109,0,.227,0,.337,0l.14,0,.614,0q.412,0,1.076,0h.054l0-.054c0-.039.008-.088.016-.148s.02-.128.033-.2.028-.142.043-.215.032-.14.049-.2l.016-.058-.235-.054Z" transform="translate(-334.637 -230.762)"/>
      <path id="パス_352" data-name="パス 352" class="cls-2" d="M413.437,272.66a1.484,1.484,0,0,0-.3-.2c-.11-.057-.22-.109-.325-.155q-.128-.056-.246-.114a.877.877,0,0,1-.2-.13.531.531,0,0,1-.128-.171.564.564,0,0,1-.046-.243.492.492,0,0,1,.037-.194.449.449,0,0,1,.1-.148.44.44,0,0,1,.153-.094.583.583,0,0,1,.2-.033.643.643,0,0,1,.458.159.74.74,0,0,1,.2.491l0,.058.25-.024v-.052c0-.071,0-.136,0-.2l0-.18c0-.058,0-.117.008-.177s.01-.127.016-.2l0-.049-.047-.012c-.134-.035-.264-.064-.386-.086a1.9,1.9,0,0,0-.823.027,1.1,1.1,0,0,0-.355.176.875.875,0,0,0-.246.291.851.851,0,0,0-.091.4.77.77,0,0,0,.083.367,1.012,1.012,0,0,0,.209.269,1.36,1.36,0,0,0,.283.2c.1.054.206.1.3.148s.174.081.258.122a1.068,1.068,0,0,1,.215.141.6.6,0,0,1,.146.184.553.553,0,0,1,.054.254.542.542,0,0,1-.042.215.517.517,0,0,1-.117.17.534.534,0,0,1-.174.111.594.594,0,0,1-.219.039.779.779,0,0,1-.313-.057.71.71,0,0,1-.227-.158.986.986,0,0,1-.17-.241,3.3,3.3,0,0,1-.139-.314l-.018-.047-.246.058.015.057c.037.145.067.282.089.409s.041.268.056.41l0,.039.037.011c.148.042.289.076.422.1a2.143,2.143,0,0,0,.39.038,1.409,1.409,0,0,0,.427-.066,1.149,1.149,0,0,0,.372-.195,1,1,0,0,0,.262-.314.9.9,0,0,0,.1-.429.8.8,0,0,0-.087-.38A1,1,0,0,0,413.437,272.66Z" transform="translate(-350.052 -230.387)"/>
      <path id="パス_353" data-name="パス 353" class="cls-2" d="M429.766,273.7l-.019.044c-.051.119-.1.219-.139.3a.65.65,0,0,1-.136.183.431.431,0,0,1-.181.094,1.231,1.231,0,0,1-.3.03h-.243a1.078,1.078,0,0,1-.207-.016.205.205,0,0,1-.1-.044.154.154,0,0,1-.043-.084.92.92,0,0,1-.014-.175v-.944l.486.015c.195.007.4.019.6.037l.061.005.009-.363-.059-.058-1.092.032v-1.094a.409.409,0,0,1,0-.056.286.286,0,0,1,.095-.009h.477a1.065,1.065,0,0,1,.262.026.314.314,0,0,1,.147.081.4.4,0,0,1,.09.159,2.068,2.068,0,0,1,.065.279l.009.049.238-.006v-.055c0-.139.007-.271.013-.394s.017-.239.03-.353l.008-.064h-.065q-.644,0-1.06,0l-.546,0-.151,0c-.107,0-.222,0-.333,0l-.146,0h-.053l-.019.232.059,0a1.592,1.592,0,0,1,.22.023.251.251,0,0,1,.106.041.107.107,0,0,1,.04.059.441.441,0,0,1,.013.117v2.243a.952.952,0,0,1-.016.193.166.166,0,0,1-.049.093.268.268,0,0,1-.118.054,1.562,1.562,0,0,1-.238.03l-.059,0,.019.224h.053l.14,0c.109,0,.228,0,.337,0l.141,0,.614,0q.412,0,1.075,0h.054l0-.054c0-.039.008-.088.016-.148s.02-.127.033-.2.027-.142.043-.215.032-.14.049-.2l.016-.058Z" transform="translate(-363.522 -230.763)"/>
      <path id="パス_354" data-name="パス 354" class="cls-2" d="M76.093,316.116l-.11,0-.268.007c-.163,0-.3,0-.437,0l-.255,0h-.054l-.013.231.056,0c.09.007.163.015.218.025a.211.211,0,0,1,.108.046.184.184,0,0,1,.05.1,1.223,1.223,0,0,1,.017.233v1.791l-2.059-2.429H73.32l-.193,0c-.138,0-.271,0-.374,0l-.12,0h-.054l-.013.231.056,0c.06,0,.111.01.152.016a.347.347,0,0,1,.091.025.248.248,0,0,1,.063.041.487.487,0,0,1,.061.067.439.439,0,0,1,.047.067.284.284,0,0,1,.026.076.821.821,0,0,1,.014.132q0,.086,0,.225v1.67a1.852,1.852,0,0,1-.019.3.284.284,0,0,1-.058.141.194.194,0,0,1-.108.057,2.061,2.061,0,0,1-.214.031l-.043,0v-.01l-.058,0a1.724,1.724,0,0,1-.2-.026.245.245,0,0,1-.109-.049.327.327,0,0,1-.079-.109,2.187,2.187,0,0,1-.088-.224l-.75-2.172q-.037-.109-.078-.242c-.027-.086-.053-.184-.077-.289l-.012-.051-.3.037-.012.032a1.009,1.009,0,0,1-.074.153,1.3,1.3,0,0,0-.089.183l-.923,2.255c-.048.112-.091.2-.126.267a.58.58,0,0,1-.106.146.262.262,0,0,1-.12.066,1.17,1.17,0,0,1-.2.03l-.021,0c.008-.054.017-.11.028-.17s.028-.142.043-.215.032-.14.049-.2l.016-.058-.232-.055-.019.045c-.05.118-.1.219-.138.3a.616.616,0,0,1-.135.181.442.442,0,0,1-.185.094,1.262,1.262,0,0,1-.3.03h-.173a1.1,1.1,0,0,1-.207-.016.205.205,0,0,1-.1-.044.152.152,0,0,1-.043-.084.9.9,0,0,1-.014-.175v-2.116a.972.972,0,0,1,.016-.192.179.179,0,0,1,.047-.1.234.234,0,0,1,.106-.052,1.247,1.247,0,0,1,.212-.03l.06,0-.026-.224h-.051l-.118,0c-.093,0-.2,0-.31,0s-.2,0-.314,0l-.351,0-.133,0h-.052l-.019.232.059,0a1.624,1.624,0,0,1,.22.022.253.253,0,0,1,.106.041.108.108,0,0,1,.04.058.451.451,0,0,1,.013.118v2.243a.96.96,0,0,1-.016.193.177.177,0,0,1-.047.094.237.237,0,0,1-.106.052,1.241,1.241,0,0,1-.212.03l-.058,0,.02.224h.053l.119,0c.1,0,.206,0,.312,0l.146,0h.117l.145,0c.111,0,.257,0,.47,0l.381,0h.561v0h.054q.124,0,.256,0c.193-.005.37,0,.555,0q.154,0,.278,0h.053l.019-.232-.059,0a.912.912,0,0,1-.273-.039.063.063,0,0,1-.046-.067.953.953,0,0,1,.063-.219l.242-.62h1.029l.224.67q.019.059.032.105a.275.275,0,0,1,.011.07.061.061,0,0,1-.044.065.949.949,0,0,1-.249.041l-.058,0,.02.224h.053q.141,0,.285,0c.211-.005.415,0,.619,0q.169,0,.309,0h.053l.012-.141.013.144H72.7c.078,0,.164,0,.256,0,.208-.005.395,0,.567,0l.253,0h.054l.013-.231-.056,0c-.088-.006-.161-.015-.216-.024a.212.212,0,0,1-.106-.046.185.185,0,0,1-.051-.1,1.227,1.227,0,0,1-.017-.233v-1.815l1.695,2.011c.064.077.125.153.182.23s.115.155.172.237l.021.03.257-.049V316.88a1.852,1.852,0,0,1,.019-.3.3.3,0,0,1,.056-.143.185.185,0,0,1,.1-.058,1.633,1.633,0,0,1,.206-.032l.053-.006-.006-.223Zm-4.829,1.823h-.806l.439-1.108Z" transform="translate(-56.874 -268.792)"/>
      <path id="パス_355" data-name="パス 355" class="cls-2" d="M133.645,318.007l-.115,0c-.083,0-.173,0-.277,0s-.187,0-.3,0l-.375,0-.176,0h-.054l-.013.233.059,0a2.731,2.731,0,0,1,.289.023.428.428,0,0,1,.151.045.116.116,0,0,1,.055.059.329.329,0,0,1,.016.113v.66c0,.008,0,.031-.054.059a.829.829,0,0,1-.185.065,1.621,1.621,0,0,1-.214.035q-.1.01-.15.01a1.318,1.318,0,0,1-.57-.116,1.131,1.131,0,0,1-.4-.314,1.365,1.365,0,0,1-.24-.47,2.063,2.063,0,0,1-.081-.585,1.928,1.928,0,0,1,.079-.568,1.158,1.158,0,0,1,.236-.432,1.072,1.072,0,0,1,.4-.278,1.5,1.5,0,0,1,.575-.1,1.173,1.173,0,0,1,.327.044.738.738,0,0,1,.26.133.686.686,0,0,1,.18.225.821.821,0,0,1,.082.321l0,.059.251-.024v-.052q0-.213,0-.4c0-.122.008-.256.021-.4l0-.048-.047-.013c-.068-.018-.143-.035-.226-.051s-.165-.03-.249-.042-.168-.022-.252-.028-.161-.01-.231-.01a2.725,2.725,0,0,0-.776.107,1.835,1.835,0,0,0-.636.329,1.576,1.576,0,0,0-.431.552,1.779,1.779,0,0,0-.157.77,1.706,1.706,0,0,0,.138.694,1.549,1.549,0,0,0,.386.535,1.75,1.75,0,0,0,.586.341,2.2,2.2,0,0,0,.737.12,2.832,2.832,0,0,0,.556-.058c.185-.037.372-.081.555-.131l.051-.014-.009-.052a1.573,1.573,0,0,1-.019-.233c0-.1,0-.2,0-.307V318.6a1.368,1.368,0,0,1,.011-.193.218.218,0,0,1,.036-.1.133.133,0,0,1,.067-.047.7.7,0,0,1,.144-.027l.056-.006-.02-.222h-.052Z" transform="translate(-110.929 -268.903)"/>
      <path id="パス_356" data-name="パス 356" class="cls-2" d="M156.834,316.828l-.007-.223h-.056c-.071,0-.161,0-.268.005-.237.007-.45.005-.649,0l-.283,0h-.054l-.013.231.057,0a2.07,2.07,0,0,1,.259.029.29.29,0,0,1,.135.057.2.2,0,0,1,.062.11,1,1,0,0,1,.02.223v1.4a1.214,1.214,0,0,1-.071.441.811.811,0,0,1-.188.293.709.709,0,0,1-.269.163,1.078,1.078,0,0,1-.651,0,.817.817,0,0,1-.279-.149.732.732,0,0,1-.2-.26.915.915,0,0,1-.075-.387v-1.543a.906.906,0,0,1,.017-.192.205.205,0,0,1,.053-.1.247.247,0,0,1,.114-.058,1.292,1.292,0,0,1,.223-.032l.058,0-.02-.224H154.7l-.133,0c-.1,0-.214,0-.323,0s-.211,0-.324,0-.248,0-.36,0l-.143,0h-.054l-.013.232.058,0a1.424,1.424,0,0,1,.23.025.29.29,0,0,1,.115.047.12.12,0,0,1,.044.065.489.489,0,0,1,.013.122v1.78a1.1,1.1,0,0,0,.1.489,1.013,1.013,0,0,0,.274.346,1.154,1.154,0,0,0,.391.2,1.585,1.585,0,0,0,.456.066,1.71,1.71,0,0,0,.474-.067,1.19,1.19,0,0,0,.423-.221,1.138,1.138,0,0,0,.3-.391,1.322,1.322,0,0,0,.116-.578v-1.41a1.517,1.517,0,0,1,.019-.272.235.235,0,0,1,.059-.126.227.227,0,0,1,.118-.057c.06-.012.138-.022.232-.031Z" transform="translate(-130.43 -269.281)"/>
      <path id="パス_357" data-name="パス 357" class="cls-2" d="M178.461,319.168a.244.244,0,0,1-.109-.049.327.327,0,0,1-.079-.109,2.125,2.125,0,0,1-.087-.224l-.75-2.173q-.037-.109-.078-.242c-.027-.087-.053-.184-.077-.289l-.012-.051-.3.037-.012.032a.98.98,0,0,1-.074.153,1.292,1.292,0,0,0-.089.183l-.923,2.255c-.048.112-.091.2-.126.267a.576.576,0,0,1-.106.146.264.264,0,0,1-.12.066,1.168,1.168,0,0,1-.2.03l-.056,0,.013.224h.054c.083,0,.168,0,.257,0,.193-.005.37,0,.555,0l.278,0h.053l.019-.232-.059,0a.914.914,0,0,1-.273-.039.063.063,0,0,1-.046-.067.952.952,0,0,1,.063-.219l.242-.62h1.029l.224.67q.02.059.032.105a.275.275,0,0,1,.011.07.061.061,0,0,1-.044.065.949.949,0,0,1-.25.041l-.058,0,.02.224h.053q.141,0,.285,0c.211-.005.415,0,.619,0q.169,0,.309,0h.053l.019-.23-.058,0A1.7,1.7,0,0,1,178.461,319.168Zm-1.113-1.228h-.806l.439-1.108Z" transform="translate(-149.067 -268.793)"/>
      <path id="パス_358" data-name="パス 358" class="cls-2" d="M202.1,318.007l-.115,0c-.084,0-.173,0-.277,0s-.187,0-.3,0l-.375,0-.176,0H200.8l-.013.233.059,0a2.718,2.718,0,0,1,.289.023.429.429,0,0,1,.151.045.116.116,0,0,1,.055.059.329.329,0,0,1,.016.113v.66c0,.008,0,.031-.054.059a.827.827,0,0,1-.185.065,1.6,1.6,0,0,1-.214.035q-.1.01-.15.01a1.318,1.318,0,0,1-.57-.116,1.128,1.128,0,0,1-.4-.314,1.365,1.365,0,0,1-.24-.47,2.064,2.064,0,0,1-.081-.585,1.928,1.928,0,0,1,.079-.568,1.16,1.16,0,0,1,.236-.432,1.072,1.072,0,0,1,.4-.278,1.5,1.5,0,0,1,.575-.1,1.173,1.173,0,0,1,.327.044.74.74,0,0,1,.26.133.684.684,0,0,1,.18.225.821.821,0,0,1,.082.321l0,.059.251-.024v-.052q0-.213,0-.4c0-.122.008-.256.021-.4l0-.048-.047-.013c-.068-.018-.143-.035-.226-.051s-.165-.03-.249-.042-.168-.022-.252-.028-.161-.01-.231-.01a2.727,2.727,0,0,0-.776.107,1.835,1.835,0,0,0-.636.329,1.573,1.573,0,0,0-.431.552,1.779,1.779,0,0,0-.157.77,1.707,1.707,0,0,0,.138.694,1.547,1.547,0,0,0,.386.535,1.749,1.749,0,0,0,.586.341,2.2,2.2,0,0,0,.738.12,2.834,2.834,0,0,0,.556-.058c.185-.037.372-.081.555-.131l.051-.014-.009-.052a1.575,1.575,0,0,1-.019-.233c0-.1,0-.2,0-.307V318.6a1.354,1.354,0,0,1,.011-.193.221.221,0,0,1,.036-.1.134.134,0,0,1,.067-.047.706.706,0,0,1,.144-.027l.056-.006-.02-.222H202.1Z" transform="translate(-169.15 -268.903)"/>
      <path id="パス_359" data-name="パス 359" class="cls-2" d="M224.372,319.032c-.052.121-.1.219-.14.3a.658.658,0,0,1-.136.182.428.428,0,0,1-.181.094,1.23,1.23,0,0,1-.3.03h-.243a1.092,1.092,0,0,1-.207-.016.2.2,0,0,1-.1-.044.15.15,0,0,1-.042-.084.9.9,0,0,1-.014-.175v-.944l.486.015c.195.007.395.019.6.037l.061.005.009-.362-.058-.058-1.092.032v-1.094a.353.353,0,0,1,0-.056.276.276,0,0,1,.095-.009h.477a1.07,1.07,0,0,1,.262.026.31.31,0,0,1,.147.081.4.4,0,0,1,.09.159,2.086,2.086,0,0,1,.065.279l.009.049.238-.006v-.055q0-.209.013-.395c.007-.122.017-.24.03-.353l.008-.064h-.065q-.643,0-1.06,0l-.546,0-.151,0-.333,0-.146,0h-.053l-.019.232.06,0a1.6,1.6,0,0,1,.22.022.258.258,0,0,1,.106.041.11.11,0,0,1,.04.058.453.453,0,0,1,.013.118v2.243a.974.974,0,0,1-.015.193.167.167,0,0,1-.049.093.265.265,0,0,1-.118.053,1.5,1.5,0,0,1-.237.03l-.059,0,.02.225h.053l.139,0c.109,0,.228,0,.337,0l.141,0,.614,0q.412,0,1.075,0h.054l0-.054c0-.039.008-.088.016-.148s.02-.127.033-.2.028-.142.043-.215.032-.14.049-.2l.016-.058-.235-.054Z" transform="translate(-188.845 -269.28)"/>
      <path id="パス_360" data-name="パス 360" class="cls-2" d="M264.314,317.945a1.475,1.475,0,0,0-.3-.2c-.11-.057-.22-.109-.325-.155-.086-.037-.168-.075-.246-.114a.884.884,0,0,1-.2-.129.531.531,0,0,1-.128-.17.567.567,0,0,1-.046-.243.488.488,0,0,1,.037-.194.45.45,0,0,1,.1-.148.44.44,0,0,1,.153-.094.581.581,0,0,1,.2-.033.643.643,0,0,1,.459.159.74.74,0,0,1,.2.491l0,.058.25-.024v-.052c0-.071,0-.136,0-.2l0-.18q0-.087.008-.177t.016-.2l0-.048-.047-.012c-.135-.035-.265-.064-.386-.086a1.9,1.9,0,0,0-.823.027,1.1,1.1,0,0,0-.355.176.875.875,0,0,0-.246.291.85.85,0,0,0-.091.4.77.77,0,0,0,.084.367,1,1,0,0,0,.208.269,1.349,1.349,0,0,0,.284.2c.1.054.2.1.3.148s.174.08.258.122a1.071,1.071,0,0,1,.215.141.6.6,0,0,1,.146.184.549.549,0,0,1,.054.253.543.543,0,0,1-.042.216.514.514,0,0,1-.117.17.532.532,0,0,1-.174.111.594.594,0,0,1-.219.039.778.778,0,0,1-.313-.057.711.711,0,0,1-.227-.158.985.985,0,0,1-.17-.241,3.254,3.254,0,0,1-.139-.314l-.018-.047-.246.059.015.057c.037.143.067.281.089.409s.041.267.056.41l0,.039.037.011c.146.042.288.076.422.1a2.145,2.145,0,0,0,.39.038,1.409,1.409,0,0,0,.427-.066,1.158,1.158,0,0,0,.372-.195,1,1,0,0,0,.261-.315.9.9,0,0,0,.1-.428.8.8,0,0,0-.087-.38A.988.988,0,0,0,264.314,317.945Z" transform="translate(-223.218 -268.903)"/>
      <path id="パス_361" data-name="パス 361" class="cls-2" d="M281.626,318.5a3.184,3.184,0,0,1-.172.358.979.979,0,0,1-.2.247.712.712,0,0,1-.27.151,1.127,1.127,0,0,1-.328.048,1.217,1.217,0,0,1-.548-.116,1.108,1.108,0,0,1-.385-.314,1.363,1.363,0,0,1-.232-.47,2.136,2.136,0,0,1-.078-.586,1.789,1.789,0,0,1,.086-.567,1.19,1.19,0,0,1,.248-.433,1.117,1.117,0,0,1,.4-.279,1.475,1.475,0,0,1,.565-.1.986.986,0,0,1,.3.042.614.614,0,0,1,.389.349.935.935,0,0,1,.073.322l0,.059.251-.024v-.052q0-.213.005-.4c0-.126.011-.261.025-.4l0-.048-.047-.012a3.375,3.375,0,0,0-.439-.085,3.467,3.467,0,0,0-.442-.031,2.677,2.677,0,0,0-.763.107,1.885,1.885,0,0,0-.641.328,1.6,1.6,0,0,0-.441.551,1.883,1.883,0,0,0-.028,1.464,1.554,1.554,0,0,0,.376.534,1.693,1.693,0,0,0,.569.342,2.072,2.072,0,0,0,.715.12,3.2,3.2,0,0,0,.528-.044,4.63,4.63,0,0,0,.528-.122l.037-.011,0-.038c.015-.145.034-.283.056-.409s.052-.263.089-.409l.015-.056-.238-.06Z" transform="translate(-237.154 -268.901)"/>
      <path id="パス_362" data-name="パス 362" class="cls-2" d="M304.5,319.662a.224.224,0,0,1-.1-.04.107.107,0,0,1-.036-.058.511.511,0,0,1-.012-.12V317.2a1.058,1.058,0,0,1,.014-.193.183.183,0,0,1,.043-.1.206.206,0,0,1,.1-.051,1.074,1.074,0,0,1,.2-.03l.056,0-.013-.224h-.054l-.115,0c-.087,0-.188,0-.293,0s-.2,0-.308,0l-.335,0-.129,0h-.054l-.013.232.058,0a1.46,1.46,0,0,1,.211.022.22.22,0,0,1,.1.04.1.1,0,0,1,.034.056.59.59,0,0,1,.01.121v.942h-1.668V317.2a1.225,1.225,0,0,1,.013-.194.179.179,0,0,1,.041-.094.207.207,0,0,1,.094-.051,1.047,1.047,0,0,1,.2-.03l.058,0-.02-.224H302.4l-.143,0h-.607l-.17,0h-.2l-.013.232.058,0a1.559,1.559,0,0,1,.215.022.23.23,0,0,1,.1.039.109.109,0,0,1,.036.058.521.521,0,0,1,.012.12v2.239a1.069,1.069,0,0,1-.014.194.18.18,0,0,1-.043.095.2.2,0,0,1-.1.051,1.069,1.069,0,0,1-.2.03l-.056,0,.013.224h.054l.115,0c.091,0,.194,0,.293,0,.115,0,.2,0,.308,0l.335.007.13,0h.054l.013-.232-.058,0a1.452,1.452,0,0,1-.211-.022.22.22,0,0,1-.1-.04.1.1,0,0,1-.034-.056.583.583,0,0,1-.01-.121v-1.112h1.668v.989a1.219,1.219,0,0,1-.013.2.171.171,0,0,1-.041.093.205.205,0,0,1-.094.051,1.024,1.024,0,0,1-.2.03l-.058,0,.02.224h.053l.113,0c.087,0,.187,0,.287,0s.2,0,.309,0,.238,0,.34,0l.132,0h.054l.013-.232-.058,0A1.571,1.571,0,0,1,304.5,319.662Z" transform="translate(-256.235 -269.28)"/>
      <path id="パス_363" data-name="パス 363" class="cls-2" d="M329.665,316.619a1.537,1.537,0,0,0-.541-.341,1.941,1.941,0,0,0-.689-.119,1.794,1.794,0,0,0-.7.131,1.579,1.579,0,0,0-.539.367,1.67,1.67,0,0,0-.349.557,1.949,1.949,0,0,0-.124.7,1.853,1.853,0,0,0,.126.7,1.516,1.516,0,0,0,.894.875,1.932,1.932,0,0,0,.687.119,1.794,1.794,0,0,0,.7-.131,1.582,1.582,0,0,0,.539-.367,1.664,1.664,0,0,0,.349-.557,1.946,1.946,0,0,0,.124-.7,1.86,1.86,0,0,0-.126-.7A1.566,1.566,0,0,0,329.665,316.619Zm-.1,1.357a1.844,1.844,0,0,1-.093.625,1.15,1.15,0,0,1-.245.412.915.915,0,0,1-.352.227,1.218,1.218,0,0,1-.831,0,.945.945,0,0,1-.366-.249,1.35,1.35,0,0,1-.271-.469,2.16,2.16,0,0,1-.107-.73,1.839,1.839,0,0,1,.093-.625,1.15,1.15,0,0,1,.246-.411.907.907,0,0,1,.351-.227,1.262,1.262,0,0,1,.422-.072,1.2,1.2,0,0,1,.409.075.948.948,0,0,1,.366.249,1.352,1.352,0,0,1,.271.468A2.162,2.162,0,0,1,329.567,317.976Z" transform="translate(-277.891 -268.902)"/>
      <path id="パス_364" data-name="パス 364" class="cls-2" d="M354.682,316.619a1.538,1.538,0,0,0-.542-.341,1.941,1.941,0,0,0-.689-.119,1.794,1.794,0,0,0-.7.131,1.583,1.583,0,0,0-.539.367,1.673,1.673,0,0,0-.349.557,1.955,1.955,0,0,0-.124.7,1.852,1.852,0,0,0,.126.7,1.518,1.518,0,0,0,.894.875,1.931,1.931,0,0,0,.687.119,1.794,1.794,0,0,0,.7-.131,1.583,1.583,0,0,0,.539-.367,1.673,1.673,0,0,0,.349-.557,1.955,1.955,0,0,0,.124-.7,1.854,1.854,0,0,0-.126-.7A1.571,1.571,0,0,0,354.682,316.619Zm-.1,1.357a1.846,1.846,0,0,1-.093.625,1.149,1.149,0,0,1-.245.412.915.915,0,0,1-.351.227,1.218,1.218,0,0,1-.831,0,.945.945,0,0,1-.366-.249,1.354,1.354,0,0,1-.271-.468,2.17,2.17,0,0,1-.107-.73,1.844,1.844,0,0,1,.093-.625,1.152,1.152,0,0,1,.245-.411.912.912,0,0,1,.352-.227,1.26,1.26,0,0,1,.422-.072,1.2,1.2,0,0,1,.408.075.945.945,0,0,1,.366.249,1.353,1.353,0,0,1,.271.469A2.168,2.168,0,0,1,354.585,317.976Z" transform="translate(-299.168 -268.902)"/>
      <path id="パス_365" data-name="パス 365" class="cls-2" d="M378.733,318.988l-.019.045c-.05.117-.1.218-.138.3a.623.623,0,0,1-.135.181.442.442,0,0,1-.185.094,1.262,1.262,0,0,1-.3.03h-.173a1.094,1.094,0,0,1-.207-.016.2.2,0,0,1-.1-.044.154.154,0,0,1-.043-.084.911.911,0,0,1-.014-.176V317.2a.979.979,0,0,1,.015-.192.182.182,0,0,1,.047-.1.233.233,0,0,1,.106-.052,1.254,1.254,0,0,1,.212-.03l.06,0-.026-.224h-.051l-.118,0c-.093,0-.2,0-.31,0s-.2,0-.314,0-.248,0-.351,0l-.133,0H376.5l-.019.232.059,0a1.629,1.629,0,0,1,.22.022.253.253,0,0,1,.106.041.108.108,0,0,1,.04.059.439.439,0,0,1,.013.117v2.243a.957.957,0,0,1-.015.193.179.179,0,0,1-.047.094.234.234,0,0,1-.106.052,1.237,1.237,0,0,1-.211.03l-.058,0,.02.224h.053l.119,0c.1,0,.205,0,.312,0l.146,0h.117l.145,0c.111,0,.257,0,.47,0l.381,0h.561l0-.054c0-.039.008-.088.016-.148s.02-.127.033-.2.028-.142.043-.215.032-.14.049-.2l.016-.058Z" transform="translate(-320.207 -269.281)"/>
      <path id="パス_366" data-name="パス 366" class="cls-5" d="M207.058,77.415h-8.1c-.232,0-.434-.007-.6-.007v.007h-3.5v.7H198.8a6.859,6.859,0,0,1,.746.1,1.709,1.709,0,0,1,.719.289.885.885,0,0,1,.327.495,3.143,3.143,0,0,1,.075.746V95.248q0,.578-.01,1.157t-.065,1.11a5.836,5.836,0,0,1-.186.989,2.312,2.312,0,0,1-.373.774,1.162,1.162,0,0,1-.56.439,2.027,2.027,0,0,1-.691.122,2.548,2.548,0,0,1-1.213-.308,4.764,4.764,0,0,1-.933-.625h-.056a1.866,1.866,0,0,0-.793.392.928.928,0,0,0-.364.747,1.1,1.1,0,0,0,.177.634,1.352,1.352,0,0,0,.457.42,2.05,2.05,0,0,0,.607.224,3.269,3.269,0,0,0,.644.065,5.5,5.5,0,0,0,2.034-.382,4.279,4.279,0,0,0,1.661-1.166,6.634,6.634,0,0,0,1.344-2.24,8.974,8.974,0,0,0,.5-3.153v-.56q0-.466-.009-1.129t-.009-1.465q0-.839-.009-1.67t-.009-1.633V80.45a5.7,5.7,0,0,1,.093-1.138,1.281,1.281,0,0,1,.364-.7,1.681,1.681,0,0,1,.737-.373,5.459,5.459,0,0,1,.694-.126h2.354v-.7Z" transform="translate(-165.733 -65.838)"/>
    </g>
  </g>
</svg>
