<svg xmlns="http://www.w3.org/2000/svg" width="373.332" height="54.235" viewBox="0 0 373.332 54.235">
  <g id="lead" transform="translate(158.105 469.361)">
    <path id="パス_1162" data-name="パス 1162" d="M-150.8-451.634a.7.7,0,0,0,.778.075l.9-.3q.4-.2.828-.4a4.264,4.264,0,0,1,.879-.3,6.382,6.382,0,0,1,.853-.4.345.345,0,0,1,.226-.026.336.336,0,0,0,.226-.024,2.939,2.939,0,0,0,.753-.3,6.951,6.951,0,0,1,.7-.352q3.06-1,6.148-2.158a63.54,63.54,0,0,1,6.4-2.007q1.706-.4,3.388-.778t3.388-.778q2.157-.551,4.366-.954A34.32,34.32,0,0,0-116.7-461.4q.853-.15,1.606-.326t1.506-.376a3.3,3.3,0,0,0,.552-.05,2.583,2.583,0,0,0,.552-.151q.753-.15,1.531-.351a12.754,12.754,0,0,1,1.58-.3,3.778,3.778,0,0,1,.6-.05h.552a.622.622,0,0,0,.226-.049.614.614,0,0,1,.226-.05,1.414,1.414,0,0,1,.527-.1,1.4,1.4,0,0,0,.526-.1c.033-.033.033-.075,0-.126s-.017-.092.05-.125c.134,0,.183-.008.151-.025s-.034-.058,0-.126a.2.2,0,0,1,.226-.05.194.194,0,0,0,.226-.05.528.528,0,0,0-.2-.351.335.335,0,0,1-.15-.3.275.275,0,0,1,.175-.276c.117-.05.158-.158.126-.326a2.224,2.224,0,0,0-1.2-.7,3.834,3.834,0,0,0-.627-.05,1.953,1.953,0,0,1-.627-.1,13.559,13.559,0,0,0-1.406-.025,11.751,11.751,0,0,0-1.355.126c-.234.033-.445.067-.628.1s-.36.067-.526.1q-1.607.2-3.137.4t-2.986.5a.935.935,0,0,1-.427.1,1.767,1.767,0,0,0-.427.05,6.991,6.991,0,0,0-1,.175q-.5.125-.953.226h-.277a1.053,1.053,0,0,0-.326.05.339.339,0,0,1-.3.151.63.63,0,0,1-.276.05h-.326a1.342,1.342,0,0,0-.452.175c-.134.084-.234.092-.3.025a.456.456,0,0,1-.326.151,2.3,2.3,0,0,0-.427.049,1.29,1.29,0,0,0-.452.075c-.134.05-.251.092-.351.126q-.8.2-1.455.326a9.291,9.291,0,0,0-1.356.376l-1.054.251a2.689,2.689,0,0,0-.652.15,2.836,2.836,0,0,1-.5.151c-.435.1-.836.193-1.2.276a9.265,9.265,0,0,0-1.1.326q-1,.252-2.007.552t-1.958.652q-2.559.8-5.019,1.731t-4.968,1.833q-1.2.4-2.46.853a19.246,19.246,0,0,0-2.409,1.055,2.705,2.705,0,0,0-.2,1.179,3.2,3.2,0,0,0,.251,1.33A1.532,1.532,0,0,0-150.8-451.634Z" transform="translate(-1.231 -0.645)" fill="#ffed56"/>
    <path id="パス_1163" data-name="パス 1163" d="M-120.641-438.826c-.05-.033-.042-.067.025-.1a1.218,1.218,0,0,0,.527-.35,1.3,1.3,0,0,1,.476-.351,1.213,1.213,0,0,0-.125-.327.417.417,0,0,1-.025-.326c-.034.034-.042,0-.025-.1a.416.416,0,0,0-.075-.3h-.2a.612.612,0,0,1-.251-.15,1.649,1.649,0,0,0-.251-.2q-.4,0-1.079.025a5.572,5.572,0,0,0-1.079.126q-1.306.2-2.71.526t-2.61.678c-.168.033-.6.126-1.305.276s-1.447.326-2.232.526-1.515.385-2.184.552a3.208,3.208,0,0,0-1.054.351,17.9,17.9,0,0,0-2.233.778q-1.129.477-2.233.929a12.33,12.33,0,0,0-2.133.728q-1.081.477-2.083.928-.5.252-1.18.527a2.436,2.436,0,0,0-1.079.828l-.251.451q-.252,0-.251.3a1.051,1.051,0,0,0,.151.552.4.4,0,0,0,.376.351,2.471,2.471,0,0,0,.778-.025,5.959,5.959,0,0,0,.9-.226l.753-.251,1.957-.5.251-.05c0,.067-.018.1-.05.1a.45.45,0,0,0,.3-.252,3.3,3.3,0,0,0,.929-.2c.251-.1.476-.183.677-.251a3.64,3.64,0,0,0,.677-.327,3.19,3.19,0,0,1,.778-.326l2.058-.7q2.258-.651,4.141-1.2t4.24-1.254q1.706-.4,3.337-.8t3.388-.9C-120.582-438.776-120.59-438.793-120.641-438.826Z" transform="translate(-2.235 -5.347)" fill="#ffed56"/>
    <path id="パス_1164" data-name="パス 1164" d="M-147.167-437.087q.125-.275.276-.677a3.938,3.938,0,0,0,.7-1.456.565.565,0,0,0,.15-.1.6.6,0,0,1,.151-.1c-.034-.067-.034-.117,0-.15a.064.064,0,0,0,0-.1q.249-.4.451-.728a6.65,6.65,0,0,0,.4-.778,10.452,10.452,0,0,0,1.581-2.961,30.239,30.239,0,0,1,1.33-3.212,6.994,6.994,0,0,1,.527-.753q.175-.2.075-.9a6.6,6.6,0,0,0-.853-.979,1.954,1.954,0,0,0-1.255-.526,1.693,1.693,0,0,0-.326.025.365.365,0,0,1-.276-.075,1.69,1.69,0,0,0-.577.276q-.226.176-.477.376a.563.563,0,0,1-.025.175.225.225,0,0,0,.025.176q-.3.7-.628,1.38t-.677,1.33a.1.1,0,0,0,.025.075.2.2,0,0,1,.025.126q-1.757,3.413-3.312,6.825t-3.312,6.775a2.863,2.863,0,0,1-.326,1.079q-.275.527-.527,1.079-.7,1.455-1.355,2.912t-1.2,2.911a1.755,1.755,0,0,0-.251.5,4.634,4.634,0,0,1-.251.6l-.351.9q-.35.853-.577,1.605a2.22,2.22,0,0,0,.075,1.506l.4-.2a.329.329,0,0,1,.351,0v-.2c.168-.033.268-.008.3.075a.2.2,0,0,0,.2.126q.2.151.9-.527a3.265,3.265,0,0,0,.9-1.882,1,1,0,0,0,.327-.251q.125-.151.075-.251a2.735,2.735,0,0,0,.251-.4l.2-.4a.307.307,0,0,1,.126-.075.228.228,0,0,0,.126-.126.76.76,0,0,0,.2-.326,2.239,2.239,0,0,1,.15-.376,13.6,13.6,0,0,0,.778-1.2,7.713,7.713,0,0,0,.578-1.2,6.787,6.787,0,0,0,.7-1.23q.3-.678.6-1.381.451-.853.9-1.781t.9-1.932l1.405-3.011A2.617,2.617,0,0,0-147.167-437.087Z" transform="translate(0 -3.549)" fill="#ffed56"/>
    <path id="パス_1165" data-name="パス 1165" d="M-84.546-440.435q.5-.9.627-1.2t.026-.326a.464.464,0,0,0-.277.05c-.118.05-.193.042-.226-.025.067-.1.075-.142.025-.126a1.57,1.57,0,0,0-.176.075c-.067-.1-.285-.016-.652.251a11.783,11.783,0,0,0-1.2,1.03q-.652.628-1.255,1.229l-.8.8a6.435,6.435,0,0,0-.8.853,6.434,6.434,0,0,1-.8.853,9.509,9.509,0,0,1-1.506,1.58,20.457,20.457,0,0,1-2.183,1.682,12.851,12.851,0,0,1-2.008,1.129q-.879.376-.978-.126a17.362,17.362,0,0,1,.6-1.958q.4-1.1.652-1.957a.082.082,0,0,1,.05-.075c.033-.017.05-.058.05-.126a.625.625,0,0,0,.05-.276.575.575,0,0,1,.1-.326c0-.067.007-.1.024-.1s.042-.033.075-.1l.2-.5.2-.5c.1,0,.151-.016.151-.05a.5.5,0,0,1,.075-.3.4.4,0,0,0,.075-.251.51.51,0,0,0-.125-.3c-.05-.032-.143-.083-.276-.15a1.531,1.531,0,0,1-.251-.2.632.632,0,0,0-.251-.15q-.7-.3-1.029.15a6.231,6.231,0,0,1-.628.754,6.458,6.458,0,0,1-.226.727,5.023,5.023,0,0,1-.326.677,1.551,1.551,0,0,1-.151.7c-.1.2-.209.4-.326.6s-.234.41-.351.627a1.524,1.524,0,0,0-.062.158c-.234.065-.5.148-.816.269q-.7.4-1.605,1a7.959,7.959,0,0,1-1.757.9,6.549,6.549,0,0,0-.8.427,5.629,5.629,0,0,1-.828.427.841.841,0,0,1-.627.05q-.252-.1-.251-.753l.3-1.1a1.833,1.833,0,0,0,.176-.452c.016-.1.041-.234.075-.4a.677.677,0,0,1,.3-.451v-.251a2.185,2.185,0,0,0,.351-.8c.2-.3.393-.585.577-.853a3.357,3.357,0,0,0,.427-.853c0-.368-.118-.6-.351-.7s-.419-.183-.552-.251h-.954a1.119,1.119,0,0,0-.351.05.339.339,0,0,0-.1.251.572.572,0,0,1-.05.251.643.643,0,0,1-.151.3.619.619,0,0,0-.15.251v.05h-.151a2.869,2.869,0,0,1-.828.8,5.757,5.757,0,0,0-.879.652q-1.656,1.255-3.212,2.384t-3.262,2.133a1.879,1.879,0,0,1-.8.452,1.41,1.41,0,0,1,.351-.753,1.839,1.839,0,0,0,.4-.8,6.112,6.112,0,0,0,.376-.527,1.172,1.172,0,0,1,.477-.426v-.1a.436.436,0,0,0,.2-.351,1.489,1.489,0,0,0,.577-.427,3.227,3.227,0,0,1,.477-.476c.268-.268.552-.535.853-.8s.585-.518.853-.752q.251-.2.451-.376c.134-.117.284-.26.452-.427q.4-.251.8-.527a2.5,2.5,0,0,1,.8-.376.57.57,0,0,1,.276-.376.832.832,0,0,1,.326-.075l.1-.1.6-.4a3.269,3.269,0,0,1,.954-.6.7.7,0,0,1,.4-.075.4.4,0,0,0,.351-.125.64.64,0,0,0,.3-.352.343.343,0,0,0-.05-.4.69.69,0,0,0-.251-.527,3.893,3.893,0,0,1-.452-.477,1.561,1.561,0,0,1-.7-.15.238.238,0,0,1-.226.075,1.16,1.16,0,0,0-.226-.026c-.033,0-.05.009-.05.026s-.017.024-.05.024a2.09,2.09,0,0,0-1.029.578,2.521,2.521,0,0,1-.878.627,3.417,3.417,0,0,0-1.1.677q-.8.629-1.756,1.456t-1.807,1.631q-.854.8-1.255,1.154-.451.652-.953,1.255a9.047,9.047,0,0,0-.9,1.305,9.033,9.033,0,0,0-.577.878,2.478,2.478,0,0,0-.326,1.029c0,.067-.016.1-.05.1a.045.045,0,0,0-.05.05q-.251.954.3,1.305a.887.887,0,0,0,.652.325c.269.018.535.043.8.075a1.179,1.179,0,0,0,.427.1h.427a1.258,1.258,0,0,0,.728-.126,4.537,4.537,0,0,0,.728-.426,13.581,13.581,0,0,0,2.46-1.356.594.594,0,0,1,.3-.226c.133-.05.234-.092.3-.126.033,0,.041-.025.025-.075s-.009-.075.025-.075a1.313,1.313,0,0,1,.276-.2.693.693,0,0,0,.276-.3,1.627,1.627,0,0,0,.578-.4q.225-.251.477-.552c.1-.067.183-.126.251-.176a1.314,1.314,0,0,1,.2-.126q.05,0,.075-.075c.017-.049.058-.058.126-.025a5.567,5.567,0,0,0-.075,1.18,4.93,4.93,0,0,0,.125.979,4.306,4.306,0,0,0,.327.627,1.378,1.378,0,0,0,.627.477,1.436,1.436,0,0,1,.277.125.445.445,0,0,0,.226.075,3.376,3.376,0,0,0,1.832,0,5.854,5.854,0,0,0,1.455-.7,14.462,14.462,0,0,0,1.33-1,5.9,5.9,0,0,1,1.456-.9q.1.051.4-.126a7.248,7.248,0,0,0,.843-.647c-.03.129-.06.272-.09.4a8.245,8.245,0,0,0-.2,1.33.758.758,0,0,0,.1.3.429.429,0,0,1,0,.4,3.849,3.849,0,0,0,1.355,2.334,2.234,2.234,0,0,0,1.882.226,6.2,6.2,0,0,0,2.133-1.2A22.81,22.81,0,0,0-91.5-432.33q.978-1.027,1.756-1.957t1.18-1.33q.251-.251.928-1.029t1.406-1.606q.726-.829,1.229-1.48T-84.546-440.435Z" transform="translate(-7.741 -5.043)" fill="#ffed56"/>
    <path id="パス_1166" data-name="パス 1166" d="M-51.318-441.269a14.959,14.959,0,0,0-3.162.6,11.14,11.14,0,0,0-3.462,1.807,5.22,5.22,0,0,1,.175-.7,4.654,4.654,0,0,0,.176-.8,1.033,1.033,0,0,0,.1-1.506.849.849,0,0,0-.652-.351,1.125,1.125,0,0,1-.226-.025,1.215,1.215,0,0,0-.226-.025.342.342,0,0,0-.251.1.742.742,0,0,0-.376.1,3.38,3.38,0,0,1-.427.2,1.659,1.659,0,0,1-.2.251.636.636,0,0,0-.151.3c-.055.167-.128.351-.188.522a5.758,5.758,0,0,0-.966-.1,24.2,24.2,0,0,0-2.609.1q-1.407.125-2.686.326t-1.881.351l-.5-.7a1.114,1.114,0,0,0-.351-.2c-.168-.067-.351-.133-.552-.2a4.249,4.249,0,0,0-.577-.15.685.685,0,0,0-.376,0,.129.129,0,0,0-.176.049c-.049.067-.092.067-.125,0a2.877,2.877,0,0,0-.853-.3.941.941,0,0,0-.853-.251,2.115,2.115,0,0,0-.879.452,6.052,6.052,0,0,0-.8.8q-.377.451-.677.853-.554.6-1.079,1.305a6.822,6.822,0,0,0-.828,1.405c-.067,0-.11.042-.126.126a.233.233,0,0,1-.176.175l-.9,2.559a1.8,1.8,0,0,1-.176.7.912.912,0,0,0-.025.752.424.424,0,0,0-.15.377.936.936,0,0,0,.05.376,2.975,2.975,0,0,0,.5,1.33,2.879,2.879,0,0,0,1,.9,3.557,3.557,0,0,0,1.355.4,3.441,3.441,0,0,0,1.556-.226,2.014,2.014,0,0,0,1.33-.351,11.209,11.209,0,0,0,1.481-1.029,20.324,20.324,0,0,0,1.707-1.631,2.173,2.173,0,0,0,.728-.929,3.18,3.18,0,0,1,.728-1.029,3.461,3.461,0,0,0,.351-.7c.1-.267.183-.484.251-.652a1.707,1.707,0,0,0,.3-.677,2.1,2.1,0,0,0,.05-.778v-.225a1.429,1.429,0,0,1,.05-.327q.5-.15,1.23-.326t1.531-.376a14.019,14.019,0,0,1,1.581-.3,11.644,11.644,0,0,1,1.48-.1l.428,0c-.183.514-.347,1.033-.478,1.558,0,.033-.025.059-.075.075s-.075.042-.075.075a11.051,11.051,0,0,0-.6,1.455,8.094,8.094,0,0,1-.653,1.455.952.952,0,0,1-.05.3v.05a11.258,11.258,0,0,1-.451,1.556,12.379,12.379,0,0,0-.452,1.506,1.234,1.234,0,0,0,.376,1.254,1.1,1.1,0,0,0,1.28.1c.133.034.3-.066.5-.3a3.048,3.048,0,0,0,.4-.552,1.254,1.254,0,0,0,.326-.552,9.507,9.507,0,0,0,.327-1.029q.15-.577.325-1.18t.327-1a5.863,5.863,0,0,1,.8-1l.853-.853a5.624,5.624,0,0,1,1.305-1.1,21.59,21.59,0,0,1,1.881-1.08q1.029-.527,2.134-.978t2.108-.753a.782.782,0,0,1,.477-.3.469.469,0,0,0,.376-.3c.1,0,.151-.033.151-.1.133-.067.192-.134.175-.2a.327.327,0,0,1,.075-.251,1.45,1.45,0,0,0-.929-.2C-50.741-441.335-51.051-441.3-51.318-441.269ZM-70.163-437.2a13.033,13.033,0,0,1-.928,1.957q-.552.954-.753,1.305l-.3.351a10.723,10.723,0,0,1-1.53,1.355,7.773,7.773,0,0,1-1.932,1,1.833,1.833,0,0,1-.1-1.455q.251-.752.4-1.405a3.37,3.37,0,0,1,.376-.978q.326-.628.728-1.305t.8-1.28q.4-.6.652-.9.251-.4.427-.753a1.87,1.87,0,0,1,.477-.6l.151-.151a.621.621,0,0,0,.451.2,1.355,1.355,0,0,1,.5.1c.6,0,.911.26.928.778A4.7,4.7,0,0,1-70.163-437.2Z" transform="translate(-15.023 -5.113)" fill="#ffed56"/>
    <path id="パス_1167" data-name="パス 1167" d="M-6.879-451.532a1.043,1.043,0,0,1,.025-.251.813.813,0,0,0,.025-.2,10.11,10.11,0,0,0,.527-1.43q.225-.778.477-1.48t.5-1.254q.251-.552.552-1.2a2.292,2.292,0,0,0,.2-.753,6.334,6.334,0,0,1,.4-.853q.251-.451.452-.853a12.33,12.33,0,0,0,.176-2.71,4.89,4.89,0,0,0-.226-1.455q-.1-.3-.151-.427a.682.682,0,0,0-.15-.225l-.1-.05q-.05-.35-.226-.3a.261.261,0,0,1-.276-.05q-.451-.4-.8-.125a2.806,2.806,0,0,1-.753.426,3.531,3.531,0,0,0-.226.778q-.075.427-.226,1.079-.252,1.005-.452,1.657t-.452,1.3q-.352,1.306-.652,2.384t-.7,2.183l-.9,3.011q-.955,3.012-1.807,6.023t-1.706,6.023q-.252.854-.5,1.932a20.265,20.265,0,0,1-.6,2.082q-.352,1.356-.7,2.937a17.012,17.012,0,0,0-.4,3.187,1.224,1.224,0,0,1,.025.652,1.969,1.969,0,0,0-.025.7c.032.334.15.5.351.5a1.479,1.479,0,0,0,.552-.1,5.681,5.681,0,0,0,.452-1.13c.133-.451.284-.9.452-1.33l1.807-5.52a20,20,0,0,0,.978-2.836q.427-1.581.979-3.036.3-.7.526-1.405t.527-1.606q.251-.852.527-1.681t.526-1.782q.251-.7.5-1.48A12.558,12.558,0,0,1-6.879-451.532Z" transform="translate(-26.904 -0.772)" fill="#ffed56"/>
    <path id="パス_1168" data-name="パス 1168" d="M20.991-450.51a35.724,35.724,0,0,1,4.04-.7q2.133-.251,3.94-.5l.05-.1a.618.618,0,0,1,.351-.1.9.9,0,0,0,.452-.151.4.4,0,0,0,.05-.251.548.548,0,0,1,.025-.176c-.009.008-.009.025-.025.025a1.864,1.864,0,0,0-.1-.176c-.034-.049-.017-.108.05-.175a3.057,3.057,0,0,0-1.23-.226q-.578.026-1.129.075-.854.1-1.18.125a2.684,2.684,0,0,1-.527,0,2.566,2.566,0,0,0-.5,0q-.3.026-1.1.126c-.369.067-.753.125-1.154.175a10.141,10.141,0,0,0-1.2.226h-.05q.5-1.1,1.029-2.158t1.029-2.159a20.114,20.114,0,0,0,1.154-2.409q.5-1.255,1.054-2.46a1.917,1.917,0,0,0,.126-.452,1.218,1.218,0,0,1,.125-.4,3.485,3.485,0,0,0,.326-.477.434.434,0,0,0,.025-.427.967.967,0,0,0-.6-.628,2.44,2.44,0,0,0-1-.225,2.861,2.861,0,0,0-.954.2,1.5,1.5,0,0,0-.652.351.95.95,0,0,0-.226.451,4.345,4.345,0,0,1-.175.552,2.073,2.073,0,0,1-.251.578,1.322,1.322,0,0,0-.2.476.341.341,0,0,0-.1.251.541.541,0,0,1-.1.3A3.073,3.073,0,0,1,22-460.2q-.252.652-.527,1.33a14.066,14.066,0,0,1-.627,1.33q-.7,1.555-1.33,3.062t-1.18,3.062a2.95,2.95,0,0,1-.476.15q-.226.051-.477.1a5.34,5.34,0,0,0-.7.1c-.369.067-.771.15-1.2.251s-.862.192-1.28.276-.745.159-.978.226l-.6.251c-.067.134-.141.285-.226.452s-.158.334-.226.5a2.979,2.979,0,0,0-.1.7.492.492,0,0,0,.251.452q.051.1.226.075t.426-.075a.909.909,0,0,0,.377-.2,3.43,3.43,0,0,1,.326-.251c.234-.067.477-.142.728-.226s.477-.158.677-.226a11.273,11.273,0,0,1,1.43-.577,8.917,8.917,0,0,1,1.23-.276q-.252.7-.477,1.43t-.476,1.481q-.554,1.908-1.2,3.764t-1.154,3.814c-.032.126-.059.26-.09.387-.062.039-.118.079-.186.114q-.377.2-.778.452a1.258,1.258,0,0,0-.552.1,3.176,3.176,0,0,0-.7.427q-.352.276-.7.577-.552.3-.652.376a1.115,1.115,0,0,1-.151.1c-.033.017-.092.042-.175.075s-.31.134-.678.3c-.334.168-.619.3-.853.4s-.5.218-.8.351a6.207,6.207,0,0,1,.05-1.305q.1-.9.276-1.906t.351-1.907c.117-.6.192-1.037.226-1.305.1-.368.208-.753.326-1.154a3.115,3.115,0,0,0,.125-1.155,1.2,1.2,0,0,0-.627-.827,2,2,0,0,0-1.079-.376,3.3,3.3,0,0,0-1.405.451q-.7.4-1.255.753a15.414,15.414,0,0,0-2.81,2.108q-1.206,1.155-2.51,2.309a3,3,0,0,0-.552.476.981.981,0,0,1-.6.326q.3-.852.628-1.555t.627-1.406a1.48,1.48,0,0,0,.1-.552,1.878,1.878,0,0,1,.1-.6c.167-.268.333-.552.5-.853a1.167,1.167,0,0,0,0-1.055.971.971,0,0,0-.778-.7,1.341,1.341,0,0,0-1.229.2,1.088,1.088,0,0,0-.277.276,2.191,2.191,0,0,1-.226.276c-.034.168-.068.36-.1.578a5.553,5.553,0,0,1-.151.677,3.064,3.064,0,0,1-.3.552,3.071,3.071,0,0,0-.3.552q-.7,1.807-1.506,3.488A17.055,17.055,0,0,0-5.558-435.4q-.15.352-.276.753a1.235,1.235,0,0,0-.075.6,1.186,1.186,0,0,0,.628.7,1.264,1.264,0,0,0,.928.2A3.949,3.949,0,0,0-2.8-434.45q1.054-1.2,2.761-3.011a10.76,10.76,0,0,1,1.154-1q.6-.451,1.1-.9.852-.853,1.706-1.556t1.756-1.405l.6-.5a1.745,1.745,0,0,1,.7-.351c-.067.368-.15.736-.251,1.1a6.553,6.553,0,0,0-.2,1.255q-.05.3-.226,1.1t-.351,1.682q-.176.879-.326,1.656a6.954,6.954,0,0,0-.151,1.029,2.359,2.359,0,0,0,.427,1.23q.426.678.978.578a6.752,6.752,0,0,0,.778-.05q.426-.05.929-.151a4.981,4.981,0,0,0,1.279-.677,13.008,13.008,0,0,1,1.23-.778c.4-.268.66-.434.778-.5a1.233,1.233,0,0,0,.251-.175c.05-.05.126-.117.226-.2s.333-.276.7-.577a1.751,1.751,0,0,0,.552-.351c.107-.107.243-.256.393-.428-.111.518-.217,1.043-.318,1.582a28.034,28.034,0,0,0-.426,3.613,2.517,2.517,0,0,0,.05.5q.049.251.452.452h.049a1.311,1.311,0,0,1,.477-.126.934.934,0,0,0,.427-.125c.167-.034.234-.075.2-.126s.032-.109.2-.176a2.578,2.578,0,0,0,.05-.5,1.316,1.316,0,0,1,.1-.5l.3-.5a1.557,1.557,0,0,0,.05-.452,2.841,2.841,0,0,1,.049-.552q.05-.251.1-.5a2.768,2.768,0,0,1,.151-.5.473.473,0,0,1,.125-.3,1.408,1.408,0,0,0,.176-.251,3.02,3.02,0,0,0,.276-.9,2.348,2.348,0,0,1,.326-.9,3.677,3.677,0,0,1,.3-.853,3.976,3.976,0,0,0,.3-.8q.752-2.659,1.656-5.319t1.757-5.321Z" transform="translate(-28.727 -0.991)" fill="#ffed56"/>
    <path id="パス_1169" data-name="パス 1169" d="M38.271-449.866a.329.329,0,0,1,.046-.077C38.289-449.943,38.276-449.914,38.271-449.866Z" transform="translate(-37.069 -3.665)" fill="#ffed56"/>
    <path id="パス_1170" data-name="パス 1170" d="M38.264-449.848a.277.277,0,0,0-.028.048c.008-.008.025-.008.025-.025A.153.153,0,0,1,38.264-449.848Z" transform="translate(-37.062 -3.683)" fill="#ffed56"/>
    <path id="パス_1171" data-name="パス 1171" d="M50.172-453.383A5.294,5.294,0,0,1,51-454.839a26.783,26.783,0,0,0,1.029-2.484q.476-1.329.978-2.635a2.979,2.979,0,0,1,.277-.828,3.071,3.071,0,0,0,.276-.778c.1-.167.208-.359.326-.577a1.413,1.413,0,0,0,.176-.677.752.752,0,0,0,0-.552,3.088,3.088,0,0,0-.352-.4,1.988,1.988,0,0,0-.326-.6,1.111,1.111,0,0,0-.577-.3,1.931,1.931,0,0,0-1.029.1c-.419.135-.661.3-.728.5a8.368,8.368,0,0,1-.351,1.506q-.3.954-.653,2.033t-.753,2.082q-.5,1.354-.978,2.66t-1.079,2.559v.05q-.252.6-.677,1.657t-.879,2.182q-.453,1.13-.853,2.209t-.6,1.781a1.814,1.814,0,0,0-.151.427.457.457,0,0,1-.251.326v.1l-.049.05a.143.143,0,0,1,.1-.05c-.363,1.09-.728,2.22-1.091,3.38-.2.1-.384.2-.59.309q-.829.427-1.631.828-1.005.552-1.657.853t-1.254.552q-.6.251-1.28.552t-1.731.8q-.451.2-1.055.4t-1.154.351a15.03,15.03,0,0,0-1.455.5,3.7,3.7,0,0,1-1.757.2,1.2,1.2,0,0,1-.427-.878,2.865,2.865,0,0,1,.151-1.055,4.583,4.583,0,0,1,.477-1,4.535,4.535,0,0,1,.6-.778,5.637,5.637,0,0,0,1.682-.05,2.923,2.923,0,0,0,1.33-.552,40.761,40.761,0,0,0,4.015-3.112,2,2,0,0,1,.3-.427c.133-.15.284-.309.451-.476a2.069,2.069,0,0,1,.452-.5.975.975,0,0,0,.351-.452,1.891,1.891,0,0,0-.552-1.23,3.19,3.19,0,0,0-2.359-.627.589.589,0,0,0-.376.1,1.826,1.826,0,0,1-.326.2q-.5.252-1.1.5a7.678,7.678,0,0,0-1.154.6A9.9,9.9,0,0,0,30.4-443.7q-1.129,1.156-2.183,2.409a2.625,2.625,0,0,1-.2.5,1.478,1.478,0,0,1-.4.5,11.984,11.984,0,0,0-.578,1.23,8.477,8.477,0,0,0-.427,1.355,4.54,4.54,0,0,0-.1,1.33,2.007,2.007,0,0,0,.4,1.1,2.5,2.5,0,0,0,1.129.928,4.1,4.1,0,0,0,1.431.3,6.518,6.518,0,0,0,1.506-.126q.752-.151,1.355-.3.451-.151.929-.276a3.139,3.139,0,0,0,.878-.377l3.614-1.706q.349-.151,1.053-.5t1.506-.778q.8-.425,1.606-.878c.116-.066.213-.127.32-.191-.2.81-.381,1.636-.522,2.5a10.8,10.8,0,0,0-.351,1.405,13.282,13.282,0,0,0-.2,1.506.723.723,0,0,0,.226.452,1.015,1.015,0,0,1,.276.4.363.363,0,0,1,.427.276.507.507,0,0,0,.527.326.466.466,0,0,0,.3-.225.368.368,0,0,1,.351-.176,4.776,4.776,0,0,1,.2-1.706,1.626,1.626,0,0,0,.1-.6,13.673,13.673,0,0,1,.527-1.858,10.3,10.3,0,0,0,.477-1.807q1.154-3.463,2.459-6.725t2.61-6.424Q49.9-452.629,50.172-453.383ZM33.108-443.044a9.458,9.458,0,0,1,3.187-1.907q0,.151-.1.151a23.434,23.434,0,0,1-1.907,1.982q-1.055.98-2.058,1.781-.4.252-.828.5a1.7,1.7,0,0,1-.879.251A23.93,23.93,0,0,1,33.108-443.044Z" transform="translate(-34.846 -0.878)" fill="#ffed56"/>
    <path id="パス_1172" data-name="パス 1172" d="M62.246-453.383a5.291,5.291,0,0,1,.827-1.455,26.782,26.782,0,0,0,1.029-2.484q.476-1.329.978-2.635a2.952,2.952,0,0,1,.277-.828,3.071,3.071,0,0,0,.276-.778c.1-.167.208-.359.326-.577a1.422,1.422,0,0,0,.176-.677.752.752,0,0,0,0-.552,3.087,3.087,0,0,0-.352-.4,1.989,1.989,0,0,0-.326-.6,1.111,1.111,0,0,0-.577-.3,1.935,1.935,0,0,0-1.029.1c-.418.135-.66.3-.727.5a8.3,8.3,0,0,1-.352,1.506q-.3.954-.652,2.033t-.753,2.082q-.5,1.354-.978,2.66t-1.079,2.559v.05q-.252.6-.677,1.657t-.879,2.182q-.451,1.13-.853,2.209t-.6,1.781a1.813,1.813,0,0,0-.151.427.458.458,0,0,1-.251.326v.1l-.05.05a.144.144,0,0,1,.1-.05q-.6,1.807-1.2,3.739a29.9,29.9,0,0,0-.954,4.09,10.8,10.8,0,0,0-.351,1.405,13.282,13.282,0,0,0-.2,1.506.723.723,0,0,0,.226.452,1.015,1.015,0,0,1,.276.4.363.363,0,0,1,.427.276.507.507,0,0,0,.527.326.466.466,0,0,0,.3-.225.368.368,0,0,1,.351-.176,4.776,4.776,0,0,1,.2-1.706,1.625,1.625,0,0,0,.1-.6,13.671,13.671,0,0,1,.526-1.858,10.3,10.3,0,0,0,.477-1.807q1.154-3.463,2.459-6.725t2.61-6.424Q61.969-452.629,62.246-453.383Z" transform="translate(-39.894 -0.878)" fill="#ffed56"/>
    <path id="パス_1173" data-name="パス 1173" d="M82.254-436.429c-.017-.016-.043-.016-.076,0s-.049.034-.049.05.043.007.105,0C82.255-436.4,82.262-436.42,82.254-436.429Z" transform="translate(-45.348 -6.214)" fill="#ffed56"/>
    <path id="パス_1174" data-name="パス 1174" d="M104.606-452.643c-.033-.049-.017-.108.05-.175a3.055,3.055,0,0,0-1.229-.226q-.578.026-1.13.075-.853.1-1.179.125a2.684,2.684,0,0,1-.527,0,2.566,2.566,0,0,0-.5,0c-.2.017-.57.059-1.1.126-.368.067-.752.125-1.154.175a10.1,10.1,0,0,0-1.2.226h-.05q.5-1.1,1.029-2.158t1.029-2.159a20.239,20.239,0,0,0,1.154-2.409q.5-1.255,1.053-2.46a1.922,1.922,0,0,0,.127-.452,1.2,1.2,0,0,1,.125-.4,3.559,3.559,0,0,0,.326-.477.434.434,0,0,0,.025-.427.969.969,0,0,0-.6-.628,2.437,2.437,0,0,0-1-.225,2.869,2.869,0,0,0-.954.2,1.5,1.5,0,0,0-.651.351.95.95,0,0,0-.226.451,4.342,4.342,0,0,1-.176.552,2.073,2.073,0,0,1-.251.578,1.322,1.322,0,0,0-.2.476.341.341,0,0,0-.1.251.541.541,0,0,1-.1.3,3.048,3.048,0,0,1-.352.753q-.252.652-.526,1.33a14.073,14.073,0,0,1-.628,1.33q-.7,1.555-1.33,3.062t-1.18,3.062a2.975,2.975,0,0,1-.476.15q-.226.051-.477.1a5.34,5.34,0,0,0-.7.1c-.369.067-.771.15-1.205.251s-.861.192-1.279.276-.745.159-.978.226l-.6.251q-.1.2-.226.452c-.083.168-.158.334-.226.5a2.973,2.973,0,0,0-.1.7.492.492,0,0,0,.251.452c.034.067.109.092.226.075s.26-.041.427-.075a.906.906,0,0,0,.376-.2,3.538,3.538,0,0,1,.327-.251q.35-.1.727-.226c.251-.083.477-.158.678-.226a11.178,11.178,0,0,1,1.43-.577,8.9,8.9,0,0,1,1.229-.276q-.252.7-.477,1.43t-.475,1.481q-.555,1.908-1.205,3.764t-1.154,3.814c-.011.044-.02.092-.032.136-.037.022-.083.041-.118.064q-.9.3-1.33.427c-.285.084-.494.151-.627.2a2.035,2.035,0,0,0-.327.15,2.443,2.443,0,0,1-.4.176q-.275.1-.8.3l-1.581.6q-.752.252-2.108.728t-2.584.8a7.321,7.321,0,0,1-2.033.3q-.8-.026-.5-.778a10.089,10.089,0,0,1,.5-1.055,3.24,3.24,0,0,1,.7-.9,3.4,3.4,0,0,1,.652-.753q.4-.35.8-.753l1.1-.853.8-.652a1.025,1.025,0,0,1,.477-.3.5.5,0,0,0,.327-.2.387.387,0,0,1,.326-.075,3.249,3.249,0,0,0,.376.025.6.6,0,0,1,.3-.226.953.953,0,0,1,.3-.075,2.192,2.192,0,0,1,.578-.452q.226-.1.727-.351a.657.657,0,0,0,.3-.427,3.1,3.1,0,0,0,.126-.7,2.333,2.333,0,0,0-.075-.753,1.269,1.269,0,0,0-.3-.577,3.413,3.413,0,0,0-1.356-.3.587.587,0,0,0-.5.2.912.912,0,0,1-.4.3l-.376.151-.376.151a3.084,3.084,0,0,0-.7.526,2.8,2.8,0,0,1-.6.477c-.4.4-.811.8-1.23,1.179-.356.328-.69.618-1.009.885-.025.007-.045.01-.064.014a.756.756,0,0,1-.105.08c-.5.269-1.029.544-1.58.828s-1.1.561-1.631.828q-1.005.552-1.657.853t-1.255.552q-.6.251-1.279.552t-1.732.8q-.451.2-1.054.4t-1.154.351a15.092,15.092,0,0,0-1.455.5,3.7,3.7,0,0,1-1.757.2,1.2,1.2,0,0,1-.427-.878,2.848,2.848,0,0,1,.151-1.055,4.547,4.547,0,0,1,.477-1,4.536,4.536,0,0,1,.6-.778,5.632,5.632,0,0,0,1.681-.05,2.922,2.922,0,0,0,1.33-.552,40.754,40.754,0,0,0,4.015-3.112,2.029,2.029,0,0,1,.3-.427c.133-.15.285-.309.452-.476a2.052,2.052,0,0,1,.452-.5.975.975,0,0,0,.351-.452,1.893,1.893,0,0,0-.552-1.23,3.187,3.187,0,0,0-2.358-.627.593.593,0,0,0-.377.1,1.791,1.791,0,0,1-.325.2q-.5.252-1.1.5a7.639,7.639,0,0,0-1.154.6,9.867,9.867,0,0,0-2.334,1.807q-1.129,1.156-2.184,2.409a2.561,2.561,0,0,1-.2.5,1.48,1.48,0,0,1-.4.5,12.158,12.158,0,0,0-.577,1.23,8.476,8.476,0,0,0-.427,1.355,4.54,4.54,0,0,0-.1,1.33,2.007,2.007,0,0,0,.4,1.1,2.5,2.5,0,0,0,1.129.928,4.094,4.094,0,0,0,1.43.3,6.525,6.525,0,0,0,1.506-.126q.752-.151,1.354-.3c.3-.1.61-.192.929-.276a3.133,3.133,0,0,0,.879-.377l3.613-1.706q.35-.151,1.054-.5t1.506-.778l.13-.071a8.63,8.63,0,0,0-.531.9,3.2,3.2,0,0,0-.452,2.208,2.763,2.763,0,0,0,.953,1.305,2.6,2.6,0,0,0,.6.351,2.017,2.017,0,0,0,.8.151,3.091,3.091,0,0,1,1.128,0,1.761,1.761,0,0,0,1.029-.151.194.194,0,0,1,.125.025c.017.016.059.008.127-.025a.416.416,0,0,0,.326-.05.963.963,0,0,1,.376-.1,4.365,4.365,0,0,1,.651-.276c.168-.05.352-.108.552-.175q2.109-.7,4.09-1.506t4.09-1.807a1.139,1.139,0,0,0,.159-.061c-.1.465-.195.934-.285,1.416a28.033,28.033,0,0,0-.427,3.613,2.578,2.578,0,0,0,.05.5q.05.251.453.452h.049a1.3,1.3,0,0,1,.477-.126.93.93,0,0,0,.426-.125c.167-.034.234-.075.2-.126s.033-.109.2-.176a2.576,2.576,0,0,0,.049-.5,1.332,1.332,0,0,1,.1-.5l.3-.5a1.523,1.523,0,0,0,.051-.452,2.779,2.779,0,0,1,.049-.552c.032-.167.067-.334.1-.5a2.706,2.706,0,0,1,.151-.5.473.473,0,0,1,.125-.3,1.408,1.408,0,0,0,.176-.251,3.021,3.021,0,0,0,.276-.9,2.321,2.321,0,0,1,.326-.9,3.675,3.675,0,0,1,.3-.853,3.975,3.975,0,0,0,.3-.8q.753-2.659,1.657-5.319t1.756-5.321l.151-.5a35.692,35.692,0,0,1,4.04-.7q2.132-.251,3.94-.5l.049-.1a.622.622,0,0,1,.352-.1.9.9,0,0,0,.451-.151.4.4,0,0,0,.05-.251.549.549,0,0,1,.025-.176c-.008.008-.008.025-.025.025A1.7,1.7,0,0,0,104.606-452.643Zm-37.163,9.712a9.461,9.461,0,0,1,3.187-1.907c0,.1-.034.151-.1.151a23.288,23.288,0,0,1-1.906,1.982q-1.055.98-2.059,1.781-.4.252-.827.5a1.7,1.7,0,0,1-.879.251A23.923,23.923,0,0,1,67.443-442.931Z" transform="translate(-41.328 -0.991)" fill="#ffed56"/>
    <path id="パス_1175" data-name="パス 1175" d="M114.983-449.867a.323.323,0,0,1,.046-.076C115-449.943,114.987-449.914,114.983-449.867Z" transform="translate(-51.55 -3.665)" fill="#ffed56"/>
    <path id="パス_1176" data-name="パス 1176" d="M114.973-449.825a.182.182,0,0,1,0-.023.321.321,0,0,0-.029.049C114.956-449.808,114.973-449.808,114.973-449.825Z" transform="translate(-51.543 -3.683)" fill="#ffed56"/>
    <path id="パス_1177" data-name="パス 1177" d="M218.392-449.1a.785.785,0,0,1,.477-.3.468.468,0,0,0,.376-.3c.1,0,.15-.032.15-.1.133-.067.192-.134.176-.2a.324.324,0,0,1,.075-.251,1.45,1.45,0,0,0-.929-.2q-.527.051-.928.1a15,15,0,0,0-3.162.6,11.119,11.119,0,0,0-3.462,1.807,5.174,5.174,0,0,1,.174-.7,4.6,4.6,0,0,0,.176-.8,1.034,1.034,0,0,0,.1-1.506.845.845,0,0,0-.652-.351,1.088,1.088,0,0,1-.226-.026,1.2,1.2,0,0,0-.226-.024.342.342,0,0,0-.251.1.747.747,0,0,0-.376.1,3.5,3.5,0,0,1-.427.2,1.7,1.7,0,0,1-.2.251.635.635,0,0,0-.15.3q-.3.9-.677,1.882a16.915,16.915,0,0,0-.628,1.983c0,.033-.025.058-.075.075s-.075.043-.075.075a11.062,11.062,0,0,0-.6,1.456c-.032.1-.075.191-.112.288-.054.021-.118.045-.163.063a10.989,10.989,0,0,0-1.054.476c-.286.151-.636.335-1.055.552s-1.146.577-2.183,1.079a3.562,3.562,0,0,1-1.079.477,1.8,1.8,0,0,1-1.129-.126c-.168-.067-.268-.292-.3-.677a6.609,6.609,0,0,1,.025-1.28q.075-.7.2-1.38t.226-1.029a4.8,4.8,0,0,1,.277-.979c.117-.283.259-.627.427-1.029a2.9,2.9,0,0,0-.075-1.33.974.974,0,0,0-.452-.552.7.7,0,0,0-.578,0,1.41,1.41,0,0,0-.451.276,1.717,1.717,0,0,0-.376.427q-.226.327-.527.753t-.6.828c-.2.269-.368.485-.5.652q-1.606,1.607-3.087,3.137a21.063,21.063,0,0,1-3.237,2.736q-.752.552-.9.4t0-.577a7.416,7.416,0,0,1,.426-.953,3.41,3.41,0,0,0,.327-.778,3.214,3.214,0,0,1,.526-.929,2.69,2.69,0,0,0,.477-.827q.3-.652.477-1.055c.116-.267.226-.518.326-.753s.208-.476.325-.728.26-.577.428-.978a2.382,2.382,0,0,0,.451-.677,1.261,1.261,0,0,0,.05-.929,1.774,1.774,0,0,0-.7-.7,1.364,1.364,0,0,0-.953.15c-.3.168-.6.351-.9.552a.345.345,0,0,1-.025.151.177.177,0,0,0,.025.15,1.172,1.172,0,0,0-.213.225,5.05,5.05,0,0,0-1.192-.15,24.023,24.023,0,0,0-2.61.1q-1.405.125-2.685.326t-1.881.351l-.5-.7a1.108,1.108,0,0,0-.35-.2q-.252-.1-.552-.2a4.383,4.383,0,0,0-.578-.151.685.685,0,0,0-.376,0,.129.129,0,0,0-.175.05c-.05.067-.092.067-.126,0a2.87,2.87,0,0,0-.853-.3.94.94,0,0,0-.853-.251,2.113,2.113,0,0,0-.879.451,6.1,6.1,0,0,0-.8.8q-.377.451-.677.853a16.829,16.829,0,0,0-1.08,1.3,6.923,6.923,0,0,0-.828,1.406c-.067,0-.109.042-.125.126a.235.235,0,0,1-.176.175l-.619,1.754c-.333.144-.7.306-1.112.5q-1.682.8-4.065,2.108t-5.244,2.962L153-432.633h-.1a1.373,1.373,0,0,1-.728.5,1.748,1.748,0,0,0-.727.4c-.269.134-.536.26-.8.377a4.557,4.557,0,0,0-.7.376q-1.306.6-2.635,1.305a27.3,27.3,0,0,1-2.735,1.255,9.8,9.8,0,0,1-1.28.326,9.274,9.274,0,0,0-1.279.326,10.155,10.155,0,0,1-1.782.3,2.574,2.574,0,0,1-1.682-.3,3.729,3.729,0,0,1-1.23-1.48,4.445,4.445,0,0,1-.526-2.033,10.374,10.374,0,0,1,.075-2.434q.175-1.081.427-2.184a1.242,1.242,0,0,0,.1-.451.668.668,0,0,1,.151-.4,4.806,4.806,0,0,1,.427-1.531,6.014,6.014,0,0,0,.477-1.43,5.609,5.609,0,0,0,.577-1.2,3.89,3.89,0,0,1,.578-1.1c-.067-.134-.05-.226.049-.276s.118-.159.051-.327c.066.034.108.018.125-.05a.224.224,0,0,1,.126-.15h-.1a1.573,1.573,0,0,0,.376-.628,2.194,2.194,0,0,1,.427-.728q.7-1.354,1.455-2.659t1.606-2.56a.612.612,0,0,0,.226-.276c.05-.117.108-.242.175-.376q.251-.4.9-1.28t1.405-1.807q.752-.927,1.43-1.781t.978-1.154a.082.082,0,0,0,.025-.1c-.018-.033-.009-.084.025-.151l.2-.1a2.673,2.673,0,0,1,.251-.4,1.775,1.775,0,0,1,.35-.351,10.452,10.452,0,0,1,.853-.853l.9-.8a2.036,2.036,0,0,0,.1-.251.483.483,0,0,1,.2-.251,5.915,5.915,0,0,1,.577-.5,2.342,2.342,0,0,0,.527-.552,2.715,2.715,0,0,1,.552-.427,2.678,2.678,0,0,0,.552-.427q.953-.752,1.807-1.506a.44.44,0,0,1,.226-.126.431.431,0,0,0,.226-.125,2.548,2.548,0,0,0,.578-.4,1.8,1.8,0,0,1,.527-.351,2.02,2.02,0,0,1,.5-.3.781.781,0,0,0,.4-.4,10.093,10.093,0,0,0,1.2-.552q.552-.3,1.129-.6t1.18-.552a7.429,7.429,0,0,1,1.305-.4,1.625,1.625,0,0,1,1.18.126.9.9,0,0,1,.476.828,3.819,3.819,0,0,1-.1,1.2,9.715,9.715,0,0,1-.4,1.305,1.862,1.862,0,0,0-.126.452,1.832,1.832,0,0,1-.125.451,6.2,6.2,0,0,1-.527.853,1.023,1.023,0,0,0-.075,1.055,2.289,2.289,0,0,0,1.355,1.254.466.466,0,0,1,.3,0,.614.614,0,0,0,.351,0,.49.49,0,0,0,.176-.151.4.4,0,0,1,.325-.1c-.067-.066-.049-.108.051-.126a.444.444,0,0,0,.251-.126,11.527,11.527,0,0,0,.552-1.2,5.01,5.01,0,0,1,.251-.527,3.542,3.542,0,0,0,.251-.577c.067-.168.151-.41.251-.728a2.671,2.671,0,0,0,.15-.728,5.954,5.954,0,0,0,0-1.079,7.187,7.187,0,0,0-.226-1.28,7.916,7.916,0,0,0-.427-1.2,2.439,2.439,0,0,0-.6-.853,4.238,4.238,0,0,0-3.037-1.631,8.4,8.4,0,0,0-3.889.778,21.75,21.75,0,0,0-4.392,2.61,51.743,51.743,0,0,0-4.541,3.839q-2.258,2.134-4.342,4.492t-3.738,4.542a46.136,46.136,0,0,0-2.761,4.016,15.908,15.908,0,0,0-1.455,2.886v.2a6.782,6.782,0,0,0-.8,1.431,6.711,6.711,0,0,1-.9,1.53,1.86,1.86,0,0,1-.151.477q-.151.377-.3.8a6.683,6.683,0,0,1-.326.778,2.485,2.485,0,0,1-.226.4.46.46,0,0,1-.151.376q-.151.125-.049.376a.276.276,0,0,0-.176.3.407.407,0,0,1-.125.351c.032,0,.049.05.049.151a20.142,20.142,0,0,0-.879,8.582,6.465,6.465,0,0,0,2.886,4.793q2.307,1.38,6.248.578a28.457,28.457,0,0,0,9.16-4.116,3.055,3.055,0,0,0,1.154-.652,3.926,3.926,0,0,0,.752-.376c.234-.15.469-.293.7-.426.133-.068.283-.135.451-.2a.646.646,0,0,0,.352-.3,1.478,1.478,0,0,0,.577-.276q.425-.277.928-.6t.978-.677a5.773,5.773,0,0,1,.778-.5c.067,0,.1.008.1.025s.017.025.05.025a.63.63,0,0,1,.527-.4.907.907,0,0,0,.628-.4.976.976,0,0,0,.451-.2,1.526,1.526,0,0,0,.4-.351q.4-.2,1.18-.678t1.631-1.053q.854-.579,1.682-1.13t1.381-.853a.1.1,0,0,0-.075.024.1.1,0,0,1-.075.026c.233-.135.518-.3.853-.5s.5-.351.5-.452q2.945-1.979,4.577-3.195a.853.853,0,0,0,.04.484.424.424,0,0,0-.151.376.93.93,0,0,0,.051.376,2.974,2.974,0,0,0,.5,1.33,2.874,2.874,0,0,0,1,.9,3.548,3.548,0,0,0,1.356.4,3.43,3.43,0,0,0,1.556-.225,2.014,2.014,0,0,0,1.33-.351,11.211,11.211,0,0,0,1.481-1.029,20.048,20.048,0,0,0,1.706-1.631,2.173,2.173,0,0,0,.729-.929,3.17,3.17,0,0,1,.727-1.029,3.441,3.441,0,0,0,.352-.7c.1-.268.183-.484.251-.652a1.713,1.713,0,0,0,.3-.677,2.114,2.114,0,0,0,.05-.778v-.226a1.42,1.42,0,0,1,.049-.326q.5-.15,1.231-.326t1.531-.376a13.992,13.992,0,0,1,1.58-.3,11.66,11.66,0,0,1,1.48-.1c.134,0,.256,0,.37,0a2.548,2.548,0,0,0-.37.553l-.4.8q-.151.4-.226.578c-.05.118-.092.226-.125.326a2.264,2.264,0,0,1-.127.3c-.049.1-.125.269-.226.5a24.033,24.033,0,0,0-1.029,2.384,6.691,6.691,0,0,0-.477,2.308,2.037,2.037,0,0,0,.7,1.631,3.324,3.324,0,0,0,2.609.3,1.466,1.466,0,0,1,.552-.427.688.688,0,0,0,.4-.477.287.287,0,0,0,.2-.1.8.8,0,0,0,.151-.2,1.531,1.531,0,0,0,.653-.451,2.132,2.132,0,0,0,.651-.628,1.985,1.985,0,0,1,.7-.627,3.445,3.445,0,0,1,.954-.778,4.693,4.693,0,0,0,1-.728c0-.133.016-.2.049-.2a.408.408,0,0,0,.075-.1c.016-.033.075-.05.176-.05a.883.883,0,0,1,.226-.3,1.36,1.36,0,0,1,.226-.151c.067-.032.142-.067.226-.1a.731.731,0,0,0,.275-.251.906.906,0,0,0,.4-.3,1.715,1.715,0,0,1,.351-.351,3.4,3.4,0,0,0-.15.451,1.234,1.234,0,0,0,0,.5q-.051.453-.151,1.079a6.1,6.1,0,0,0-.075,1.23,3.291,3.291,0,0,0,.226,1.1,1.2,1.2,0,0,0,.752.7,2.656,2.656,0,0,0,.653.151,2.165,2.165,0,0,0,.8-.05q.4-.1.578-.151c.117-.032.309-.1.577-.2a4.8,4.8,0,0,0,1.1-.552q.954-.552,2.108-1.255l1.761-1.094c-.082.315-.2.692-.356,1.144a12.237,12.237,0,0,0-.452,1.506,1.232,1.232,0,0,0,.376,1.254,1.1,1.1,0,0,0,1.279.1c.133.034.3-.067.5-.3a3.131,3.131,0,0,0,.4-.552,1.259,1.259,0,0,0,.326-.552,9.512,9.512,0,0,0,.326-1.029q.151-.577.326-1.18t.327-1a5.864,5.864,0,0,1,.8-1l.853-.853a5.638,5.638,0,0,1,1.3-1.1q.853-.551,1.882-1.079t2.133-.978Q217.387-448.793,218.392-449.1Zm-37.214,2.811a12.965,12.965,0,0,1-.929,1.957q-.552.954-.752,1.3l-.3.351a10.723,10.723,0,0,1-1.53,1.356,7.817,7.817,0,0,1-1.932,1,1.833,1.833,0,0,1-.1-1.455q.251-.753.4-1.405a3.345,3.345,0,0,1,.376-.978q.325-.628.728-1.305t.8-1.28a11.1,11.1,0,0,1,.652-.9q.251-.4.427-.753a1.862,1.862,0,0,1,.477-.6l.15-.15a.622.622,0,0,0,.452.2,1.356,1.356,0,0,1,.5.1q.9,0,.928.778A4.714,4.714,0,0,1,181.178-446.285Z" transform="translate(-55.137)" fill="#ffed56"/>
    <path id="パス_1178" data-name="パス 1178" d="M289.25-442.607a1.562,1.562,0,0,0-.6-.075.253.253,0,0,0-.126.05.243.243,0,0,1-.126.05c-.042.011-.067.015-.095.02a.8.8,0,0,1-.106.08q-.752.4-1.58.828t-1.631.827q-1,.554-1.657.853t-1.254.552q-.6.251-1.28.552t-1.731.8c-.3.134-.652.269-1.054.4s-.787.251-1.154.351a15.1,15.1,0,0,0-1.455.5,3.688,3.688,0,0,1-1.756.2,1.2,1.2,0,0,1-.428-.879,2.858,2.858,0,0,1,.151-1.054,4.639,4.639,0,0,1,.477-1,4.473,4.473,0,0,1,.6-.778,5.629,5.629,0,0,0,1.681-.05,2.936,2.936,0,0,0,1.33-.552,40.666,40.666,0,0,0,4.015-3.112,2.007,2.007,0,0,1,.3-.427c.134-.151.285-.309.453-.477a2.019,2.019,0,0,1,.452-.5.971.971,0,0,0,.35-.452,1.888,1.888,0,0,0-.552-1.23,3.19,3.19,0,0,0-2.359-.627.59.59,0,0,0-.376.1,1.83,1.83,0,0,1-.326.2q-.5.252-1.1.5a7.567,7.567,0,0,0-1.154.6,9.822,9.822,0,0,0-2.224,1.7c-.322.123-.637.256-.939.406q-1.005.5-2.007,1.054a.045.045,0,0,1,.049.051,1.833,1.833,0,0,0-.7.226,4.811,4.811,0,0,0-.552.376.375.375,0,0,0-.226.1,2.818,2.818,0,0,0-.226.2h-.151a5.142,5.142,0,0,1-1.054.6q-.753.353-1.581.8t-1.58.953a3.422,3.422,0,0,0-1.055,1,8.159,8.159,0,0,1,.427-1.38,5.9,5.9,0,0,0,.376-1.431,2.954,2.954,0,0,0,.276-.878,4.618,4.618,0,0,1,.226-.879,1.672,1.672,0,0,0,.025-.753,1.683,1.683,0,0,0-.477-.7.275.275,0,0,0-.251-.075c-.1.018-.167-.008-.2-.075a.418.418,0,0,1-.326-.024.527.527,0,0,0-.276-.075.688.688,0,0,0-.578.226,4,4,0,0,1-.325.376q-.252.252-.226.3c.016.034-.008.135-.075.3a.5.5,0,0,1-.3.427,4.636,4.636,0,0,0-.552.376q-.251.252-.527.552a2.478,2.478,0,0,1-.527.452q-1,.853-2.057,1.706t-2.058,1.556a2.234,2.234,0,0,0-.4.2c-.1.068-.234.168-.4.3-.3.167-.561.326-.778.476s-.461.31-.728.477c-.067.034-.143.067-.226.1a.4.4,0,0,1-.326-.05.6.6,0,0,1,.075-.251.658.658,0,0,0,.075-.3,7.154,7.154,0,0,1,.628-1.455q.376-.652.778-1.255a3.1,3.1,0,0,0,.677-.853,1.778,1.778,0,0,1,.778-.753,5.061,5.061,0,0,1,.476-.6,5.957,5.957,0,0,1,.578-.552.971.971,0,0,1,.4-.6,3.543,3.543,0,0,0,.552-.452,2.02,2.02,0,0,1,.5-.653c.2-.166.419-.333.652-.5a4.7,4.7,0,0,1,.853-.728q.6-.426,1.055-.8a1.46,1.46,0,0,0,.526-.677q.074-.3-.728-.351a2.581,2.581,0,0,0-.3.025,1.237,1.237,0,0,0-.4.126,4.951,4.951,0,0,0-1.1.577q-.552.376-1.1.677a.608.608,0,0,0-.3.15c-.135.1-.285.2-.452.3a5.084,5.084,0,0,0-.452.3,2.774,2.774,0,0,0-.251.2l-1.029,1.029q-.729.728-1.531,1.556t-1.43,1.605a6.963,6.963,0,0,0-.66.934,8.447,8.447,0,0,0-.922.3q-.7.4-1.605,1a8.043,8.043,0,0,1-1.756.9,6.553,6.553,0,0,0-.8.427,5.626,5.626,0,0,1-.828.427.845.845,0,0,1-.627.05q-.252-.1-.251-.754l.3-1.1a1.825,1.825,0,0,0,.176-.453c.017-.1.041-.233.075-.4a.679.679,0,0,1,.3-.452v-.251a2.185,2.185,0,0,0,.351-.8q.3-.451.577-.853a3.4,3.4,0,0,0,.428-.853c0-.367-.118-.6-.352-.7s-.419-.183-.552-.251h-.953a1.12,1.12,0,0,0-.352.05.339.339,0,0,0-.1.251.559.559,0,0,1-.049.251.646.646,0,0,1-.151.3.614.614,0,0,0-.15.251v.05h-.151a2.869,2.869,0,0,1-.828.8,5.7,5.7,0,0,0-.879.652q-1.656,1.255-3.212,2.383t-3.262,2.134a1.883,1.883,0,0,1-.8.452,1.413,1.413,0,0,1,.351-.753,1.83,1.83,0,0,0,.4-.8,5.947,5.947,0,0,0,.376-.527,1.172,1.172,0,0,1,.477-.426v-.1a.436.436,0,0,0,.2-.351,1.489,1.489,0,0,0,.577-.427,3.231,3.231,0,0,1,.477-.477q.4-.4.853-.8t.853-.753q.251-.2.451-.376t.452-.426c.268-.168.535-.343.8-.527a2.5,2.5,0,0,1,.8-.376.568.568,0,0,1,.276-.376.833.833,0,0,1,.327-.075l.1-.1.6-.4a3.274,3.274,0,0,1,.953-.6.7.7,0,0,1,.4-.075.4.4,0,0,0,.351-.126.636.636,0,0,0,.3-.351.345.345,0,0,0-.05-.4.693.693,0,0,0-.251-.526,3.953,3.953,0,0,1-.452-.477,1.567,1.567,0,0,1-.7-.15.237.237,0,0,1-.226.075,1.2,1.2,0,0,0-.226-.025c-.033,0-.05.009-.05.025s-.017.025-.049.025a2.092,2.092,0,0,0-1.029.578,2.518,2.518,0,0,1-.879.627,3.415,3.415,0,0,0-1.1.677q-.8.629-1.757,1.455t-1.807,1.631q-.854.8-1.255,1.154-.451.652-.953,1.254a9.206,9.206,0,0,0-.9,1.305,9.048,9.048,0,0,0-.577.879,2.486,2.486,0,0,0-.326,1.029c0,.067-.016.1-.05.1a.045.045,0,0,0-.05.049q-.251.955.3,1.305a.888.888,0,0,0,.653.326c.268.018.535.042.8.075a1.178,1.178,0,0,0,.427.1h.427a1.272,1.272,0,0,0,.728-.126,4.515,4.515,0,0,0,.728-.427,13.545,13.545,0,0,0,2.459-1.355.591.591,0,0,1,.3-.225c.133-.05.234-.092.3-.126.032,0,.041-.025.025-.075s-.008-.075.025-.075a1.315,1.315,0,0,1,.276-.2.692.692,0,0,0,.276-.3,1.611,1.611,0,0,0,.577-.4c.152-.166.309-.351.477-.552.1-.066.184-.125.251-.176a1.247,1.247,0,0,1,.2-.125q.05,0,.075-.075c.016-.05.058-.058.126-.025a5.617,5.617,0,0,0-.075,1.18,4.984,4.984,0,0,0,.125.978,4.319,4.319,0,0,0,.327.628,1.374,1.374,0,0,0,.627.477,1.357,1.357,0,0,1,.276.125.447.447,0,0,0,.226.075,3.378,3.378,0,0,0,1.833,0,5.853,5.853,0,0,0,1.455-.7,14.6,14.6,0,0,0,1.33-1,5.9,5.9,0,0,1,1.455-.9c.066.033.2-.008.4-.126a3.394,3.394,0,0,0,.3-.208c-.016.061-.032.118-.049.183a6.394,6.394,0,0,0-.15.853,3.659,3.659,0,0,0,0,.853,1.6,1.6,0,0,0,.251.7c.134,0,.217.034.251.1a.315.315,0,0,0,.151.15h-.1a1.141,1.141,0,0,0,.577.151c.317.033.652.067,1,.1s.685.05,1,.05a1.818,1.818,0,0,0,.577-.05,3.815,3.815,0,0,0,.677-.226q.427-.175.879-.4t.853-.452a2.7,2.7,0,0,0,.552-.376,6.3,6.3,0,0,1,.878-.728,6.481,6.481,0,0,0,.929-.778.742.742,0,0,1,.352-.251l.2-.2.2-.2c0-.032.049-.05.15-.05q.1-.3.2-.3a.911.911,0,0,1,.026.552c-.05.167-.109.334-.176.5-.1.268-.168.461-.2.578a1.853,1.853,0,0,1-.127.326q-.074.151-.174.326l-.3.526c.067,0,.041.151-.075.453s-.194.451-.227.451a1.989,1.989,0,0,1-.226.176,5.844,5.844,0,0,1-.677.376,7.2,7.2,0,0,0-.853.728,9.116,9.116,0,0,1-.9.778q-2.308,2.056-4.868,4.592a54.123,54.123,0,0,0-4.717,5.32,30.7,30.7,0,0,0-3.513,5.646,11.7,11.7,0,0,0-1.255,5.471c-.1.032-.041.226.176.577a3.3,3.3,0,0,0,.879.929,2.4,2.4,0,0,0,1.229.175,6.283,6.283,0,0,0,1.23-.276,16.264,16.264,0,0,0,5.7-3.814,30.124,30.124,0,0,0,4.291-5.646,53.212,53.212,0,0,0,3.287-6.549q1.431-3.415,2.786-6.474a8.713,8.713,0,0,0,.427-1.154,1.564,1.564,0,0,1,.628-.9,1.127,1.127,0,0,1,.426-.526q.275-.175.627-.427l.4-.3c.168-.134.327-.251.477-.351a2.241,2.241,0,0,1,.527-.251,5.553,5.553,0,0,1,.853-.7l.9-.6q.4-.3,1.18-.828t1.605-1.1c.482-.335.926-.656,1.343-.966a2.855,2.855,0,0,1-.164.389,1.476,1.476,0,0,1-.4.5,12.1,12.1,0,0,0-.577,1.23,8.458,8.458,0,0,0-.427,1.355,4.54,4.54,0,0,0-.1,1.33,2,2,0,0,0,.4,1.1,2.515,2.515,0,0,0,1.13.928,4.1,4.1,0,0,0,1.429.3A6.515,6.515,0,0,0,275.4-435c.5-.1.954-.2,1.355-.3q.451-.15.928-.275a3.158,3.158,0,0,0,.879-.377l3.613-1.706q.352-.151,1.055-.5t1.506-.778q.8-.426,1.605-.878a14.253,14.253,0,0,0,1.356-.853,6.3,6.3,0,0,1,.577-.376,3.979,3.979,0,0,0,.4-.252c.118-.083.158-.125.126-.125.133-.2.259-.376.376-.527a.894.894,0,0,0,.2-.4A.22.22,0,0,0,289.25-442.607Zm-29.335,10.264c-.084.066-.092.166-.025.3q-.5,1.154-1.305,2.911t-1.807,3.739q-1,1.982-2.233,3.965a34.179,34.179,0,0,1-2.61,3.664,16.369,16.369,0,0,1-2.911,2.81,7.132,7.132,0,0,1-3.187,1.38.645.645,0,0,1-.2-.577c.034-.218,0-.359-.1-.427a9.731,9.731,0,0,1,.8-2.81,15.945,15.945,0,0,1,1.43-2.485q.829-1.179,1.732-2.233t1.706-2.057q.3-.352,1.054-1.18t1.807-1.882q1.054-1.054,2.31-2.284t2.459-2.384a.657.657,0,0,1,.5-.351,1.38,1.38,0,0,0,.653-.351A.214.214,0,0,1,259.915-432.344Zm17.616-11.544a9.477,9.477,0,0,1,3.187-1.906c0,.1-.033.15-.1.15a23.411,23.411,0,0,1-1.906,1.983q-1.054.978-2.057,1.781-.4.252-.829.5a1.7,1.7,0,0,1-.878.251A23.853,23.853,0,0,1,277.531-443.888Z" transform="translate(-74.151 -4.003)" fill="#ffed56"/>
    <path id="パス_1179" data-name="パス 1179" d="M297.048-436.429c-.017-.016-.043-.016-.075,0s-.05.034-.05.05.043.007.105,0C297.049-436.4,297.057-436.42,297.048-436.429Z" transform="translate(-85.893 -6.214)" fill="#ffed56"/>
    <g id="グループ化_518" data-name="グループ化 518" transform="translate(-66.408 -438.261)">
      <path id="パス_1180" data-name="パス 1180" d="M-45.033-421.455c-.322-.064,1.471-3.578,1.9-4.069l-.025.016a3.307,3.307,0,0,1,.321-.382,3.387,3.387,0,0,0,.321-.383q.589-.713,1.133-1.412t.876-1.188c.106-.177.208-.348.305-.514s.167-.286.211-.362l-.021,0a1.693,1.693,0,0,1,.3-.557l.028-.036a.064.064,0,0,1,.028-.037l.082-.143c.033-.058.07-.118.11-.18l.344-.23a1.167,1.167,0,0,1,.884,0,1.4,1.4,0,0,1,.758.63l0-.02a1.354,1.354,0,0,1,.234.749,2.281,2.281,0,0,1-.14.8,2.325,2.325,0,0,1-.4.6,1.992,1.992,0,0,1-.622.45,2.21,2.21,0,0,0-.518.407q-.305.3-.685.714-.434.467-.886.973T-41.4-424.6q-.466.524-.9,1.024A15.7,15.7,0,0,1-45.033-421.455Z" transform="translate(45.071 431.024)" fill="#ffed56"/>
    </g>
    <g id="グループ化_519" data-name="グループ化 519" transform="translate(58.663 -437.468)">
      <path id="パス_1181" data-name="パス 1181" d="M109.141-420.477c-.322-.064,1.471-3.578,1.9-4.068l-.025.016a3.244,3.244,0,0,1,.321-.383,3.391,3.391,0,0,0,.321-.383q.589-.712,1.133-1.412t.876-1.187c.106-.178.208-.349.305-.514l.211-.363-.021,0a1.687,1.687,0,0,1,.3-.557l.028-.037a.057.057,0,0,1,.028-.037l.082-.144c.033-.058.07-.117.11-.18l.344-.23a1.167,1.167,0,0,1,.884,0,1.407,1.407,0,0,1,.758.63l0-.02a1.356,1.356,0,0,1,.234.749,2.281,2.281,0,0,1-.14.8,2.325,2.325,0,0,1-.4.6,1.992,1.992,0,0,1-.622.45,2.232,2.232,0,0,0-.518.407q-.305.3-.685.715-.434.466-.886.972l-.919,1.029q-.467.524-.9,1.024A15.655,15.655,0,0,1,109.141-420.477Z" transform="translate(-109.103 430.046)" fill="#ffed56"/>
    </g>
  </g>
</svg>
